<svg id="Layer_1" data-name="Layer 1" xmlns="http://www.w3.org/2000/svg" viewBox="0 0 284.11 244.97"><defs><style>.cls-1{fill:#010101;}.cls-2{fill:#a5223e;}.cls-3{fill:#fbf5f8;}</style></defs><path class="cls-1" d="M281.68,146.79C315.81-36.56-22.08-56.11,1.15,133.41,20.56,271,256.74,288,281.68,146.79Z"/><path class="cls-2" d="M207,30.62l.15.13m9.86,7.9C346.93,156.7,137.71,327.82,38,189.16-42.32,82.69,102.42-47,199.14,24.75"/><path class="cls-3" d="M221.28,93.92c-8.59,17.15-6.05,152.78-29.24,93.39-7-32.5,3.92-62.92,10.84-94.13.18-3.8.15-5.86-4.77-6.43-25.22-1.25-21.56-39.66-2.48-45.55,26-8.65,17.52,36.72,29.59,18C256,41.19,254.47,113.11,221.28,93.92ZM192.2,68.1c5.19,32.7,30.4-25.12,7.72-13.75A18.59,18.59,0,0,0,192.2,68.1Zm42.54-.76c-6.51,4.09-10.47,17.13-1.86,20.24C241.69,86.29,240.68,72.45,234.74,67.34Z"/><path class="cls-3" d="M107.51,57.06C114,70.94,144.2,263.36,99.73,208.4c-13.25-55-29.66-116.7-13.18-172.21C94.35,8.89,109.63,48.44,107.51,57.06ZM112,207.3c0-38.13-6.87-80.5-7.43-120.26C73.84,52.5,101.2,197,112,207.3ZM101.6,67.44c-3.09-2.75.7-9.66-6.35-9.09C84.34,62.09,91.34,75.22,101.6,67.44Z"/><path class="cls-3" d="M149,84.07c11,6.53,22.74,201.52,0,134.58-13.85-40.78-14.82-88.06-13.62-134.17.22-8.68-21.32-27.58-24.29-40.37-1.79-7.73,5.92-19.09,12.52-25.64a30.5,30.5,0,0,1,5-4.16C152.76-.73,151.16,75.46,149,84.07Zm8.57,132.18c0-38.13-.8-108.28-10.36-121.33C131.42,73.29,146.87,206,157.61,216.25ZM142.05,76.93c-3.09-2.74-15.57-44-22.61-43.43C108.53,37.25,136.48,77.89,142.05,76.93Z"/></svg>