<svg id="Layer_1" data-name="Layer 1" xmlns="http://www.w3.org/2000/svg" viewBox="0 0 284.11 244.97"><defs><style>.cls-1{fill:#010101;}.cls-2{fill:#3e3896;}.cls-3{fill:#fcfbfb;}.cls-4{fill:#f4f4fa;}</style></defs><path class="cls-1" d="M281.68,146.79C315.81-36.56-22.08-56.11,1.15,133.41,20.56,271,256.74,288,281.68,146.79Z"/><path class="cls-2" d="M212.61,30.62l.15.13m9.86,7.9c129.9,118-79.32,289.17-179.06,150.51C-36.73,82.69,108-47,204.72,24.75"/><path class="cls-3" d="M61.85,134.1c-3.63-2.06-4.74-4.14,0-6.25,10.73-.67,20.73-3.82,30.4-8.47,5-2.42,7.23-5.76,7.89-11.39A167.52,167.52,0,0,1,112,61.93c2.34-5.54,5.29-10.69,9.7-14.9,4.93-4.72,10.67-6.86,17.3-4.77,6.82,2.16,9.79,7.83,10.68,14.36,1.64,12.06-2.23,22.9-8.4,33.06-3.29,5.44-8,9.73-12,14.55-3.08,2.42-6,5.06-9.29,7.23-4.67,3.1-6.4,7.2-5.2,13.58,5.35-7,9.69-14.11,17.33-17.84,10.83-1.11,14.62,1.61,16.82,11.9,1.27,5.94.67,11.94.89,17.92a92.8,92.8,0,0,0,.86,11.93c.49,2.88,1.45,6.11,4.85,7,3.73.95,6.4-1.29,8.54-4a26.75,26.75,0,0,0,6-13.5c.62-4.95,1.41-9.88,2.21-14.8a70,70,0,0,1,1.72-8.81c1.27-4.26,4.16-7.09,8.82-6.38s6.87,4.07,7,8.5a74.21,74.21,0,0,1-.9,10.91c-1.38,10.9-3.05,21.76-4.22,32.67-.45,4.15-1.47,10,2.69,11.75s7.6-3.1,10.52-6.13c9.29-9.66,15.69-21.48,23.65-32.14,3.69-5,6.78-10.59,13.32-13,1.76,4.4-.63,7.59-2.32,10.61-8.11,14.56-17.08,28.57-28.1,41.14-3.52,4-7.46,7.63-12.44,9.86-8.31,3.74-15,1.31-19.06-6.85-2.88-5.79-2.93-12.23-4.1-18.25-2.42-2-3.74.36-5.36,1.09-8.7,3.89-13.69,2.31-18.15-6-2.88-5.33-4.11-11.19-5.47-17-1.11-4.75-1-9.92-4.08-14.31-5.31,1.48-7.23,6-9.45,9.89-8,14-13.93,28.73-15.09,45.05a91.71,91.71,0,0,1-1.17,9.91c-.59,3.33-2.72,5.54-6.2,5.23-3.31-.28-5.36-2.53-5.75-5.91-.28-2.31-.29-4.65-.39-7A510.8,510.8,0,0,1,98,126.1C85.84,131.27,74.11,134.16,61.85,134.1Zm55.84-33.42c16.65-14,22.07-28.38,16.51-43.54C124.23,70.08,121.86,84.69,117.69,100.68Z"/><path class="cls-4" d="M178.07,87.21c0-6.06,3.94-10.74,9.19-11s9.9,4.43,10,10.18c.14,5.92-4.63,11.35-10.1,11.49S178,93.75,178.07,87.21Z"/></svg>