<svg id="Layer_1" data-name="Layer 1" xmlns="http://www.w3.org/2000/svg" viewBox="0 0 284.11 244.97"><defs><style>.cls-1{fill:#010101;}.cls-2{fill:#3f8d41;}.cls-3{fill:#fbf5f8;}</style></defs><path class="cls-1" d="M281.68,146.79C315.81-36.56-22.08-56.11,1.15,133.41,20.56,271,256.74,288,281.68,146.79Z"/><path class="cls-2" d="M217.18,30.62l.15.13m9.86,7.9c129.91,118-79.32,289.17-179.06,150.51C-32.16,82.69,112.58-47,209.3,24.75"/><path class="cls-3" d="M78.12,112c7.69,0,12.71,4.78,12.75,12.1,0,8-7.14,17-13.78,17.27S65.14,135.27,65,127C64.84,117.39,69.57,112,78.12,112Z"/><path class="cls-3" d="M142.24,112c7.69,0,12.71,4.78,12.75,12.1,0,8-7.14,17-13.78,17.27s-12-6.1-12.09-14.38C129,117.39,133.69,112,142.24,112Z"/><path class="cls-3" d="M200.61,112c7.68,0,12.7,4.78,12.74,12.1,0,8-7.14,17-13.78,17.27s-11.95-6.1-12.09-14.38C187.32,117.39,192.05,112,200.61,112Z"/></svg>