<svg id="Layer_1" data-name="Layer 1" xmlns="http://www.w3.org/2000/svg" viewBox="0 0 2620.28 1686.07"><defs><style>.cls-1{fill:#d5e0e1;}.cls-2{fill:#a4233d;}.cls-3{fill:#fff;}.cls-4{fill:#fcfbfa;}.cls-5{fill:#313133;}.cls-6{fill:#f9a52c;}.cls-7{fill:#faf4f7;}.cls-8{fill:#a4223e;}.cls-9{fill:#3e3895;}.cls-10{fill:#fcfcfb;}.cls-11{fill:#f3f3f9;}.cls-12{fill:#4d8c8e;}.cls-13{fill:#f6f9fa;}.cls-14{fill:#3e8c42;}</style></defs><path class="cls-1" d="M445.63,1118c2.63-8.86,2.78-18.32,6.45-27.47,15.21,4.41,15,15.5,33.16,17.91,9.09.11,25.19,10.25,30.18-.21,9.37-.18,9.77-8,12.34-14.19,16.67-37.92,12-79.12,15.25-119.34-.77-11.2,3-23.94-3.08-34-2.26-2.75-1.8-7.68.47-11.43,3-1,4.23-3.29,5.27-6,6.11-3.74,7.41-9.69,7.46-16.21a8.57,8.57,0,0,1,3.46-6.94c5.88-4.61,8.51-11.52,13-17.12,13.18-14.56,2.19-29.42,12.43-23.78,1.45-1.26,1.34-5.09,2.07-6,8.54-2.35,4.63-8.86,5-14,2.92-17.47-9.6-31.17-9.87-48.11-2.21-25.7-.77-54.65-13-77.6-9.61-3.28-11.77-13.53-18.52-19.44-2.49-2.18-4.74-4.63-7.21-6.85-11.22-10.1-48.17,3.87-63.86,4.77-16.36,14.36-33.47-14-49.26,3.26-6.09,5.93-14.72,8.86-20.16,15.79-7.92,1.93-16.07,3.45-20.07,12-1.24.31-3.12.41-3.18,1.75-.76,7.06-5.08,13-5,20.27-4.33,3.79-6.47,8.43-5.57,14.26C362.85,786.82,365.15,816,365,845c3.56-.45,1-4,4-4.44.95,8.9,6.31,16.92,6.41,26.33l-2-.1L371,865a8.72,8.72,0,0,0-.92-3.88c-.24,1.52-.52,2.86,1.07,3.74.07,1.65-.37,3.53,1.89,4.18l-.06-.11c-.29,1.86-.06,3.46,2.06,4.12l-.08-.07c-.56,14.08,32.44,23.15,24.82,35.93-3.47,4.92-3.43,10.73-4.57,16.14-2,9.69-4,19.36-6.37,29-2.77,11.16-8.28,21.77-8.08,33.62.06,3.65-3.07,5.68-3.73,9.07-7.06,28.73-12,55.27-21.54,84-.63-9.61-.54-17.48,1.06-25.31,1.38-6.79-1-13.08-2.79-19.44-1.28-4.55-3.81-2-5.51-1.34-7.46-13.45-5.79-28.08-4.73-42.33,1.66-22.21,4.18-44.36,3.83-66.69-1-12.59,3.31-27-6.54-37.13-8.64-8.15-16.4-6.87-21.72,4.54-2.54-.51-1.4-3.55-3.75-5-1.74,3.82-7.82,5.26-5.23,11.31l-.9,2c-2.57-.46-1.35-4.29-4.39-4.71-2.72,3.33-1.07,7.46-1.75,11.13a24.93,24.93,0,0,0,2.51.73l-.3,2.59c-10.25,1-6.66,15-10.33,21.73-3,.7-3,2.09-.93,4-3.33,23.47-10.22,46.5-11.33,70.2-2.41,3.81-4.46,7.68-2.13,12.31l-1.11,3.8c-8.68,51.5-8.41,107.2-8.75,160.17-3,1.59-5-.1-6.81-1.31-11.3-7.75-24.21-12.32-36.38-18.31-55.17-27.56-84.42-80.94-86.34-141.42-5.71-36.68-43.44-68-29.14-107.35,4.58-19.41,22.89-47.12,1.35-62.13-24.33-14.69-50.15-28.79-67-52.59C22.18,769.39,9.14,732.58,3.78,694.13,1.71,673.55-2,653.68,1.37,632.79c1.57-13.26,16.88-13.18,26.37-18,10.32-4.41,17.83-2,24.89,7.18,2.42,3.15,4.8,6.18,8.43,8.26,8.34,4.78,13.72,13.25,22.59,18.89,18.62-46.92,24.28-121,86.59-128.16,34.83-5.6,67.25-16.85,93.66-41.55,32.55-27.47,71.05-57,116.47-49.5,19.52,4,39.71,4.29,59.68,2.93,24.94-.72,40.65-24.33,52.77-43.39,21.64-34.68,55.24-59.27,93-74,12.06-4.36,24.53-7.85,36-14.38,27.6-11.15,56.86-20,84.5-31.54a24.69,24.69,0,0,0,12.21-9.82c13.2-19.38,28.88-36.42,46.29-52.14,11-9.95,20.46-21.45,29.44-33.53,9.52-12.8,23.67-21.11,39.18-26.15C840,145.7,847,144.68,853.46,142a15.38,15.38,0,0,1,9.87-.28c9.9,2.76,20.51,3.93,29.17,9.81,7.6,5.17,14.86,11.11,20.11,18.85,1.26,1.86,2,4,3.9,5.48,12.07,9.64,21.69,21.64,31.25,33.58,37.36,42.31,58.21,49,107,17,13-9.23,25.63-19.05,38.28-28.79,16.25-12.52,33.6-22.53,54.09-26.61,9.78-2,18.33-.65,26.32,5.33,14.32,10.71,27.07,22.66,33.45,40,1.37,3.74,2.6,7.73,4.89,10.9,2.93,4.06,2.71,9.66,7,12.95,12.9,9.86,24.7,22,42.66,21.57,11.29-.28,22.56-1.44,33.85-2,44-4.07,74.05,18.59,100.26,51.71,8.65,12.23,14,29.07,25.4,39.91,6.64,10,13.27,20,27.46,19.52,28.3,6.39,47.34-1.07,74-7.93,3.21-.56,5.78-1.42,6.75-4.83,12.86-4.65,25.31,4.85,37.84-1.18,12.66-.74,27,1.15,36.21,10.66,18.82,18.82,31.77,44.51,27.85,71.43-.27,4.85-2.44,9.07-5,12.91a355.38,355.38,0,0,1-23.88,34.42c-8.16,12-8,11.92.2,23.6,12,17.33,26.36,34.38,28.3,56.19,1.87,11.79,3.1,23.69,4.14,35.58,10.53,44.17,69.62,42.06,104.37,31.3,15-4.85,18.06-9.14,17.67-24.71a176.15,176.15,0,0,1,4-42.56c6.45-28.62,26.8-54,55.7-61.69,6.2-.22,10.64-5.37,16.49-6.65,54.18-11.52,110-5.95,164.6.71,24.34,1.44,48.56,5.37,72.63,9.59,30.24,6.2,63.37,9.83,88.31,29.54,16.89,14.8,12.77,41.57,8.83,61.24-5.93,25.46-29,39.47-43.77,59.26-10.23,13.85-26.78,20.34-34.8,36.1-6.31,10.92-13.36,21.43-19.6,32.45-11.74,25.11-18,53.18-16.18,80.9.09,16.9,1.07,35.54,13.39,48.57,2.37,9.71,9.6,13.35,18.43,15.36,2.6.59,4.72,2.13,7.05-.84,1-1.29,13.58.51,14.61,1.88,1.67,2.2,4,3.69,3.24,7.64-2.23,11.3,5.79,19,11.1,27.53,1.72,3,5.76,3.29,8.92,3.69,18.57,5,15.51,2.7,14,19.12-.84,8.85-1.29,17.88-2.29,26.62-1,8.48-2.19,17.91-11,24.07-30.37,20-56.94,47.08-91.06,60.75-8.28,3.11-14.77-4.64-19.59-10.15-31.91-36.45-71-62.78-115.64-81.1-6.51-3.86-5.32,2.18-10.27,2.56-2.86.23-7.7-1.36-8.05,1.56-.54,4.47-3.48,9.11-.64,13.89a10.43,10.43,0,0,1,1.63,5.68c-1,12.41,5.86,21.69,12.76,30.49,18.61,24.47,38.27,48.46,54.92,74.27-1.56,3.26-4.17,2.11-6.28,2.11-67.92-.11-135.54,3.86-203.44.09-11,0-6.53-26.07-8-33.79-1.68-46.17-1.87-92.39-1.66-138.56.46-6,1.66-12.16-2-17.73,4.64-4.09,0-20.25,2-26.13,1.82-1.32,1.85-2.65,0-4-1-6.84,3.8-13.42-.17-20-1.13-4.92.17-9.7-.48-14.59q-.13-5.33-.26-10.66c.07-3.76,3-8.15-2.37-10.71l-.72-3c4.88-8.5-2-15.51-3.08-23.25-.23-1.58-2.71-1.26-4.32-.68,0-.76-.09-1.53-.12-2.3,7.21-3.43,2.92-9.53,3.23-14.47.27-4.21-3.06-4.25-6.12-4.17-1.93-1.68-1-3.51-.39-5.44.87-2.57,3.24-.58,3.45-.8,2.19-2.34,1.15-5.83-1-6.18-5.52-.91-5-4.63-6-8.47-1.78-6.88-3.35-14.23-11.25-17.42-3.68-1.48-2.28-6.89-6.09-8.53-3,1.63-2.72,4.71-2.13,7.05,3.94,18.5-.59,38.07,2.84,56.22-8,10,3.86,21.66-2.67,32.27-2.52,9.21,5.08,18.57-2,27.73-3.53,4.49,7.92,12.23,1.83,16.35-4.48,2.64-4.07,6.29-4.16,10.21-3.24,81.3-6,162.69-9.85,243.95.35,12.3,1.8,13.75,13.79,16.94,12.86,3.43,26,4.11,39.18,4.37,7,.14,13.87,0,20,4.34,9.67,3.4,2.27-4,7.62-3,5.54.77,11.35.21,17,.33,0,.64.1,1.27.14,1.9-8.18,2.73,14.42,1.78,16,2.12,5.8,3.45,12.05,1.83,18.11,1.3,1.26-.1.23-2.24-.13-3.43l5.79.24c.9,5.53,5.08,3.53,8.35,3.63,19.48.82,39,2.52,58.54,3.26,36.79,2,74.14-3.2,110.87-4.72,9.79,10.76,11.77,6.51,24.4,5.52,4.68-.66,9.85,1.69,14-2.31,5.82-1,12-2.93,16.38-7.21a249.78,249.78,0,0,0,47.24-23.21c5.45-3.37,10.86-6.44,17.78-5.65.8,31.46-4.41,63.49-4.49,95.19-.3,4.51,3,9.52-.7,13.39-51.43,20.91-111.65,5.51-162.89,27.48-9.13,4.24-21,5.07-23.29,17.12-2.65,11-3.8,22.2-5.77,33.29-1.76,9.86,1.6,19.36,4.48,28.31,4.3,13.32,5.89,27.1,9.34,40.53,7.79,30.93,11.9,62.56,19.55,93.53,1.52,7.22.82,9.14-5.29,12.09-29.37,16-43.45,47.63-59.1,75.41-12.14,23-33.75,45.63-62.74,33.86-19.58-5.25-37.89-13.3-54.54-25.07-15.52-10.2-30.86-20.56-45.2-32.36-5.2-4.28-11.49-5.55-17.65-6-75.69-9-145.17,61.47-220.39,31.17-46.28-17.57-89.52-51.08-112.33-95.69-2.72-5.14-6.69-7.45-12.57-8-24.52-2.18-49.12-2.7-73.67-4-10.11-.53-19.6-4-29-6.9-24.35-7.65-49.85-15.75-69.55-32.5-8.2-6.81-17.49-12-25.68-18.87-5.07-4.26-12.54-6-19.83-5.16-13.94,3.78-35.64-.49-33.07,21.26,2,29.69,15.17,64.8-7.69,89.58-20.47,24.31-47.34,44.54-79.56,48.43-8.59,1.06-10.17,1.31-10.84,9.8-3,18.62-6.93,37.1-18.77,52.43-50.83,65.83-105.32,68.9-176.64,32.23-12.88-10.41-28.63-16.24-41.85-25.91-22.57-15.19-43.29-33-65.73-48.14.1-2.64-1.18-4-3.8-4.18-4.33-6.93-8.72-14.21-18.19-13.83-3.8-5.83-6.35-12.46-14.14-13.85a4.34,4.34,0,0,0-3.79-1.85c-2.53-3.83-4.77-8-10.29-8l-3.4-2.77c-3.73-10.83-13.1-8-20.61-15.29.17-2.88-1.11-4.24-4.06-3.85a13.41,13.41,0,0,1-1.38-.77c-.43-2.68-2.05-3.65-4.64-3.19-7.42-7.94-14.61-15.77-25.62-18.46-3.23-1.51-7.34-1-9.8-4.27-3.79-7.33-11-7.27-18.19-7.38-5.44-5.18-11-9.86-19-11.08-6.6-1.14-11.6-8-18.73-7.56l0-.1c-.7-3.67-3.52-3.61-6.32-3.57-5.39-5.92,3.74-11.58,4.17-17.89,10.14-3.38,26.27-47.09,23.89-57.76,5.06-3.74,4.42-9.09,4.09-14.36l0,0c8.82-17.51,9.69-39.66,14-59,.52-3.21-.07-6.78,3.82-8.4a4,4,0,0,0,3.67,3.73c8.87,6.28,13.27,18.52,24.69,20.83,2.1,0-2.32,5.9.72,9.2,12.7,18,28.06,34.22,40.61,52.5,6.91,8.81,14.29,18.19,27.12,19.42,11.16,3.74,7,9.3,19.31,1.82,3.8-.75,6.06,5.32,9.77,2.08,7.53-4.59,17,1.94,28.12-6.22,7.85-4.56,13-26.73,1.4-28.74,4.33-9.13,9.85-10.83,1.58-19.73-4.89-7.4-10.44-5.07-16-5.41-9-.55-15.36-4.48-20.59-11.9-26.27-39.23-59.2-72.94-92.39-106.3-10.72-8.77-19.76-19.42-33.24-25.07-6.5-2.72-12.55-8.24-17.48-14.08-4.77-4.37-7.95-12.28-15.09-12.75-27-6.89-55.17-6.9-82.79-9.78C443.12,1135.88,442.37,1135.1,445.63,1118Zm405.07-91.35c-2.68,3.19-.84,4.53,2.21,5.37-.2.93.35,1.41,1.07,1.8-.46.62,0,1.22.2,1.86-5.2,2.18-3.2,6.73-3.47,10.53-32.29.17-65-4.36-97.45.5-12.14,1.72-24.31,4-36.4,5.28-22.08,2.28-43.68,8.52-66.13,8-3.32-.08-8.14.56-9.62,5.56a36.38,36.38,0,0,0-.7,18.5c1.14,5,7.15,5.44,11.18,7.52,37.1,12.33,77.42.87,115.64,1.39,34.14-2,70,3.75,102.81-7.74,4.64-1,5.08-7.1,8-9.68,13.88-8.72,18.11-22.77,21.51-37.51,15.32-72.49,2.91-146.66,7.34-219.88-1.17-40.64,9.17-80.56,8.16-121.21,3.3-4.42,1.21-9.58,2-14.34.73-8.39-7.73-19.87-16.5-13.41.21-2.25.85-4.59-1.45-6.25-2.89-8.67-2.89-8.67-10.12-5.71-3.4-7.16-15.46,10.73-14,15.48-5.08.38-6.12,3.83-6.14,8.06-.91,3.5-3.88,6.28-3.59,10.2-3,5.27-2.71,10.59-.21,15.94-1,1.68-3.15,3.58-2.87,5,1.71,8.64-2.1,16.22-3.39,24.27-1.77,11.05-3.42,22.59-1.68,34.12.58,3.81,1.16,7.91-.21,11.84-2.78,7.94-2.92,16.23-3.69,24.49-.76,51.6-8.14,103.41-6.4,155.4.44,17.91-1.19,36.92,2.45,54.1A14.47,14.47,0,0,1,850.7,1026.67Z"/><path class="cls-1" d="M2264.9,757c.63-3.66-2-6.5-2.45-9.9,11.91-.12,12.77.28,16.21,11.54,2.24,7.3,5.4,14.3,7.61,21.49,7.18,22.94,27.76,28.42,46.75,34.85,11.65,4.1,24.66-.85,36.05,5.51a4.92,4.92,0,0,0,6.9-2.24c1.74-3.7-2.57-4.67-4.67-6.46-6.44-5,4.09-13,7.86-6.23,2.08,2.58,1.52,8.38,5.74,8.42,2.63-.21,2-3.06,3-4.62,2.19-3.41-.41-8.53,3.41-11.09,5.07-3.4,2.27-5.71-.4-8.53-2.15-2.27-7-3.41-5.53-7.4,2.39-6.43-.65-9.11-5.76-11.31-3.39-1-2.32-6.42,1.24-6,21.29-2.83,12-21.33,43.13-7.09,21.4,4.55,11.81,2.74,22.86,17.8,10.41,7.88-3.5,10.39,2.15,17.08,6.81,6.75.93,6.33-4.51,9.86-9.45,4.21-3.92,12.65,4.47,12.22,1.47,7.4,3.28,22.76,13,23.11,3-1.09,3-4,3.08-6.7.23-10.4-5.38-16.18-16.13-16.41,1.62-12,7.89-7.28,15.49-4.12,7.63,2.15,8.3,2.86,8.62,10.44.86,6.26-2.56,14.22,4.45,18,12.19,7.17-12.93,24.15,5.24,27.71l0,10c-3.8.06-3.48,4.14.21,4,.26,2.27,1.36,3.82,3.7,4.3,1.5,3-.32,7.23,4,8,.79,2.1.15,4.55,2.48,5.81.34,9.2,11.66,35.57,24.3,28.93,2.62-1,3.49,1,3.63,3.2-.21,4.48.19,13.32,6.33,7.23,9.69-8.14,11.65.3,15.95,7.31,11.88,7.24-15.2,11.87,1.24,19.82,11.82,4.2,19.89,24.14,33.51,13.39,3.8,8.56-3.85,22.18,6.16,25.16,4.11.61,4.2-2.93,5.06-5.87,1.46-5,3.53-6.07,6.86-3.57,3.93,4.28,15.76,10,13.93,16.39-5.56,13,12.59,16,8.84,28-5.13,5.09-4,13.32-8.08,18.54-6.78,7.72-8.27,20.45-21,22.72-.66.12-1,1.64-1.61,2.42-4,5.23-3.89,5.13-7.6-.27-2.14-3.11-4.19-8-8.77-6.23-7.65,3.56,3.67,13-3.2,17.73-4.3,3.72-14.9,4.16-19.5.75-10.83-9.43-4,9.58-16,8.29-4.24.14-8.59-.89-12.74.88-1.16,3.12,1.34,5.84.69,8.81l-3.94.47c-.73-4.14-2-7.54-7.06-4.18-10.28,6.93-18.33-6.12-29.44.33-14.77,6.4-14.24-4.58-26-4.38-8.21,1.37-15.72-4.34-23.24.72-2.9,1.67-6.2,2.22-9.17.09-1.48-3.64,3.89-6.38.8-10.82-6.32,7.68-22.31,7.82-22,19.13.42,3.32-1.17,6.55-4,7.48-6.44,2.13-10,11.32-18.82,7.66-6.94,1.36-7.93,10.47-17.64,2.56-3.5,6.43,4.92,9.58-8.17,13.25-6.28,2.89-2.72,11.61-12.17,16.39-6.71,2.54-16.79,12.54-23,7.46-1.57-1.07-2.26-2.51-1.6-4.26,3.62-7.46,14.49-.42,20.52-7,3.16-2.56,2.18-4.3,0-6.39-12.87-12.21-26.6,5.47-40.38,5.78a25.21,25.21,0,0,1,0-10c4.65-4.57,4.67-7.3.06-12,0-1.34,0-2.67,0-4,2.91-.63,3.33-2.77,3.32-5.28q0-20.42,0-40.83c0-2.83-.25-5.39-3.8-5.88-1.13-6.64-.49-13.3-.3-20,3-4,4-23.22-1.39-24q-2.39-16.63-4.79-33.28c.26-2,.13-3.84-2.14-4.69-3.1-12.13-11.56-19.67-23.48-12-2.21,0-4.58-.45-6.07,1.89a5.63,5.63,0,0,0-4.11,2.07c-12.89,2.31-6.69,25.35-14.14,34h-5.73a20.68,20.68,0,0,1,.33-8.18c2.22-2.09,2.06-4-.37-5.81a116.47,116.47,0,0,1,.29-22.17c2.31-2.1,1.57-4.89,1.7-7.48,0-26.45.93-55.44-6.14-80.42-.36-3.54-.26-7,2.08-10l4.3-.09c7.41,5.5,15.28.57,23.17,1,7.16,2,3.6-14.48,4.88-18.77l7.22.1c1.36,5.74,4.63-.09,3.79-3.3-1.63-29.47,2.29-59-3.55-88.16C2269.73,772.09,2270.35,763.6,2264.9,757ZM2472,1052.82c.7,5.59-.26,6.72-4.38,5.17-9.27-3.5-13-2.21-16.65,6.63-1.53,3.68-3.56,6-7.41,7.19-8.54,2.09-16.05,16.89-4.18,20.2,6.27,3.48,10.06-6.92,8.24-12.46-.9-2.82.83-5.3,3.43-4.32,5.93,2.22,9.17-.11,12.2-4.84,3.5-3.15,10-.67,14.47-2.06,5.45-.88,6.85-5.54,8.91-9.7,1.42-2.86,6.15-4.29,5.34-7.82-1.07-4.39-7-3-9.81-5.8C2477.56,1040,2468.89,1046.84,2472,1052.82Zm106.83-35.9c-8.71.12-12,5.51-7.89,12.82,1.91,3,5.86,12.77,9.26,6.17,1.44-2.84.83-6.47,3.67-8.88,2.34-2,4-4.63,2.58-7.81C2584.87,1015.65,2581.34,1017.4,2578.86,1016.92ZM2551.07,1033c1.24-13.88-8.1-3.87-11.16.8-2,4-.11,6.91,4.48,7.11C2550,1041.14,2551,1040,2551.07,1033Zm3.85-19.8c.18-6.78-12.53-5.14-11.33,1C2544.53,1020.34,2555.63,1020,2554.92,1013.17Zm-51.58,24.72c-2.27,1.87-7.16-.59-7.86,4.22-.89,5.84,13.42,7,11.51-.78C2506.88,1039.15,2506.41,1037.29,2503.34,1037.89Zm-8.51,33.1c-1.55-5.64-8.44-3.37-7.6,2.23C2487.52,1079.09,2495.49,1076.53,2494.83,1071ZM2399,775.73c-3.23-.25-4.76,4.48-2.51,6.22C2400,783.13,2402.77,777,2399,775.73Zm88.58,259.65c-3.17.35-2.54,5.48.46,5.13C2491.8,1040.68,2491.25,1034.61,2487.6,1035.38Zm114.92,6.38-.72,1.66c1.44,1,2,.76,2.39-1ZM2272.57,880.87c-.27-.61-.49-.77-1-.27l.73.95Z"/><path class="cls-1" d="M2295.76,1156.89c13.75-.3,27.53-18,40.38-5.78,2.2,2.09,3.18,3.83,0,6.39-6.06,6.64-16.86-.43-20.52,7-.66,1.75,0,3.19,1.6,4.26,6.17,5.09,16.34-4.93,23-7.45,9.49-4.84,5.83-13.45,12.16-16.4,13.08-3.67,4.68-6.81,8.17-13.25,9.76,7.92,10.67-1.2,17.63-2.57,8.83,3.67,12.39-5.52,18.83-7.65,2.79-.93,4.38-4.16,4-7.47-.3-11.33,15.67-11.46,22-19.14,3.09,4.44-2.28,7.18-.8,10.82,3,2.13,6.27,1.58,9.17-.09,7.52-5.06,15,.65,23.24-.72,11.71-.21,11.28,10.78,26,4.37,11.12-6.44,19.13,6.61,29.44-.32,5.07-3.36,6.33,0,7.06,4.18-4.35,2.9-9.73,3.08-14.27,2.88-18.12-.78-36.35,0-54.35-3.18-34.28-3.42-62.36,23.69-87.61,43.08-32.26,29.21-57.23,65.51-81.12,101.65-19.2,30.07-36.66,61.06-51.17,93.61-15.72,38.79-37.45,77.42-75.42,98.29-4-.66-5.53,2-6.84,5-6.47-.58-17.44,9.62-19.79-.26-7.58-33.77-22.92-65.11-35.54-97.14-1.38-3.46-2.57-7.38-5.92-9.8-3.19,2.41-1.64,5.25-2,7.69-5.5-3.14-6-8.64-6.63-14.07a12.09,12.09,0,0,1,4.68.38c.52,1.55,1.64.26.33-.25-.32-6.17-10.39-27.76-16.21-28.41-3.09-8.77-2.7-9.44,6.52-10.33,16.22-3.9,30.74-13.33,47.62-15.19,7.49-2.09,12.67-9.77,21.46-7.65,5.32-6.18,11.13,1.38,16.66-.52a2.79,2.79,0,0,1,2.47,1.16c2.49,8.1,9.85,5,15,6.11,12.81,2.82,24.28-3.07,35.77-7.48C2295.68,1240.14,2296.06,1249.66,2295.76,1156.89Zm11.89,10.28c-4.59.41-9.12,5.73-2.34,7.38C2309.52,1175.38,2312.8,1167.24,2307.65,1167.17Z"/><path class="cls-1" d="M488.12,1375.22c-10.67-16.56-19.14-33.08-27.75-50.6-25.38-41-60.51-37-101.93-42.09-18-4.1-32.39-18-44.45-31.39-3.07-3.88-2-10.05-7.83-12.66,12.28,0,23.5-4.83,36-2.26,10.9,2.24,22.52,1.5,33.8,1.26,11.29.9,29.88-2.47,39.38,2.46a497.1,497.1,0,0,0,59.83.31c3.93-.46,7.66,1.34,11.78,0,2.87-.94,3.16,2.34,3.65,4.68a152.32,152.32,0,0,1,2.53,47.5c-.78,7.28-3.7,15.09.89,22.35a2.25,2.25,0,0,1-.06,1.91c-5.47,9.94-2.49,20.66-3.14,31.07C490.23,1356.88,488.66,1366,488.12,1375.22Z"/><path class="cls-1" d="M2482.74,866.94c-18.17-3.56,7-20.54-5.23-27.71-7-3.78-3.61-11.74-4.46-18-.32-7.58-1-8.29-8.62-10.44-7.55-3.12-13.92-7.89-15.36,4.13-8.58.45-14-8-4.59-12.23,5.35-3.54,11.39-3.1,4.5-9.86-5.63-6.69,8.26-9.22-2.15-17.08-11-15-1.48-13.29-22.86-17.8-31-14.21-21.78,4.16-43.13,7.09-3.55-.45-4.64,4.93-1.24,6,5.11,2.2,8.15,4.88,5.76,11.31-1.49,4,3.38,5.13,5.53,7.4,2.67,2.82,5.47,5.13.4,8.53-3.82,2.56-1.22,7.68-3.41,11.09-1,1.56-.35,4.41-3,4.62-6.07-.34-3.69-15.88-13.47-9.77-8.12,7.13,7.43,8.47,4.54,14a4.92,4.92,0,0,1-6.9,2.24c-11.39-6.36-24.4-1.41-36.05-5.52-19-6.42-39.57-11.9-46.75-34.84-2.21-7.19-5.37-14.19-7.61-21.49-3.44-11.26-4.3-11.66-16.21-11.54-1.72-1.72-1.69-3.9-1.59-6.09,8.48-1.73,10-4.11,6.6-11.06-3.58-5.13-5.85-13.84-13.21-8.64-3.13-3-5.54-6.5-6.29-10.93,10.17-2.83,14.51,1.49,19.09,8.74a70.48,70.48,0,0,1,22.39,38.77c.87,4,4.09,6,7.79,6.9,37,10.44,71.31-15.1,107.81-15.66,5.77-.28,11.07.47,16.27,3.42,3.65,1.22,7.12-1.7,11.36,1.06,11.62,7.58,23.75,14.3,30.59,27.16-.31,2.61.87,4.06,3.44,4.45,2,5.23,1.86,11.33,8.06,14,.92,2.66.15,5.59,3.81,6.09.89,6.64,4.61,12.56,4.91,19.35a24.88,24.88,0,0,0,3.73,14.34l-.54,17.74C2481.18,858.49,2483.9,863.45,2482.74,866.94Z"/><path class="cls-1" d="M507.65,923.8c3.56,1.85,3.76,4.91,5.48,6.87,1,1.07,1.9,2.47.71,3.38-6.92,5.29-5.23,13.43-6.33,20.3-3.86,30.35-2.48,61.11-7.33,91.39-4.2,4.08-26.45-31.22-29.39-35.89a18.34,18.34,0,0,1-2.35-14.1c3.94-18.17,7.32-36.48,10.31-54.83C480.2,927,498.91,943.66,507.65,923.8Z"/><path class="cls-1" d="M2618.69,1030.91c-17.55-16-4.42-16-10-25.24-5.15-3.1-16.08-20.15-19.48-7.45-.86,2.95-.95,6.49-5.06,5.88-10-3-2.35-16.57-6.16-25.16-13.59,10.77-21.71-9.2-33.51-13.39-16.45-8,10.64-12.56-1.23-19.82-4.31-7-6.27-15.45-16-7.31-6.13,6.1-6.55-2.76-6.32-7.23-.15-2.25-1-4.21-3.64-3.2-12.67,6.59-23.91-19.61-24.3-28.93l2.18-.34c27.38,25.92,60.93,43.91,92.32,64.11C2605.45,975.07,2619,1009.63,2618.69,1030.91Z"/><path class="cls-1" d="M2521.06,1112.65c.65-3-1.85-5.69-.69-8.81,4.15-1.77,8.5-.74,12.74-.88,12,1.28,5.17-17.72,16-8.29,4.6,3.41,15.2,3,19.5-.75,6.87-4.77-4.45-14.17,3.2-17.73,8.56-3.62,9.57,18.62,16.37,6.5.6-.78.95-2.3,1.61-2.42,12.72-2.27,14.21-15,21-22.72,4.1-5.22,2.95-13.45,8.08-18.54,9.45,28-30.88,59-55.79,64.16C2549.35,1106.84,2535.77,1114.13,2521.06,1112.65Z"/><path class="cls-1" d="M1529.18,358.25c-1,3.41-3.54,4.27-6.75,4.83-10.45,1.82-20.38,5.69-30.61,8.29-14.18,3.37-29.13,2-43.36-.36-14.19.51-20.82-9.49-27.46-19.52C1456,364.81,1492.93,362.18,1529.18,358.25Z"/><path class="cls-1" d="M1734.56,826.33a15.71,15.71,0,0,1-.26,7.31c-5.85-.75-3.47,10.09-2.5,14.34,2.08-2.33,1.25-5.47,3.25-7.06,3.47,5.29.35,10.67.18,16-2.27-2.79-4.77-3.41-3.89.82,0,2.56,1.55,3.38,3.88,3.18,1.82,1.34,1.79,2.67,0,4-1.38-.46-3.32-2.21-3.84.42-.31,2.91-1.39,10.76,3.69,7.54q0,6.07-.1,12.14c-4.61-3-5.15,4-1.8,6,3.66,5.57,2.46,11.69,2,17.73-2,.9-1.6,1.71.09,2.47,0,1.09.06,2.18.1,3.27-4.89.41-4.37,4-4.38,7.34q-.08,31.32-.25,62.66c0,2.62,0,5.24-1.89,7.86V820.25C1732,821.42,1729.8,827.69,1734.56,826.33Z"/><path class="cls-1" d="M2083.11,1355c.34-2.44-1.21-5.28,2-7.69,3.35,2.42,4.54,6.34,5.92,9.8,12.62,32,28,63.37,35.54,97.13,1.81,9.07,11,1.26,16.55.82-5,7.09-12.4,8-20.24,7.8-.12-12.21-1.44-24.07-9.73-33.94-1.24-10.25-7-19.13-8.88-29.24-.49-2.62-1.91-5.74-5.24-6.76l0,.08c0-1.7-.2-3.31-2.06-4.09-1.72-11.81-5.19-24.57-14-34Z"/><path class="cls-1" d="M2264.9,757c5.45,6.64,4.83,15.13,5.94,22.72,5.83,29.21,1.91,58.69,3.54,88.16.84,3.15-2.43,9.09-3.79,3.3,1.68-20.84-2.51-41.29-1.19-62,2.08-5.6,1.36-7.44-3.74-9.47.07-10.26-4.78-20.42-.63-30.77C2266.63,764.88,2260.71,761,2264.9,757Z"/><path class="cls-1" d="M559.32,1350.56c.95,11.33-13.62,52.56-24.14,56.52a52.84,52.84,0,0,1,5.63-15.62C548.34,1380.21,544.6,1352.77,559.32,1350.56Z"/><path class="cls-1" d="M2228.94,898.86c7.07,25,6.1,54,6.14,80.42-.13,2.59.61,5.38-1.7,7.48-2.57-2.42-1.59-5.59-1.6-8.44-.06-21.51-1-42.92-4.1-64.26C2227,909.18,2224.74,903.58,2228.94,898.86Z"/><path class="cls-1" d="M559.32,1350.56l-6.43,2.38c5.75-26.6,11.71-53.15,16.19-80,4.18,5,2.61,11,1.32,16-2.77,15.3-6.32,30.62-7.28,46l0,0c-.87.31-2.51.62-2.51.93C560.56,1340.83,557.77,1345.54,559.32,1350.56Z"/><path class="cls-1" d="M331.84,1191.5c7,4.59,16.72,5.8,20.31,16-6.77,2.15-13.57,2.13-20.27,2.44C323.69,1209,326.81,1198.12,331.84,1191.5Z"/><path class="cls-1" d="M563.12,1335c1-15.43,4.51-30.75,7.28-46,1.29-5,2.86-11-1.32-16,.09-.78.17-1.56.25-2.34,5.09.66,3-6.78,7.7-7.68,2.91-.31,4.63,1.69,3.88,4.62-3.89,1.62-3.3,5.19-3.83,8.4C572.81,1295.31,571.94,1317.48,563.12,1335Z"/><path class="cls-1" d="M2269.4,809.11c-1.32,20.74,2.87,41.19,1.19,62l-7.22-.1c2-7.45,1.41-14.8.85-22.49-.8-13,1.81-26.36,2.52-39.49Z"/><path class="cls-1" d="M295,932.71q1-2.93,1.93-5.85H303c-4.4,15.78-6.77,32-10,48.07l-5.81-.05q3.4-19.1,6.8-38.2A4.78,4.78,0,0,0,295,932.71Z"/><path class="cls-1" d="M545.39,923.58a7.64,7.64,0,0,1-5,5.67c-2.58-3.47-4.59-1.74-7.16.23-6.88-8.28-6.35,2.1-9.16,3.74-1.55.9-1.44,3.75-5,4.26,1.06-8,4.26-14.79,7.38-21.89,4.6,1.95,7.83,10.95,13.43,2,.43-.7.71,1,1,1.7C541,922,543,923.17,545.39,923.58Z"/><path class="cls-1" d="M1723.82,778.05c1.61-.58,4.09-.9,4.32.68,1.09,7.74,8,14.75,3.09,23.26-4.36,5,7-.61,3.08,13.68-5.39-.81-7.38-3.34-7.44-9.34C1726.78,796.9,1724.93,787.48,1723.82,778.05Z"/><path class="cls-1" d="M368.11,1224c-.61,2.76-2.42,2.91-4,2.83-11.9-.64-23.79-.12-35.68.27-1.86.06-4.51.27-4.38-2.57C322.8,1217.68,363.23,1222.32,368.11,1224Z"/><path class="cls-1" d="M2113.13,1428.89c8.29,9.87,9.61,21.73,9.73,33.94-3.76,4.18-6-3.49-6.57-6.29-1.32-9.42-4.48-18.36-6.69-27.54Z"/><path class="cls-1" d="M387.1,722.94c4-8.5,12.15-10,20.07-12-.32,7.38-6.69,12.36-7.77,19.56-1.31,5.53-8.93,3.56-5.39-2.51,3.06-5.58-3.07-5.19-7-5.16Z"/><path class="cls-1" d="M445.63,1118c-.11.88-.22,1.76-.32,2.64-6.61-.19-2.56,7.72-7.86,10.33-1.21-15.72,3.74-30,6.39-44.62,3.14-.16,3.34,1.91,2.81,3.23-2.74,6.92-.57,14.54-3.27,21.46A5.46,5.46,0,0,0,445.63,1118Z"/><path class="cls-1" d="M2295.28,1078.92c3.55.49,3.8,3,3.8,5.88q0,20.42,0,40.83c0,2.51-.41,4.65-3.32,5.28C2295.07,1113.58,2294.88,1096.25,2295.28,1078.92Z"/><path class="cls-1" d="M2254.25,721.27c7.36-5.2,9.63,3.51,13.21,8.64,3.36,7,1.88,9.33-6.6,11.06C2257.52,734.78,2255.79,728.06,2254.25,721.27Z"/><path class="cls-1" d="M2113.13,1428.89l-3.53.11c-3.28-7.79-4.55-16.34-9-23.66-2.4-3.9-1.51-8.24-1.54-12.45,3.33,1,4.75,4.14,5.24,6.76C2106.12,1409.76,2111.89,1418.64,2113.13,1428.89Z"/><path class="cls-1" d="M537.38,1428.64c7.13-.47,12.13,6.42,18.73,7.56,8,1.22,13.52,5.9,19,11.08-1.67,1.6-3.81,1.93-5.34.45C561.53,1438.7,543.16,1438.4,537.38,1428.64Z"/><path class="cls-1" d="M2081.16,1341.29l-2-.48c-1.83-4.32-8.68-4.1-8.07-9.91,2.15-1.36,2.28-2.69-.08-4l.05,0c-4.61-4.5-6.68-7.42-5.77-14.36,5.82.67,15.86,22.14,16.21,28.41Z"/><path class="cls-1" d="M1720.81,757.11c3.06-.08,6.39,0,6.12,4.17-.31,4.94,4,11-3.23,14.47-2.34-1.17-3.46,1.48-6,1.75C1713.21,766.89,1723.51,773.69,1720.81,757.11Z"/><path class="cls-1" d="M1781.1,1129c0-.63-.09-1.26-.14-1.9,9.25,0,18.5,0,27.75,0,2.28,0,4.69-.22,6.37,1.9.36,1.19,1.39,3.33.13,3.43-6.06.53-12.31,2.15-18.11-1.3C1792.2,1127.12,1786.38,1130.11,1781.1,1129Z"/><path class="cls-1" d="M2083,1354.87c8.93,9.63,12.06,21.65,14.08,34.13-5.24-3.4-5.14-9.69-7.64-14.54A60.3,60.3,0,0,1,2083,1354.87Z"/><path class="cls-1" d="M2233.13,1022.92h5.73c.73,9.09-5.84,16.62-5.11,25.75C2230.18,1040,2232.65,1031.47,2233.13,1022.92Z"/><path class="cls-1" d="M303,926.87h-6.11c.35-5.63.87-15.73,8.4-15.88C308.28,916.82,304.4,921.66,303,926.87Z"/><path class="cls-1" d="M2482.74,866.94c1.16-3.49-1.56-8.45,3.93-10.28q0,14.28-.05,28.56C2479.76,882.77,2483.76,872.58,2482.74,866.94Z"/><path class="cls-1" d="M2243,1008.74c2.27-6.72.7-18.75,10-19.82C2249.93,995.78,2253.24,1007.67,2243,1008.74Z"/><path class="cls-1" d="M603.06,1458.93a42.74,42.74,0,0,1,22.4,15.38C617.63,1472.63,607.76,1465.86,603.06,1458.93Z"/><path class="cls-1" d="M1956.09,1246.18c.58,4.12-11.1,10.37-10.93,2.54C1943.54,1242.44,1954.52,1240.22,1956.09,1246.18Z"/><path class="cls-1" d="M2293.59,1034.93c5.39.93,4.36,19.93,1.39,24C2292.9,1051,2293.29,1043,2293.59,1034.93Z"/><path class="cls-1" d="M2017.09,1137.08c-8.18,4.61-13.29-.65-18.46-5.73C2005.76,1130.11,2012.12,1131.37,2017.09,1137.08Z"/><path class="cls-1" d="M553.13,907c0,6.52-1.35,12.47-7.46,16.21C544.76,917.52,545.42,906.48,553.13,907Z"/><path class="cls-1" d="M2037,1134.56c-4.13,4-9.3,1.65-14,2.31C2013.16,1128.12,2033.76,1130,2037,1134.56Z"/><path class="cls-1" d="M373.34,759.22c-.9-5.83,1.24-10.47,5.57-14.26,2.93.37,5.55,1.57,3.42,4.81C380,753.38,378.27,757.94,373.34,759.22Z"/><path class="cls-1" d="M1567,357.07a27.69,27.69,0,0,1-21.9,0A32.24,32.24,0,0,1,1567,357.07Z"/><path class="cls-1" d="M379.35,741.25c.39-5.82,4.28-10.66,4.57-16.56.06-1.34,1.94-1.44,3.18-1.75l-.07-.06C387.34,730.24,388.24,738.7,379.35,741.25Z"/><path class="cls-1" d="M533,701.3c7.76-2,12.84,7.23,5.2,7.39C533.43,710.07,528.53,703.44,533,701.3Z"/><path class="cls-1" d="M691,1527c8.24-.26,12.69,5,16.52,11.25C701.41,1536.54,694,1531.47,691,1527Z"/><path class="cls-1" d="M567.68,717c1.89,1.55,2.69,3.71,3.35,6-3.27,1.07-.87,4.93-3.26,6.57C563.6,726.92,559.55,715.94,567.68,717Z"/><path class="cls-1" d="M310.12,899.29c-2.59-6,3.49-7.49,5.23-11.31,2.35,1.43,1.21,4.47,3.75,5a4.41,4.41,0,0,1-.92,3.93,4.25,4.25,0,0,0-3.46,2.15Z"/><path class="cls-1" d="M676.85,1513.15c6.41,1.37,9.9,5.91,12.45,11.46C681.8,1524.44,679.53,1518.57,676.85,1513.15Z"/><path class="cls-1" d="M280.57,1019.19c-2.33-4.63-.28-8.5,2.13-12.31C291.07,1010.57,284.82,1014.91,280.57,1019.19Z"/><path class="cls-1" d="M578.63,1447.51c6.27-.46,11.38,1.44,14.63,7.15C587.52,1454.05,581.54,1453.92,578.63,1447.51Z"/><path class="cls-1" d="M492.08,928.43c0-3.56,3.45-5,3.8-8,.14-1.19,2-1.82,3.28-.95C502.94,923.18,497.32,929.84,492.08,928.43Z"/><path class="cls-1" d="M305.59,908.39a24.93,24.93,0,0,1-2.51-.73c.68-3.67-1-7.8,1.75-11.13,3,.42,1.82,4.25,4.39,4.71C309.62,904.44,307.82,906.53,305.59,908.39Z"/><path class="cls-1" d="M543.07,1146.92c3.66-.29,5.62,2.37,7.86,4.53-4,3.48-9,3.5-10.79-.24C539,1148.74,542.71,1148.81,543.07,1146.92Z"/><path class="cls-1" d="M2053.39,1127.35c-2.91,2.9-6.24,5-10.46,5.29C2043,1126.13,2046.91,1120.61,2053.39,1127.35Z"/><path class="cls-1" d="M1829.22,1132.81c-3.27-.1-7.45,1.9-8.35-3.63h19l-2.62,3.58-2.6-.14C1832.79,1130.54,1831,1130.38,1829.22,1132.81Z"/><path class="cls-1" d="M648.83,1491.18c5.86.44,8.38,4.68,10.54,9.31C653.16,1500.44,650.11,1496.82,648.83,1491.18Z"/><path class="cls-1" d="M2474.76,799.14c-5.39-2.42-6.35-7.48-7.42-12.47C2474.17,788.23,2473.27,794.39,2474.76,799.14Z"/><path class="cls-1" d="M2269.4,809.11l-2.66-.05c-2.32-2.91-1.11-6.24-1.08-9.42C2270.76,801.67,2271.48,803.51,2269.4,809.11Z"/><path class="cls-1" d="M2487.21,838.92a24.88,24.88,0,0,1-3.73-14.34C2488.27,828.44,2489.22,833.3,2487.21,838.92Z"/><path class="cls-1" d="M662.77,1503.26c5.52,0,7.76,4.21,10.29,8C666.18,1513,665.14,1507.3,662.77,1503.26Z"/><path class="cls-1" d="M577,1262.92c-4.7.9-2.61,8.34-7.7,7.68,1.24-2.53.73-11.23,3.62-11.22C575.11,1259.29,576.19,1261.12,577,1262.92Z"/><path class="cls-1" d="M2295.79,1134.92c4.61,4.69,4.59,7.42-.06,12Z"/><path class="cls-1" d="M722.52,1368.3c1.89-3.72,3.54-6.06,7.17-4.67C732.36,1367.44,726,1369,722.52,1368.3Z"/><path class="cls-1" d="M317,904.86c-.3,2.74,1.24,6.63-2.61,7.62-4.72.09-1.58-5.62-.3-7.54Z"/><path class="cls-1" d="M373.33,866.79c3.52-.49,9.23,2.27,6.94,6.37-1.2,1.65-3.44-.92-5.3-.22l.08.07c.18-1.81-.12-3.38-2.06-4.12l.06.11C373.14,868.27,373.24,867.53,373.33,866.79Z"/><path class="cls-1" d="M2271.8,1238.71c-3.76,0-3-5.33.29-5.48C2276.49,1232.28,2275.52,1238.62,2271.8,1238.71Z"/><path class="cls-1" d="M287.22,974.89l5.81.05c-.66,6-.66,6-6.41,3.57Z"/><path class="cls-1" d="M2146.34,1454.48c1.31-3,2.84-5.69,6.84-5C2152.49,1453.29,2150.37,1455.19,2146.34,1454.48Z"/><path class="cls-1" d="M2257.11,986.85c1.49-2.34,3.86-1.86,6.07-1.89C2263.57,988.54,2256.7,991.57,2257.11,986.85Z"/><path class="cls-1" d="M2233.09,1008.93c2.43,1.79,2.59,3.72.37,5.81C2231.13,1012.94,2231.09,1011,2233.09,1008.93Z"/><path class="cls-1" d="M531,1425c2.8,0,5.62-.1,6.32,3.57C534.34,1428.91,531.48,1429.07,531,1425Z"/><path class="cls-1" d="M278.28,1027.2a3,3,0,0,1,1.18-4.21C281.69,1025.13,280.33,1026.27,278.28,1027.2Z"/><path class="cls-1" d="M580.91,1267.54a5,5,0,0,1,.21-1.62c2.15,1.13,4,2.45,3.46,5.35A4,4,0,0,1,580.91,1267.54Z"/><path class="cls-1" d="M2286.66,997c2.27.85,2.4,2.68,2.14,4.69C2286.62,1000.76,2285.15,999.54,2286.66,997Z"/><path class="cls-1" d="M317,904.86l-2.91.08c.44-3.08-.3-7.9,4.05-8.05Z"/><path class="cls-1" d="M2495.24,898.72l-2.18.34a4.2,4.2,0,0,1-2-4.14C2493.45,895.1,2495,896.22,2495.24,898.72Z"/><path class="cls-1" d="M709.18,1540.83c2.62.15,3.9,1.54,3.8,4.18C710.33,1544.87,708.91,1543.62,709.18,1540.83Z"/><path class="cls-1" d="M2490.58,893.25c-2.49-.65-3.51-2.21-3-4.76C2490.12,889.13,2491.17,890.68,2490.58,893.25Z"/><path class="cls-1" d="M2235.32,888.82l-4.3.09C2230.3,884.29,2235,884.58,2235.32,888.82Z"/><path class="cls-1" d="M628.68,1477.39c2.59-.46,4.21.51,4.64,3.19C630.81,1480.92,629.2,1480,628.68,1477.39Z"/><path class="cls-1" d="M634.7,1481.35c2.95-.39,4.23,1,4.06,3.85A4.15,4.15,0,0,1,634.7,1481.35Z"/><path class="cls-1" d="M2478.57,805.23c-2.43-.55-3.65-2-3.24-4.55C2477.91,801.13,2479.17,802.52,2478.57,805.23Z"/><path class="cls-1" d="M2466.7,785.18c-2.57-.39-3.75-1.84-3.44-4.45C2465.75,781.18,2467.07,782.52,2466.7,785.18Z"/><path class="cls-1" d="M387.15,727.9l-.12-5,5.15.11A10.74,10.74,0,0,1,387.15,727.9Z"/><path class="cls-1" d="M2074.48,1336.9c2.33.38,3.62,2,4.67,3.91l-2.67.09C2075,1340,2074.94,1338.33,2074.48,1336.9Z"/><path class="cls-1" d="M2071,1326.94c2.36,1.27,2.23,2.6.08,4C2071.05,1329.58,2071,1328.26,2071,1326.94Z"/><path class="cls-1" d="M2097,1388.88c1.86.78,2.05,2.39,2.06,4.09C2097,1392.3,2097,1390.6,2097,1388.88Z"/><path class="cls-1" d="M2068.85,1324.9a2.74,2.74,0,0,1,2.2,2.08C2069.76,1326.87,2069.22,1326,2068.85,1324.9Z"/><path class="cls-1" d="M915,696.92c-2.25-.34-4-1.23-2.92-3.87,1.2-2.9,1-5.87,1-8.85-.2-9.73-5.65,2.95-12.56-15,8.77-6.46,17.23,5,16.5,13.41C916.23,687.34,918.32,692.5,915,696.92Z"/><path class="cls-1" d="M848.16,1006.65c4.91,1.26,6.4,6.18,9.7,9.15,1,.92,1.39,2.72.41,3.53-4.78,3.93-1.92,10-4.28,14.5-2.48-1.51.27-5.64-3.29-7.16C853.27,1019.38,845.31,1013.71,848.16,1006.65Z"/><path class="cls-1" d="M865.22,691c3.68,4,8.75,14.32-.21,15.94C862.51,701.54,862.24,696.22,865.22,691Z"/><path class="cls-1" d="M854.18,1035.7c1.54,3.09,2,16.69-3.47,10.53C851,1042.43,849,1037.88,854.18,1035.7Z"/><path class="cls-1" d="M1735.05,840.92c-2,1.59-1.17,4.73-3.25,7.06-1-4.24-3.35-15.1,2.5-14.34Z"/><path class="cls-1" d="M899.06,662.92c-3.4-.07-4.74-6.14-9.18-3.14-.31-.86-.62-1.72-.94-2.57C896.17,654.25,896.17,654.25,899.06,662.92Z"/><path class="cls-1" d="M559.07,1349.32c-1-4.64,1.6-8.88,1.58-13.43,0-.31,1.64-.62,2.51-.93C563.49,1340.23,564.13,1345.58,559.07,1349.32Z"/><path class="cls-1" d="M875,672.69c.4,3.81-1.15,11.52-6.13,8.06C868.83,676.52,869.87,673.07,875,672.69Z"/><path class="cls-1" d="M1781.1,1129c5.28,1.16,11.1-1.83,16,2.12C1795.61,1130.74,1772.9,1131.68,1781.1,1129Z"/><path class="cls-1" d="M1735,872.88c-5.08,3.22-4-4.63-3.69-7.54.52-2.63,2.46-.88,3.84-.42C1733.94,867.55,1735.08,870.23,1735,872.88Z"/><path class="cls-1" d="M1733.14,891.05c-3.35-2-2.81-9,1.8-6C1735.41,887.35,1735.14,889.46,1733.14,891.05Z"/><path class="cls-1" d="M1735.22,860.93c-2.33.2-3.92-.62-3.88-3.18-.88-4.23,1.63-3.61,3.89-.82C1735.23,858.26,1735.22,859.59,1735.22,860.93Z"/><path class="cls-1" d="M850.7,1026.67c2.15,1.21,2.29,3.24,2.21,5.36C849.86,1031.2,848,1029.86,850.7,1026.67Z"/><path class="cls-1" d="M1829.22,1132.81c1.74-2.43,3.57-2.27,5.47-.19Z"/><path class="cls-1" d="M295,932.71a4.78,4.78,0,0,1-.94,4C291.94,934.8,292,933.41,295,932.71Z"/><path class="cls-1" d="M371.16,864.82c-1.6-.88-1.31-2.22-1.07-3.74C370.82,862.08,370.81,864.34,371.16,864.82Z"/><path class="cls-1" d="M373,868.89c1.94.74,2.24,2.31,2.06,4.12C372.93,872.35,372.7,870.75,373,868.89Z"/><path class="cls-1" d="M373.33,866.79c-.09.74-.19,1.48-.28,2.21-2.26-.65-1.82-2.53-1.89-4.18L371,865Z"/><path class="cls-1" d="M1735.23,911.25c-1.69-.76-2.06-1.57-.09-2.47Z"/><path class="cls-1" d="M1731.94,805c-2.31-.49-2.18-1.57-.71-3C1731.46,803,1731.7,804,1731.94,805Z"/><path class="cls-1" d="M2472,1052.82c-3.14-6,5.53-12.83,10.16-7.81,2.83,2.77,8.74,1.41,9.81,5.8.81,3.53-3.92,5-5.34,7.82-2.06,4.16-3.46,8.82-8.91,9.7-4.47,1.39-11-1.09-14.47,2.06-3,4.73-6.27,7.06-12.2,4.84-2.6-1-4.33,1.5-3.43,4.32,1.81,5.54-2,15.94-8.24,12.46-11.87-3.3-4.35-18.11,4.18-20.2,3.85-1.19,5.88-3.51,7.41-7.19,3.68-8.84,7.38-10.13,16.65-6.63C2471.77,1059.54,2472.73,1058.41,2472,1052.82Z"/><path class="cls-1" d="M2578.86,1016.92c2.48.48,6-1.27,7.62,2.3,1.44,3.18-.24,5.82-2.58,7.81-2.84,2.41-2.23,6-3.67,8.88-3.4,6.6-7.34-3.13-9.26-6.17C2566.91,1022.43,2570.15,1017,2578.86,1016.92Z"/><path class="cls-1" d="M2448.82,814.91c10.87.23,16.48,6,16.25,16.41-.06,2.71-.09,5.61-3.08,6.7C2452.2,837.65,2450.45,822.33,2448.82,814.91Z"/><path class="cls-1" d="M2551.07,1033c-.07,7-1,8.17-6.68,7.91-4.59-.2-6.52-3.14-4.48-7.11C2543,1029.1,2552.31,1019.08,2551.07,1033Z"/><path class="cls-1" d="M2554.92,1013.17c.71,6.83-10.39,7.17-11.33,1C2542.39,1008,2555.1,1006.39,2554.92,1013.17Z"/><path class="cls-1" d="M2503.34,1037.89c3.07-.6,3.54,1.26,3.65,3.44,1.91,7.79-12.4,6.62-11.51.78C2496.18,1037.3,2501.07,1039.76,2503.34,1037.89Z"/><path class="cls-1" d="M2494.83,1071c.66,5.54-7.31,8.1-7.6,2.23C2486.39,1067.62,2493.29,1065.35,2494.83,1071Z"/><path class="cls-1" d="M2399,775.73c3.75,1.28.93,7.4-2.51,6.22C2394.26,780.21,2395.79,775.48,2399,775.73Z"/><path class="cls-1" d="M2487.59,1035.38c3.66-.77,4.21,5.3.47,5.13C2485.06,1040.87,2484.43,1035.73,2487.59,1035.38Z"/><path class="cls-1" d="M2602.52,1041.76l1.67.71c-.38,1.71-1,1.92-2.39,1Z"/><path class="cls-1" d="M2482.71,876.91l.21,4C2479.22,881.05,2478.91,877,2482.71,876.91Z"/><path class="cls-1" d="M2272.57,880.87l-.31.68-.73-.95C2272.08,880.1,2272.3,880.26,2272.57,880.87Z"/><path class="cls-1" d="M2307.65,1167.17c5.15.07,1.87,8.21-2.34,7.37C2298.52,1172.89,2303.06,1167.58,2307.65,1167.17Z"/><path class="cls-1" d="M2081.49,1341c1.31.51.19,1.8-.33.25Z"/><path class="cls-1" d="M851.22,998.55c.13-4,4.38-2.81,3.66.79C855,1003.4,850.49,1002.3,851.22,998.55Z"/><path class="cls-1" d="M894.18,1034.65c1.25,3.36,1.78,6.71-1.21,10.64C890.9,1040.76,893.34,1037.81,894.18,1034.65Z"/><path class="cls-1" d="M825.56,1085c.26-1.81,2.43-1.87,2.65-.06A1.33,1.33,0,1,1,825.56,1085Z"/><path class="cls-2" d="M694.7,364.48c2.54-21.52,4.67-42.89,3.2-64.47-.2-2.85-2.06-5.58-3.13-8.38-11.93-31.12-23-62.51-29.76-95.24a166.07,166.07,0,0,1-3.71-32.73c0-5,0-10,2.23-14.69,4-8.5,12.2-9.83,18.48-2.91,3.67,4.05,5.48,9.11,7.06,14.21,5.44,17.57,8.2,35.7,10.67,53.85,2.34,17.16,4.29,34.39,4.73,51.73.19,7.17,2.74,13.53,6.37,20.81,2.22-3.19,2.25-6.07,2.67-8.69a59.52,59.52,0,0,1,3.57-13.49c6.16-14.87,19.26-16.76,29.39-4.1a60.34,60.34,0,0,1,6.74,11.05c1.72,3.51,3.5,5.42,7.63,3.44,3.8-1.82,7.32-3.42,5.61-8.79-2.64-8.26-4.73-16.66-5.07-25.4s.49-17.35,4.71-25.24c3.63-6.78,8.61-12.2,16.94-12.15,8.71.05,13.94,5.63,17.5,12.89,4.92,10,4.18,20-.87,29.79a48,48,0,0,1-11.43,15c-4.14,3.47-4,7-1.79,11.33,2.45,4.74,4.67,9.61,8.14,13.71,5.17,6.1,9.43,6.4,15.23,1.14a27.73,27.73,0,0,0,4-4.45,96.23,96.23,0,0,0,17.8-62.17c-.23-4.11-1.08-7-6.42-6.26s-8.87-2.23-10.2-7.49c-1.14-4.49,1.24-10.45,5.15-13.25s7.66-2.34,12.66,1.52c1.26,1,1.86,2.84,4.66,2.83,2.84-2.89,3.65-7,3.91-11.29.3-4.92,1-9.57,7.09-10.35,4.48-.58,7.73,2.84,9.25,9.87,2.25,10.42,4.15,20.91,6.39,31.34,2,9.11,3.9,18.26,7.65,26.86s7.36,9.07,13.43,1.55c3.39-4.21,5.38-9.17,7-14.28,4.1-13,8-26.11,12.37-39,1.74-5.11,3.09-10.79,8.62-14.39,2.37,4.69,1.22,9.1.41,13.14a308.16,308.16,0,0,1-13.39,48.07,48.28,48.28,0,0,1-9,15.46c-10.83,12.09-22.33,11.2-31-2.42A68.8,68.8,0,0,1,852,234.24c-2.18-7.68-4-15.46-6-23.21-.64-2.55-.56-5.34-2.81-7.47-5,1.26-3.83,4.91-3.44,8.48,2.64,23.81-1.56,46.44-12,68-2.91,6-6.22,11.81-10.94,16.64-9.45,9.68-20.85,10.24-31.18,1.53a48.88,48.88,0,0,1-11.13-14c-3.54-6.4-7.42-.87-11.1-.54-4,.35-4.5,3-3.63,6.46A116.35,116.35,0,0,1,763,312.81c.41,8.42-.45,16.64-4.39,24.3-3,5.77-6.87,10.84-12.8,13.57-4.67,2.16-9.57,3.07-13.33,7.56-3,3.57-8.09,1.31-10.83-4.53-3.68-7.82-6.73-15.94-10.29-23.83-1.31-2.89-1.9-6.42-5.09-8.06a4,4,0,0,0-1.75,3.61c-.75,17.65-2.59,35.21-4.5,52.76a34.58,34.58,0,0,0,2.11,15.65c7.11,20.09,13.93,40.28,19.08,61,4.48,18,6.18,36.11,1,54.32a79.52,79.52,0,0,1-11.4,24.3A44.21,44.21,0,0,1,702,543c-5.67,4.43-11.81,8.16-19.27,5.24-7.77-3-8.83-10.24-9.26-17.39-1.11-18.14,2.57-35.81,5.39-53.56,3.35-21,6.82-42.07,10.26-63.1,1.74-10.6-4.42-18.82-7.86-29.79-1.75,4.69-2.56,7.58-3.87,10.23-4.7,9.54-14,11.65-22.34,5.12-4.82-3.78-8-8.95-11-14.11-7.06-11.83-11.15-24.87-15.27-37.9-5.69-17.94-4.18-19.63-19.15-5-3.58,3.49-6.82,7.37-10.66,10.54-4.25,3.52-5,6.4-2.13,11.72,12.41,22.69,19.91,47.17,24.47,72.57a54.39,54.39,0,0,1,.68,16.93c-1.69,12.52-11.92,17.37-22.66,10.81-5.46-3.35-9.67-8.13-13.87-12.88-13.14-14.87-22.82-31.93-31.45-49.66-1.56-3.2-2.2-7.06-6.62-9.73-5.3,27.66-5.66,55.57-10.85,84-3.78-6-3.85-6-3.94-11.53-.34-20,1-40,2.08-59.93.35-6.32.83-12.64,1.49-18.93a39.39,39.39,0,0,1,1.93-9.75c2.86-7.6,9.87-9,15.88-3.44,3,2.76,4.79,6.36,6.67,9.9,5,9.42,9.86,18.89,15,28.21a167,167,0,0,0,22,30.86c2.14,2.37,4.1,5.06,8,6.57,1.35-7.07-.18-13.13-1.3-19.19A248.58,248.58,0,0,0,586.7,372.7c-1.86-4.1-3.57-6.1-8.86-4.45-6.75,2.11-11-.17-13.54-5.14-2.65-5.2-1.38-12.82,2.77-16.67s9.73-3.86,15.6.05c1.92,1.28,3.63,2.87,6,4.8,5.62-4.16,9.67-9.81,14.31-14.83,4.07-4.41,7.73-9.25,12.2-13.2,6.85-6.05,14.39-4.93,19.8,2.47,3.57,4.89,5.41,10.65,7.44,16.29,4.52,12.53,8.32,25.35,14.84,37.05,2,3.63,3.47,9.88,8.13,8.83,5.1-1.14,4.19-7.65,4.44-12.06A108.64,108.64,0,0,0,665,336.39c-3.75-11.73-7.65-23.44-10-35.57a42.39,42.39,0,0,1-.89-9.9c.18-3.7,2.55-6.15,6.28-6.69s6.43,1.45,7.82,4.85a49.18,49.18,0,0,1,1.9,6.72c5.54,22,13.37,43.25,20.57,64.72A5.12,5.12,0,0,0,694.7,364.48Zm-.32,59.7c-3.29,19.63-6.81,39.22-9.78,58.89-2.19,14.43-4.74,28.88-4.06,43.56.22,4.82-.36,11.14,4.91,13.24,5.83,2.32,9.84-2.83,13.22-6.82,10.79-12.79,15.2-28,14.64-44.4C712.53,465.78,703.9,444.87,694.38,424.18ZM728.66,326c4.27-9.19,7.89-18.76,13-27.46,4.47-7.62,3.78-14.25-.27-21.31-1.31-2.29-2.49-4.67-3.94-6.88-1.24-1.89-2.43-4.43-5-4.3-3.31.16-3.8,3.32-4.45,5.78C723.25,289.66,722.77,307.56,728.66,326ZM676.77,161.43c.69,28.11,8.53,54.54,18.37,80.51C692.11,214.39,687.8,187.12,676.77,161.43Zm71.78,143.64a83.94,83.94,0,0,0-12.33,27.06,19.41,19.41,0,0,0-.49,5.94c.18,3.7,2.2,4.79,5.19,2.71,5.5-3.82,8.41-9.33,9.25-15.87A51.73,51.73,0,0,0,748.55,305.07Zm31.52-52.42c6.83-6,9.72-11.22,10.23-18,.33-4.33,0-8.56-2.64-12.27s-5.36-3.91-7.23.38C776.18,232.46,777.14,242.28,780.07,252.65ZM578.08,358c-.64-1.89-1.8-3.52-4-3.57s-2.32,1.85-2.29,3.47c0,1.9,1.18,3.12,3,3C576.37,360.71,578.13,360.29,578.08,358ZM825.52,207.33a1.74,1.74,0,0,0,2.07-1.37c.47-1.45-.39-2.3-1.61-2.85s-1.6.54-1.87,1.33A2.15,2.15,0,0,0,825.52,207.33Z"/><path class="cls-2" d="M1248.48,76.12c2.55-2.11,4.94-4.48,8.3-5.35,5.89-1.55,10.38,1.23,13.8,8.55,3.06,6.57,3.07,6.6,10,4.61a78.94,78.94,0,0,0,17.27-7.74c3.59-2,7.28-3.79,11.08-.63,3.6,3,3.47,7.1,2.47,11.06-2,7.75-4.35,15.39-6.38,23.11-1.7,6.44-3.35,12.9-3.25,19.66,0,4.08,2,5.41,5.71,4.21a30.59,30.59,0,0,0,9.41-5.56c9-7,16.47-15.52,23.26-24.64,17.85-24,30.82-50.55,41.92-78.13,1.36-3.4,2.69-6.83,4.37-10.07s4.61-4.84,8.35-3.57,4.92,4.41,4.46,8a50.85,50.85,0,0,1-2.19,8.7c-7.45,23.49-15.09,46.92-22.29,70.48-1,3.3-5,7.95-.36,10.59,3.63,2.08,6.27-2.7,8.88-5a98.83,98.83,0,0,0,18.58-22.12c1.25-2,2.34-4,3.76-5.88a7,7,0,0,1,8-2.47c3.29,1,4.69,3.56,5,6.76.41,3.77-1,7.19-2.18,10.66-5.77,17-11.87,34-15.2,51.7A53.35,53.35,0,0,0,1400.2,154c.13,6.06,2.79,7.68,8.47,5.24a30,30,0,0,0,7.55-4.79c9-7.74,16.14-16.76,19.72-28.3a171.83,171.83,0,0,1,9.5-24.14,43.3,43.3,0,0,1,2.33-4.42c3.67-5.8,8.08-7.74,12.22-5.44,3.9,2.15,4.6,5.87,1.78,12.32a303.82,303.82,0,0,0-16.39,47.12c-1.14,4.51-1.84,9.14-2.57,13.74-.31,1.89-.76,4.23,1.33,5.34s3.75-.58,5.36-1.67c2.49-1.67,5-3.32,7.33-5.22,14.62-12,30.24-22.86,43-37.09.12-.14.63.06,1.44.16.8,5.17-1.38,9.63-4.19,13.6-12.48,17.68-28.59,31.63-46.91,42.82-10.26,6.27-17.89,2.07-20.68-9.63-1.38-5.78-.37-11.75-1.37-19.13-4.46,3.78-7.77,6.8-11.31,9.51-6.26,4.77-13.07,8.92-21.12,5.11s-9.29-11.6-9.81-19.48c-.77-11.49,2-22.5,4.7-33.5.78-3.15,1.57-6.29,2.91-11.63-9.47,6.63-17.24,11.93-24.83,17.48-1.92,1.41-2.1,4.08-2.75,6.31-2.23,7.68-4.46,15.35-6.77,23-1.13,3.71-3,7.15-7.54,6.49-5.14-.74-5.68-4.82-5.46-9.13a62.42,62.42,0,0,0,.16-9c-.45-4.88-2.21-7.25-8.07-9-8.73-2.58-13.9-.35-19.19,5.84a25.63,25.63,0,0,1-10.81,7c-9,3.3-15.78-.14-18.68-9.32-2.27-7.2-1.62-14.51-.38-21.77.73-4.26,1.82-8.46,2.88-12.66,1-3.78,2.08-7.53,3.35-12-7.48-.38-13.7,2.24-20.11,3.35-3.39.58-2.88,4-3.23,6.53-1.61,11.67-5.64,22.59-10.7,33.13-2.9,6-6.43,11.74-11.37,16.32-8.2,7.61-17.08,5.83-21.65-4.43-3-6.79-3.64-14.16-4-21.5-.22-4.64,0-9.29,0-14.08-3.87.1-4.1,3.34-5.32,5.34-4,6.56-7.57,13.4-13,18.91-7.77,7.91-16.47,5.81-19.79-4.75-2.43-7.72-2.32-15.78-2.28-23.79,0-4,0-8,0-12.67-5.54,3-7.68,8.89-12,12.44-5.08,4.15-6.76,9.4-6.87,15.74a168.53,168.53,0,0,1-1.53,17.92c-.47,3.75-1.8,7.46-6.36,7.8s-6.33-2.77-7.34-6.68a45.19,45.19,0,0,0-2.32-6.59c-1.81-4.19-4-6.13-9.64-6.25-7.25-.16-11.83,1.84-16.84,6.83-8.27,8.26-17.37,8.45-27.27,2-3.8-2.47-7.34-5.33-11.59-8.44-2.28,4.2-1.57,7.85-1.45,11.31.4,12.32,1.07,24.64,1.43,37,.25,8.32-2.21,12.49-6.8,12.34-4.28-.14-6.53-3.73-7.06-11.54-.91-13.29-1.74-26.59-2.61-39.89-.1-1.67-.12-3.34-.33-5s-.5-3.31-2.58-3.75-3.07,1.1-3.67,2.57a75.5,75.5,0,0,0-2.46,7.59,210.47,210.47,0,0,1-9.55,26.25,89.17,89.17,0,0,1-5.48,10.65c-3.4,5.44-7.18,11-14.7,10.19-8.13-.85-10.29-7.69-12.39-14a73.11,73.11,0,0,1-3.06-17.68c-.26-3.47.17-7.13-1.35-10.53-3.22.78-3.43,3.41-4.43,5.33a137.34,137.34,0,0,1-12.15,19.48,33.79,33.79,0,0,1-9.28,9c-8.8,5.34-16.9,1.76-18.46-8.31a42,42,0,0,1-.21-10c1.81-21.34,10.28-39.88,24.65-55.57,5.94-6.48,12.93-12,22.82-8.31,2.61,1,3.38-1.18,5-2.19,5.5-3.52,10-1.62,10.27,4.82.23,6.62-.6,13.29-1.22,19.92-1.45,15.63-2,31.26-.54,46.91.31,3.14-.18,7.71,3.33,8.64s5.22-3.39,7-6c7.2-10.93,12-23,16.21-35.31a6.81,6.81,0,0,0-1.17-7.2c-5-6.78-4.37-12,2.73-15.47,5.38-2.6,6.76-6.33,8.07-11.38,3-11.46,2.51-23.16,3.13-34.76A415.63,415.63,0,0,1,1070,16.19a51.7,51.7,0,0,1,2.44-9.67c1.27-3.42,3.88-5.5,7.8-4.62,3.53.8,4.62,3.6,4.62,6.82a63,63,0,0,1-.59,7c-2,18.23-2.54,36.56-3.58,54.85a35.7,35.7,0,0,0-.12,4c.1,1.91-.3,4.2,2.11,5,1.92.66,2.88-1.07,4-2.14,1-.9,1.88-1.88,2.89-2.76,2.94-2.56,6.3-3.93,10.12-2.45,4.32,1.68,5.64,5.55,5.8,9.68.19,4.7-1,9.23-2.67,13.64a40.15,40.15,0,0,1-12.34,17.88c-3.61,2.91-3.08,5.4,0,8a85.55,85.55,0,0,0,7,5.67c7.15,4.87,13.36,4.46,20-1.38,6.36-5.62,10.53-12.86,14.18-20.37,9.94-20.46,16.64-42.07,22.32-64,2.67-10.31,5-20.71,7.45-31.08a45.9,45.9,0,0,1,1-4.88c1.21-3.42,3.36-5.85,7.39-5.33,3.83.49,6,3,6.3,6.66.59,6.68-.35,13.31-1.14,19.93-2.38,19.84-4.83,39.67-7.16,59.52-.38,3.26-1.28,6.57-.09,9.85,3.16.78,4-1.88,5.28-3.63a136.42,136.42,0,0,0,15.48-27.88c.77-1.84,1.42-3.74,2.28-5.53,1.26-2.65,3.41-4.16,6.38-3.88,3.42.32,5.42,2.56,6.11,5.73.8,3.63.08,7.28-.34,10.93-1.52,13.24-3,26.47-4.37,39.73-.36,3.53-.76,7.19.87,11,4.79-.83,6.6-4.64,8.78-7.72,9.89-14,16.88-29.39,21.87-45.75a100.61,100.61,0,0,1,3.5-10.39c1.45-3.42,4.24-5.19,8-4.26s5.26,4.07,5,7.64c-.35,4.64-1.23,9.23-1.89,13.84-6.26,30.11-7.32,53-2.91,63.44.32,0,.74,0,.94-.12,13.21-11.31,17.42-26.92,20.45-43.05.58-3.13-1.78-3.47-4.3-4C1248.15,89.63,1246.93,87.61,1248.48,76.12ZM979.7,162c13.7-7.18,29.76-36.88,33.18-61.39C997.1,102.81,977.11,139.8,979.7,162Zm156.59-50.91c3.24.6,5.53.93,7.77,1.45,6.18,1.45,6.32,1.49,6.77-4.93.84-11.69,1.48-23.4,2.21-35.1l-.81-.32Zm202.85,4.1a49.26,49.26,0,0,1,12.53,6.24l10-36L1360.4,85Zm-254.68-9.3c8.79-6.88,11.94-14.09,10.3-23.41C1089.31,89.59,1086.65,97,1084.46,105.91ZM1262.2,83.72a3.61,3.61,0,0,0-3.79-3.57c-1.88.21-3.06,1.53-2.74,3.29.4,2.25,2.28,3,4.44,2.82A2.06,2.06,0,0,0,1262.2,83.72Zm-197.38,30.74c-.27-.56-.4-1.29-.83-1.59-.72-.51-1.32-.12-1.45.77s-.38,2,1,2C1064,115.67,1064.39,114.88,1064.82,114.46Zm308.94-3.68-.72-.71a6,6,0,0,0-.62,1.34c0,.16.4.43.62.66Q1373.4,111.41,1373.76,110.78Z"/><path class="cls-2" d="M1729.06,281.43c8.27-.56,15.12-4.77,22-8.76,13.59-7.88,25.59-18,37.75-27.79,3.53-2.86,7-7.38,12.1-3.84s2.9,8.13.45,12.36-1.07,5.5,3.59,6.22c9.43,1.47,12.86,7,10.56,16.37-1.94,7.84-6.32,14.62-10.19,21.6-4,7.26-8.8,14.15-11.47,22.1-2.55,7.59-.3,10.19,7.36,8.17,3.47-.92,6.69-2.88,10-4.49,3-1.47,5.78-4.18,8.81-4.44,5.12-.42,7.44-3.79,10.32-6.93,7-7.67,15-14.2,24.5-18.59,4.89-2.24,9.93-3.86,15.4-3.55,9,.51,14.71,6.73,14.38,15.71-.25,6.77-3.52,12.05-8.35,16.46a38.9,38.9,0,0,1-31.35,10.15c-8.1-.88-12.31,2.3-15.53,8.91-2.2,4.49-4.68,8.83-5.43,13.85-1.16,7.79,1.22,11.4,8.87,12.76,6,1.06,11.89.42,17.82-.93,14.59-3.33,28.94-7.76,43.83-9.67,3.16-.4,6.56-1.83,9.49,1.41-1.18,4.17-5,5-8.28,6.11a299.07,299.07,0,0,1-51.2,12.93,41.3,41.3,0,0,1-15.88-.6c-13-3.11-19.67-12.44-17.72-25.76.67-4.57,2.25-9,3.34-13.54.36-1.51,1.54-3.11.07-4.62s-3.08-.71-4.57-.11c-3.71,1.47-7.38,3-11.43,3.37-10.36.86-15.72-4.34-15-14.79.57-8.13,4-15.37,7.25-22.69,2.91-6.68,7.5-12.57,9.25-19.79.19-.86.85-2.1.51-2.51-1-1.28-2.23-.35-3.26.39-12.09,6.71-21.8,16.18-30.69,26.59a64,64,0,0,1-4.47,5.33c-2.92,2.71-6.28,3.88-9.86,1.13s-3.58-6.36-1.68-9.82c2.4-4.35,5.37-8.38,8.06-12.57,2-3.06,3.88-6.16,5.82-9.24a7.19,7.19,0,0,0,3.56-6.06c-3,.59-4.81,1.65-6.07,3.58-7.3,3.88-14.55,7.87-21.92,11.6a41.43,41.43,0,0,1-13.16,4.34c-10.07,1.36-15.93-4.62-14.34-14.73.94-5.95,3.67-11.31,6.38-16.63.9-1.77,1.78-3.55,2.67-5.32.33-.83,1.16-1.92.89-2.43-.79-1.5-2.07-.7-3.18-.13-5.55,1-10.78,3.28-16.51,3.68-10,.69-17.86-2.34-21.68-12.18-1.61-4.16-3.49-4.91-7.36-2.83a161.12,161.12,0,0,1-15.33,7.24c-5.59,2.28-11.65,4.59-17-.1s-3.81-11.1-2.48-16.9c1.41-6.14,3.7-12.08,5.59-18.11.49-1.58,1.22-3.4-.42-4.55s-3.17-.12-4.47,1c-7.15,6.07-13.2,13.15-18.92,20.54-4.85,6.26-8.38,7.76-12.17,5.27-4-2.64-3.79-7.37.89-14,8-11.44,16.22-22.79,24.28-34.23,1.91-2.72,3.63-5.58,5.26-8.47,1.46-2.59.91-4.51-2.34-4.94-2-.26-4-.21-6-.64-9.56-2.15-15.73.45-20.57,10-6.34,12.53-16.39,22.58-27.86,30.93a52.53,52.53,0,0,1-17.79,8.84c-11.61,3-19.68-2.53-21.35-14.42a37.41,37.41,0,0,1,1.38-14.84c6-22.52,18.74-40.25,38.63-52.58,5.41-3.36,11.25-5.85,17.84-5.69,6.28.15,11.1,2.73,12.82,9.06s7.41,11.06,6.19,18.46c-.44,2.59,2.48,2.52,4.45,2.52,4.33,0,8.66-.19,13-.1,12.14.26,15.23,4.33,12.69,16.49-.2,1-.45,1.94-.67,2.87.44.51.75,1.25,1.24,1.38,11.92,3.25,14.73,7.87,10.5,19.57-3.17,8.74-7.48,17-11.12,25.63-1.5,3.54-4.55,7.82-1.23,11,2.76,2.64,6.91-.28,10.26-1.37s6.66-3.06,10.09-4.3c7.18-2.58,10.2-7.24,12.2-15,7.6-29.47,24.1-53.86,46.55-74.23,4-3.57,8.44-6.57,13.83-7.68,9.17-1.9,15.06,3.11,14.65,12.43-.24,5.45-2.36,10.37-4.72,15.15-5.64,11.47-13.4,21.44-22.27,30.55a277,277,0,0,1-31.37,27.82c-2.69,2-5.06,4-5.76,7.71-2,10.58,1.66,15.4,12.42,15,13.33-.47,24.22-6.52,33.5-15.76,3.54-3.52,6.86-7.27,10.52-10.65,2.89-2.68,6.55-4,9.94-1.19,3.81,3.14,3.06,7.23.46,10.74-7.32,9.92-15,19.55-22.22,29.55-4,5.61-8.78,10.92-10.41,18C1725.06,282.47,1727,282.05,1729.06,281.43ZM1589.22,153c-17.55,12.93-28.82,29-33,49.81a20.22,20.22,0,0,0-.22,4c0,4.49,2.46,5.84,6.5,4.94a23.09,23.09,0,0,0,4.71-1.58c17-7.77,28-21.21,37.24-37.14C1588.23,167.35,1587.74,166.7,1589.22,153Zm110.67,61.07c20.65-10.21,44.11-43.33,43.28-60.79C1723.33,170.51,1710.54,191.42,1699.89,214.1Zm145.7,107.27c12,.49,20-4.79,21.46-14.25A44.55,44.55,0,0,0,1845.59,321.37ZM1603.91,165.52c4.15.47,4.54-2.41,5-5,.49-2.94-1.14-4.5-3.94-4.08-3.22.49-7.64,1.07-8,4.54C1596.39,165.63,1601.67,164.09,1603.91,165.52Zm41.42,40.83-1.29.72c.23.22.5.66.66.62a6,6,0,0,0,1.34-.62Zm53.79,9.8c-.22.18-.6.35-.62.56s.29.47.46.7c.22-.18.59-.35.62-.56S1699.29,216.38,1699.12,216.15Zm115.3,114.93.63,1.07c.2-.2.6-.44.57-.58a5.44,5.44,0,0,0-.59-1.15Z"/><path class="cls-2" d="M1787,204.91a8.86,8.86,0,0,1-8.84-9.79c.35-6.07,5.83-11.76,11.33-11.78,5,0,10.6,6.27,10.24,11.41C1799.34,200.26,1793.24,205.13,1787,204.91Z"/><path class="cls-2" d="M1208.13,20a8.21,8.21,0,0,1,8,8.34,8.05,8.05,0,0,1-16.1-.09A8.26,8.26,0,0,1,1208.13,20Z"/><path class="cls-2" d="M1322.25,41.58a7.79,7.79,0,1,1-7.21-7.93A7.6,7.6,0,0,1,1322.25,41.58Z"/><path class="cls-2" d="M1761.7,275.84c1.26-1.93,3.09-3,6.07-3.58a7.19,7.19,0,0,1-3.56,6.06Z"/><path class="cls-2" d="M1373.76,110.78q-.36.63-.72,1.29c-.22-.23-.66-.5-.62-.66a6,6,0,0,1,.62-1.34Z"/><path class="cls-2" d="M1645.33,206.35l.71.72a6,6,0,0,1-1.34.62c-.16,0-.43-.4-.66-.62Z"/><path class="cls-2" d="M1699.12,216.15c.17.23.49.49.46.7s-.4.38-.62.56c-.17-.23-.49-.49-.46-.7S1698.9,216.33,1699.12,216.15Z"/><path class="cls-2" d="M1719,252.54c1.11-.57,2.39-1.37,3.18.13.27.51-.56,1.6-.89,2.43C1720.57,254.25,1719.81,253.39,1719,252.54Z"/><path class="cls-2" d="M1729.06,281.43c-2.08.62-4,1-2.79-2.31Z"/><path class="cls-2" d="M1814.42,331.08l.61-.66a5.44,5.44,0,0,1,.59,1.15c0,.14-.37.38-.57.58Z"/><path class="cls-3" d="M2119,1027.76c.56-2.37,3.61-1.8,5.07-3.29,15.41-15.77,31.47-30.86,51.78-40.19,6.82-3.13,14.4-4.57,20-6.28-7.27-1.17-11.66-.91-22.46,3.44-7.61,3.06-14.87,7-23.75,11.29A169,169,0,0,1,2166,957.46c-.72-12.35-1.41-24.17-2.18-37.23,16-4.77,24.76-17.86,34.24-32.67.86,3.64,1.26,5.62,1.8,7.56,1.49,5.43.09,11.86,7,15.34,1.9.95,2.15,6,2.4,9.25,1,12.26,1.58,24.55,2.33,36.83a15.17,15.17,0,0,0,3.06,9c2.24,3,3.38,7.34,3.56,11.16q1.29,26.94,1.73,53.91,1.39,86.42,2.47,172.85c.18,15.28-.08,30.56-.44,45.83-.28,11.94-7,19.64-17.28,24.83a173.89,173.89,0,0,1-54.23,16.56c-27.16,3.86-54.5,3-81.81,2.07-.92,0-1.82-.64-3.91-1.41,1-18.93,2-38.09,2.94-57.14l145.69-19.27-.16-1.68-105.66,6.33c-.58-6.2-1.66-11.1-1.39-15.94,1.65-29.57,2.82-59.21,9.26-88.3a27.28,27.28,0,0,1,7.92-14.5c28.92-28.13,56.16-57.81,80.12-90.36a85,85,0,0,0,5.59-8.27c5.59-9.91,4.81-13.76-4.18-22.27a10.12,10.12,0,0,0-.88,1.4c7,5.74,3.28,11.58-.65,16.38q-19.28,23.57-39.43,46.42c-5.23,5.91-11.58,10.83-18.06,16.79-3.16-4.18-6.5-9.06-10.33-13.53-3-3.45-15.6-12.52-18.9-15.69C2115.45,1029.55,2120.1,1029.88,2119,1027.76Z"/><path class="cls-3" d="M2274.83,873.75c-1.62.71-18.19-.08-31.26,5.41-16.6,7-30.48,20.54-32.81,21.56-.76-3.57-31.63,25.55-58.7,20.32s-50.32-44.82-50.92-48c-3.77-20.25-49.15-45.33-67.78-59.76,0-2.77,34.85-27.62,30.66-70.17-2.52-25.55-1.79-63.19,22-82.89,32.54-27,80.84-26.85,84.18-28.41,68.42,1.74,67,24.84,80.75,57.75,13,31.14,14.82,70.13,18.92,81.88C2282.32,807.18,2270.3,855.73,2274.83,873.75Z"/><path d="M1907.25,937.6a9.24,9.24,0,0,1,.48-1.93c1.61-3.34,3.54-7.67,7.55-6.57,2.8.77,5.83,4.47,6.77,7.48a67.49,67.49,0,0,1,3.2,18.56c.23,12.93,5,23.42,15.17,31.14,27.78,21.16,55.77,42,83.64,63.09,8.64,6.52,17.16,5.9,25.77,0,17.32-11.79,34.62-23.62,52-35.34,10.76-7.25,21.63-14.34,32.49-21.44a36.11,36.11,0,0,0,13.4-15.57c3.89-8.4,9.21-16.13,13.75-24.23,1.06-1.9,2.24-4.21,2.07-6.23-.64-7.93-1.78-15.81-2.84-23.7,0-.32-1-.5-1.6-.75l.08,0c.64-1,1.05-2.67,2-3,13-5.21,20.24-16,26.49-27.51,11.71-21.57,19.4-44.51,22-69,.46-4.3,1.33-8.56,1.77-12.87a31.66,31.66,0,0,1,10.4-20.8c12.87-12.19,17.7-27.83,16.35-45.39a28.16,28.16,0,0,0-1.25-6.85c-2.31-6.71-5.7-8.31-12.86-6.49-1.5.39-3.07.53-6.69,1.12,15-7.86,25.95-3,28.35,10.93a44.1,44.1,0,0,1-6.23,31.65c-3.61,5.73-4.52,11.39-4.12,17.94a405.75,405.75,0,0,0,11.9,77.87c.58,2.22,1.47,4.36,2.44,7.21l10-1.92c-2.76-36.72-5.49-73.1-8.23-109.49l1.69-.16c4.66,35.71,9.33,71.42,14.13,108.13l5.42,1c.48-1.72,1.18-3,1.11-4.17q-1-17-2.23-33.9c-2.72-38.21-4.51-76.53-13.82-114-5.19-20.85-12.87-40.67-24.93-58.54-10-14.8-22.91-26.09-40.85-30-6.3-1.39-12.9-1.42-19.85-2.12,8.78,0,17.2-.86,25.37.17,21.16,2.67,37,14.37,48.74,31.65,10.82,15.86,17.56,33.58,22.75,52,7.58,26.8,10.27,54.29,11.62,81.95,1.12,23,2,45.93,2.87,68.91.38,9.42-.73,11.42-9.61,10.83-25.44-1.7-42.22,13.64-59.13,28.9a8.83,8.83,0,0,0-2.28,6.11c.36,16,1,31.9,1.6,48.38.6,4.84,8.77,7.23,9.3,15.18.93,14,4.86,28.23,5.25,42.2,1.22,44.3,2,88.61,3.23,132.9.57,20,2,39.94,2.79,59.91.7,17,1.54,33.94-3.66,51.29h8.31c0-8.7.49-17-.08-25.19-3.47-49.58-5-99.14.77-148.65,3.31-28.45,6-57,13.73-84.73,4.11-14.83,9.53-29.16,18.93-41.58,5.31-7,9-8,16.34-5.94,5.61,1.57,8.24,5.56,9.28,10.68,1.79,8.81,3.59,17.65,4.62,26.57a878.24,878.24,0,0,1,.22,198.48c-2.77,24.8-6.73,49.45-14.71,73.89,10.16,3,12.2,10.86,10.73,19.72-1.65,9.85-4.78,19.12-17.83,19.84,0,4.11,0,7.74,0,11.37.59,60,1.36,119.94,1.73,179.91.17,27-.47,54-.68,81,0,5.33.45,10.65.35,16-.1,5.76-2.16,7.46-8.13,7.37-5.35-.08-6.66-1.37-6.77-7.47q-1.61-87.93-3.09-175.88c-.53-35-.69-70-1-105,0-1.65-.23-3.29-.43-5.94-28.95.77-57.74,1.82-86.53,2.21-28.63.38-57.27.08-86.84.08a26.35,26.35,0,0,0-1,5.36c-.22,12.65-.67,25.33-.22,38a74.53,74.53,0,0,0,3.41,19.52c11.74,37.5,23.9,74.86,35.77,112.32,3.82,12,7.28,24.13,7.78,37,.19,4.91,3.72,9.78,6,14.52,7.92,16.23,8.1,16.84-8.5,24.42-15.09,6.9-30.67,12.73-46.9,19.38-.76,5-1.66,10.8-2.67,17.41h-13.1c-1-4.56-1.84-8.72-2.87-13.58-5.67.67-11.21,1.22-16.71,2-3.26.47-4.12,2.93-4.11,5.88,0,4.6,0,9.19-.42,13.84-1-5.81-1.93-11.63-3.12-18.78-5.29.61-10.53.78-15.57,1.89-20.16,4.43-40.16,9.64-60.4,13.6-14.86,2.91-29.79,2.49-44.18-3.64-12-5.11-19.12-14.19-22.58-26.33-4.71-16.51,3.93-29.28,21.06-29.5,10.19-.13,20.45,2.24,30.61,3.91,12.06,2,24,4.43,37.79,7-2.57-6.69-4.49-11.47-6.26-16.3-19.31-52.73-31.31-107.38-42.35-162.26-6.45-32-12-64.23-12.16-97a158.32,158.32,0,0,1,2.26-28.77c2.39-13.29,6.16-16.18,19.22-17.34q48.27-4.26,96.57-8.36c2-.17,3.9-.56,7.18-1,.92-19.51,1.84-39,2.82-59.76-146.16-6.74-291.64-14.17-437.92-24.67-1.71,74.34-3.12,148.53-5.21,222.7s-4.89,148.48-7.44,224.45c-.87-10.61-1.73-19.52-2.32-28.45-2.39-36.55-6.08-73.08-6.7-109.67-.77-45.28.81-90.6,1.77-135.9,1.21-57.3,2.82-114.58,4.24-171.88.28-11.65,1.91-14.11,13.63-14.62,13.63-.6,27.3,0,41,0h6.46c.56-1.94,1.47-3.74,1.54-5.57,3-83.23,5.76-166.48,9.07-249.7,1.68-42.27,4.17-84.52,6.8-126.75.77-12.25,2.88-24.47,5.16-36.56,1.68-8.93,5.06-10.06,13.46-6.7,5.57,2.22,7.85,7,10.12,11.79,8,17,12.53,35.11,16,53.47,8.33,44.41,10.89,89.32,9.19,134.35-1,26.58-4,53.12-6.78,79.6-3.37,31.92-16.06,61.06-28.74,90.07-5.6,12.8-12.12,25.2-18.11,37.83-.77,1.64-.88,3.59-1.67,7,54.21-16.33,107.64-29.79,163.72-26.86,7.14-14.68,20.86-19.13,34.7-23,19.22-5.39,38.84-5.39,58.53-3.26,2.32.25,4.62.58,6.94.77a10.11,10.11,0,0,0,2.58-.7c-.51-1.41-1-2.76-1.46-4.11,3.54,2.15,6.86,5.56,10.67,6.25q36.85,6.63,73.9,12.17c9.82,1.48,19.64-.34,27.77-6,9.18-6.39,17.45-14.09,25.6-20.78-3.14-12.09-4.89-12.83-13.4-7.08-7.45,5-14.88,10.1-22.39,15-9.29,6.09-18.47,6.63-27.78-.31q-39.22-29.25-78.65-58.26c-13.69-10.05-20.08-23.36-20-40.32,0-5.19-1.37-10.59-3.08-15.56C1916.17,934.62,1914,934.23,1907.25,937.6ZM2111.63,1533l-25.09,9.47v30.68c3.73-1.33,6.68-2,9.18-3.35,11.59-6.47,23.23-12.86,34.5-19.86,12-7.46,11.87-7.76,5.18-20.16a17,17,0,0,0-2.35-2.8l-10,2.73c1.42-2.33,6.8-2.57,3.84-7.39l-7.54.9,8.37-6.07c-.88-3.63-1.58-7.53-2.78-11.27q-17.26-54.16-34.71-108.28c-.05-.17-.55-.28-.84-.29a10.36,10.36,0,0,0-1.64.32c0,2.84,0,5.81,0,8.79-.25,27,0,54-1,80.95a56.93,56.93,0,0,0,9.49,34.78c3.14,4.83,6.25,6.38,11.4,4.78l-5.65,3.51C2104,1537,2108.5,1532.31,2111.63,1533Zm-74.45-400.39c12,9.06,23.72,6.48,35-1.4,6.81-4.77,13.71-9.57,19.76-15.22,14.87-13.86,29.29-28.19,43.82-42.4a39.31,39.31,0,0,0,3.84-5.15l-25-33.89c-2.55,2.12-4.79,4-7,5.85-11.84,9.73-23.53,19.66-35.57,29.12-11.88,9.33-25.69,12.27-40.51,10.42-21.15-2.65-42.24-5.82-63.42-8.15-18.51-2-37.1-4.1-55.7-4.56a107.12,107.12,0,0,0-48.55,10c-4,1.87-7.38,4.84-11,7.31,7.61,3.17,13.82,3.3,20.38-.76,7.72-4.78,16-9,27.67-8.39-9,5.25-18.67,4.75-24.88,11.8a53.09,53.09,0,0,0,16.19-3.31c10.49-4.22,14.28-5.11,22.17-3.38a70.86,70.86,0,0,0-7.24,1.17c-2.33.61-4.55,1.63-6.82,2.46,4.2,1.77,8.13,1.64,12,1.79,30.52,1.14,60.4,5.29,88.12,19.22,14,7.05,27.17,15.37,37.17,27.86-6.72-4.66-13.23-9.69-20.2-13.94-32.55-19.83-68.79-25.43-106-27.09,8.66,2.09,17.58,3.12,26.19,5.35a287.14,287.14,0,0,1,29.28,9.49c6.19,2.34,9.3,7.64,8.68,14.31s-1.93,13.18-3,20.17c1.84.2,4.46.58,7.08.76,25.58,1.8,51.15,3.5,76.72,5.4,4.83.35,9.62,1.43,14.82,2.23,1.95,24.53-3.67,47.87-1.78,72.09l34.1-2.62v-99.18c-6.11,4.6-10.87,8.76-16.18,12-6.75,4.17-13.64,8.47-21,11.18C2054.53,1147.44,2045.06,1143.47,2037.18,1132.59Zm79.42-100.93a279.73,279.73,0,0,0,25.51,32.69l1.63-1.34-18.07-25.22c3.3,3.17,6.87,6.11,9.83,9.56,3.83,4.47,7.17,9.35,10.33,13.53,6.48-6,12.83-10.88,18.06-16.79q20.18-22.81,39.43-46.42c3.93-4.8,7.69-10.64.65-16.38a10.12,10.12,0,0,1,.88-1.4c9,8.48,9.77,12.33,4.25,22.14a55.73,55.73,0,0,1-3.62,5.6c-24.45,33.66-52.41,64.22-82.16,93.16a27.28,27.28,0,0,0-7.92,14.5c-6.44,29.09-7.61,58.73-9.26,88.3-.27,4.84.81,9.74,1.39,15.94l105.66-6.33.16,1.68-145.69,19.27c-1,19-2,38.21-2.94,57.14,2.09.77,3,1.37,3.91,1.41,27.31,1,54.65,1.79,81.81-2.07a173.89,173.89,0,0,0,54.23-16.56c10.29-5.19,17-12.89,17.28-24.83.36-15.27.62-30.55.44-45.83q-1.07-86.43-2.47-172.85c-.29-18-5-42.92-5.89-60.88-.19-3.82-45.83-9.26-48.06-12.22s46,5.62,45.79,2.35c-.74-12.28-1.57-27.84-2.52-40.1-.25-3.23-.5-8.3-2.4-9.25-6.92-3.48-5.52-9.91-7-15.34-.54-1.94-.94-3.92-1.8-7.56-9.48,14.81-18.24,27.9-34.24,32.67.77,13.06,1.46,24.88,2.18,37.23a169,169,0,0,0-16.39,35.27c8.88-4.27,16.14-8.23,23.75-11.29,10.8-4.35,15.19-4.61,22.46-3.44-5.59,1.71-13.17,3.15-20,6.28-20.31,9.33-36.37,24.42-51.78,40.19,0,0-7.42,7.19-7.31,7S2116.54,1031.57,2116.6,1031.66Zm-87.17,548.8c2.61-11.61-3.28-23-4.32-34.83l-23.38,1.19c0-.34,0-.67-.07-1l24.26-4c-.36-3.8-.55-7-1-10.25-6.3-47.55-12.43-95.11-14.13-143.14-.9-25.33-2-50.62,1.06-75.86,2-16.37,5.75-19.83,22.19-20.8,2-.12,4,0,6,0h11.51c.77-19.87,1.51-38.62,2.27-58.19-4.76.23-8,.28-11.27.55-26.89,2.24-53.76,4.78-80.67,6.69-18.56,1.32-22.37-1.9-24.81,24.65-2.28,24.76.87,49.3,5,73.6,12.35,72.56,29.32,144,54.44,213.9h22c-8.77,2.1-17.65,3.42-26.44,3-14.28-.74-28.48-3.16-42.76-3.87a151.71,151.71,0,0,0-29.74,1.43c-8.47,1.27-12.8,7.82-13.88,16.25-1,8.21,1.72,13.82,9.79,17.75a76.94,76.94,0,0,0,16.87,5.9c16.69,3.68,33.14.68,49.5-2.77C1997.47,1587.29,2013.08,1583.94,2029.43,1580.46Zm248.16-316.31c2.79-15.16,6.18-29.7,8.06-44.44a1075,1075,0,0,0,8-163.47c-.71-27.91-3.73-55.77-5.81-83.64-.15-1.94-1.2-3.82-2.58-8-3.25,7.31-5.77,12.31-7.72,17.52-10.49,28-14.52,57.42-18.13,86.8-5.63,45.91-10.55,91.92-15.05,138-1.77,18.11-1.57,36.41-2.3,55.64ZM1700.51,725c-3.1,7.93-19.75,360.36-17.65,369.52,20.51-49.55,28.07-102.14,33.32-154.89C1723.37,867.34,1720.38,795.43,1700.51,725Zm0,393.63c.09.95.17,1.91.26,2.87,18.28.26,36.57.45,54.85.79,40,.76,79.95,1.1,119.89,2.58,23.61.88,47.14,3.73,70.73,5.43a137.09,137.09,0,0,0,18.9-.27,8.34,8.34,0,0,0,8.15-7.5c.74-4.54-2.54-7-5.9-8.24-8.12-2.85-16.34-6-24.79-7.19-17.79-2.46-35.75-3.78-53.66-5.46-47.63-4.5-95.14-5.45-142.15,5.59C1731.37,1110.86,1716,1114.82,1700.56,1118.63Zm344.27,302c2.42-6.3,6.88-105.43,5.14-115.1-8.52-2.11-18.31-.36-26.48-7.93C2014.91,1342.19,2020.37,1383,2044.83,1420.65Zm.73,131.62c0-33.34.07-66-.11-98.55a33.91,33.91,0,0,0-2.29-10.6c-5.56-16-11.34-32-17-48-1.07-3-2.05-6.05-3.07-9.08l-2.08.33c4.37,57.32,5.43,114.82,9.57,173.46Zm19-229.82c-.91,1.7-1.19,2-1.2,2.29-1.95,38.85-3.95,77.7-5.76,116.55-.39,8.23,4.29,18.33,11.09,25.49a11.18,11.18,0,0,0,.8-2.75q1-59.35,1.92-118.71C2071.57,1337.44,2068.44,1330.59,2064.59,1322.45Zm-8.78,153c-2.22,24.67-4.43,49.35-6.76,75.25,5.27-1.71,8.95-3.11,12.74-4.08,5.42-1.38,7.3-4.59,7.13-10.15-.31-9.62-.58-19.33.33-28.88C2070.5,1494.53,2063.63,1485,2055.81,1475.42Zm187.76-596.26c-7.86-31.29-10.49-61.78-10.34-93.38-8.36,3.9-11.18,9.38-11.1,17.12a354.19,354.19,0,0,0,6.18,61.3c1.18,6.36,2.67,12.67,4.19,19.8C2236.66,882.17,2239.89,880.77,2243.57,879.16Zm-24.72-41.26c-3.17,9-4.87,16.9-8.6,23.71-7.09,13-.95,24.8.51,39.11l16.12-13.25C2224.13,870.53,2221.63,855,2218.85,837.9Zm-151.09,710.49c-6.05,2.47-11.24,4.42-16.24,6.77a5.46,5.46,0,0,0-2.6,3.81c-.73,7.82-1.13,15.67-1.75,25.21l20.59-4.74Zm71.3-552.5-1.58-1.32-56.09,38.36c2.8,3.55,4.73,6,6.48,8.22,15.72-12.59,30.84-24.49,45.66-36.75C2136,1002.34,2137.25,998.77,2139.06,995.89ZM2031.4,1564.47v20.77c3.12.16,5.71.43,8.29.38,3.61-.07,5.46-2.15,5.49-5.71,0-6.79,0-13.58,0-22Zm56.88-38c-2.36,10.63-2.36,10.63,4.45,9.81C2091.49,1533.53,2090.34,1531,2088.28,1526.47Zm-377-400.36c0-.11,0-.23,0-.35l-8.15-.4,0,.75Zm-24.08-2.34c0,.36,0,.73,0,1.09h8.13v-1.09Z"/><path class="cls-3" d="M1907.25,937.6c6.77-3.37,8.92-3,11.14,3.46,1.71,5,3.11,10.37,3.08,15.56-.09,17,6.3,30.27,20,40.32q39.43,29,78.65,58.26c9.31,6.94,18.49,6.4,27.78.31,7.51-4.93,14.94-10,22.39-15,8.51-5.75,10.26-5,13.4,7.08-8.15,6.69-16.42,14.39-25.6,20.78-8.13,5.66-17.95,7.48-27.77,6q-37-5.6-73.9-12.17c-3.81-.69-7.13-4.1-10.67-6.25-1-2.25-2.1-4.51-3.16-6.76-2.3-3.26-4.49-6.61-6.92-9.76-18.37-23.82-40-44.52-61.8-65.14-2.77-2.62-5.58-5.21-9.78-9.12,7.43,0,10.76,6.84,18.07,4.45-6.29-3.5-11.46-6.41-16.66-9.26-11.31-6.21-11.32-6.2-13.39-11,2.57.47,5.07.92,7.56,1.39,6.15,6.86,14.26,10.28,22.63,13.24-6.49-6.37-14.58-9.85-22.85-13,3.3-3.81,7.07-2,10.72-.81,1.52.49,3.36,2.39,4.29,2,6.41-2.91,12.21.54,18.17,1.44,8.61,1.31,8.75,1.48,11-7.53Z"/><path d="M2073.75,734.11c4.36-3.22,8.65-6.2,12.73-9.44,3.87-3.06,7.52-6.38,11.27-9.59l-1.06-1.67c-4.59,2.86-37.88,13.85-42.46,16.72,10-10.54,48.54-29.12,59.39-40.59.32,2.28,1.18,4.13.67,5.45a88,88,0,0,1-20.22,30.59c-2,2-4.67,3.43-7.05,5.12l1.59,2.69c3.54-1.64,7.23-3,10.6-4.94,14.88-8.54,27.46-19.84,38.81-32.62,3-3.41,6.35-6.55,9.26-9.53,6,2.07,6.16,5.3,4.54,9.79-4.39,12.16-10.88,22.77-21.15,30.87a83.07,83.07,0,0,0-10.07,9,78.85,78.85,0,0,0,34.68-16.57c9.53-8,17.53-17.81,26.37-27,5,1.57,4.61,5.43,3.08,9.49-4.27,11.28-9.67,22-18.41,30.52-2.33,2.28-5.36,3.83-7.43,6.7,4.78,3.13,8.37,1.39,11.88.36,15.11-4.47,29-11.62,42.34-19.86,2.26-1.4,4.5-3.07,7-3.77,1.77-.49,3.94.44,7.38.94-2.42,3.1-3.47,5.22-5.16,6.5a118,118,0,0,1-57.46,23.6c-5.07.63-10.85,1.47-14.48-5.28l15.5-14.21c-46.14,17.51-46.14,17.51-56.43,11.43l9.12-7.29c2.78-2.23,5.56-4.47,7.46-8.09-2.38,1.41-4.69,3-7.18,4.2-9,4.28-17.75,9.08-27.06,12.41C2085.5,742.3,2078.6,741.91,2073.75,734.11Z"/><path d="M2159.1,922.15c-16.5,2.77-29.43-4.19-40-15.83-9.37-10.36-17.92-21.47-26.51-32.5-5.45-7-10.41-14.34-15.42-21.66-10.48-15.33-24.74-25.88-41.61-33.19-3-1.3-5.94-2.74-9.79-4.52,2.39-2.54,4-4.56,5.89-6.22,16.68-14.51,25.46-33.13,27.74-54.79,1.26-11.9,1.27-23.93,2.06-35.89.55-8.3.92-16.67,2.33-24.84,2.41-13.93,9.37-25.17,22.15-32.5-19.2,16.4-19.4,38.09-16.92,60.27,3.77,33.66-7,62.1-29.83,86.5l-5.87,6.29c12.26,6.74,25.08,11.94,35.64,20.08s19,19.29,28.65,29.34c10.8-3.44,12.83-6.29,25.07-36,5.23,11.81-7.17,32.34-23.86,40,2.7,3.9,5.19,7.76,7.95,11.42,6.21,8.24,12.54,16.4,18.87,24.55,8.51,11,19.12,18.42,33.46,19.52Z"/><path d="M1859.66,950.7l-7.56-1.38c2.07,4.81,2.08,4.8,13.39,11,5.2,2.85,10.37,5.76,16.66,9.26-7.31,2.39-10.64-4.44-18.07-4.45,4.2,3.91,7,6.5,9.78,9.12,21.76,20.62,43.43,41.32,61.8,65.14,2.43,3.15,4.62,6.5,6.92,9.76-2.23-1.86-4.8-3.43-6.66-5.61-16-18.82-34.89-34.56-53.82-50.32-10.16-8.46-19.17-18.32-28.54-27.71a28,28,0,0,1-5.1-7.34c-4-8.09,0-15.35,9.07-14.9,11.55.59,23,2.68,34.52,4.22,2.29.3,4.57,1.54,6.78,1.37,1.65-.13,3.17-1.84,4.75-2.84-2.21,9-2.35,8.84-11,7.53-6-.9-11.76-4.35-18.17-1.44-.93.42-2.77-1.48-4.29-2-3.65-1.18-7.42-3-10.72.81Z"/><path d="M2106.07,760.1c2,3.35,4.17,5.48,4.58,7.91.86,5.14-2.59,11.17-7.43,14.75C2097.81,775.64,2098.17,770.09,2106.07,760.1Z"/><path d="M2130.94,633.54q1.13,3,2.24,6L2132,640c-1-1.95-2.09-3.89-3.13-5.83Z"/><path class="cls-3" d="M2029.43,1580.46c-16.35,3.48-32,6.83-47.57,10.13-16.36,3.45-32.81,6.45-49.5,2.77a76.94,76.94,0,0,1-16.87-5.9c-8.07-3.93-10.83-9.54-9.79-17.75,1.08-8.43,5.41-15,13.88-16.25a151.71,151.71,0,0,1,29.74-1.43c14.28.71,28.48,3.13,42.76,3.87,8.79.46,17.67-.86,26.44-3h-22c-25.12-69.92-42.09-141.34-54.44-213.9-4.13-24.3-7.28-48.84-5-73.6,2.44-26.55,6.25-23.33,24.81-24.65,26.91-1.91,53.78-4.45,80.67-6.69,3.25-.27,6.51-.32,11.27-.55-.76,19.57-1.5,38.32-2.27,58.19h-11.51c-2,0-4-.09-6,0-16.44,1-20.21,4.43-22.19,20.8-3,25.24-2,50.53-1.06,75.86,1.7,48,7.83,95.59,14.13,143.14.43,3.21.62,6.45,1,10.25l-24.26,4c0,.33,0,.66.07,1l23.38-1.19C2026.15,1557.42,2032,1568.85,2029.43,1580.46Z"/><path class="cls-3" d="M2277.59,1264.15l-35.5-1.65c.73-19.23.53-37.53,2.3-55.64,4.5-46,9.42-92,15.05-138,3.61-29.38,7.64-58.81,18.13-86.8,1.95-5.21,4.47-10.21,7.72-17.52,1.38,4.2,2.43,6.08,2.58,8,2.08,27.87,5.1,55.73,5.81,83.64a1075,1075,0,0,1-8,163.47C2283.77,1234.45,2280.38,1249,2277.59,1264.15Z"/><path class="cls-3" d="M2037.52,1133c-10-12.48-23.12-20.8-37.16-27.85-27.72-13.93-57.6-18.08-88.12-19.22-3.92-.15-7.85,0-12-1.79,2.27-.83,4.49-1.85,6.82-2.46a70.86,70.86,0,0,1,7.24-1.17c-7.89-1.73-11.68-.84-22.17,3.38a53.09,53.09,0,0,1-16.19,3.31c6.21-7.05,15.85-6.55,24.88-11.8-11.63-.61-20,3.61-27.67,8.39-6.56,4.06-12.77,3.93-20.38.76,3.67-2.47,7.1-5.44,11-7.31a107.12,107.12,0,0,1,48.55-10c18.6.46,37.19,2.52,55.7,4.56,21.18,2.33,42.27,5.5,63.42,8.15,14.82,1.85,28.63-1.09,40.51-10.42,12-9.46,23.73-19.39,35.57-29.12,2.25-1.85,4.49-3.73,7-5.85l25,33.89a39.31,39.31,0,0,1-3.84,5.15c-14.53,14.21-28.95,28.54-43.82,42.4-6.05,5.65-13,10.45-19.76,15.22-11.26,7.88-22.95,10.46-35,1.4Z"/><path class="cls-3" d="M1700.51,725c19.87,70.43,22.86,142.34,15.67,214.63-5.25,52.75-12.81,105.34-33.32,154.89C1680.76,1085.36,1697.41,732.93,1700.51,725Z"/><path class="cls-3" d="M1700.56,1118.63c15.43-3.81,30.81-7.77,46.28-11.4,47-11,94.52-10.09,142.15-5.59,17.91,1.68,35.87,3,53.66,5.46,8.45,1.17,16.67,4.34,24.79,7.19,3.36,1.19,6.64,3.7,5.9,8.24a8.34,8.34,0,0,1-8.15,7.5,137.09,137.09,0,0,1-18.9.27c-23.59-1.7-47.12-4.55-70.73-5.43-39.94-1.48-79.92-1.82-119.89-2.58-18.28-.34-36.57-.53-54.85-.79C1700.73,1120.54,1700.65,1119.58,1700.56,1118.63Z"/><path class="cls-3" d="M2107.65,1526.91c-5.15,1.6-8.26,0-11.4-4.78a56.93,56.93,0,0,1-9.49-34.78c1-27,.76-54,1-80.95,0-3,0-6,0-8.79a10.36,10.36,0,0,1,1.64-.32c.29,0,.79.12.84.29q17.4,54.12,34.71,108.28c1.2,3.74,1.9,7.64,2.78,11.27l-8.37,6.07.35-.29-12.45,4.21Z"/><path class="cls-3" d="M2044.83,1420.65c-24.46-37.7-29.92-78.46-21.34-123,8.17,7.57,18,5.82,26.48,7.93C2051.71,1315.22,2047.25,1414.35,2044.83,1420.65Z"/><path class="cls-3" d="M2123.08,1529.69l10-2.73a17,17,0,0,1,2.35,2.8c6.69,12.4,6.85,12.7-5.18,20.16-11.27,7-22.91,13.39-34.5,19.86-2.5,1.4-5.45,2-9.18,3.35v-30.68l25.09-9.47Z"/><path class="cls-3" d="M2064.59,1322.45c3.85,8.14,7,15,6.85,22.87q-1,59.36-1.92,118.71a11.18,11.18,0,0,1-.8,2.75c-6.8-7.16-11.48-17.26-11.09-25.49,1.81-38.85,3.81-77.7,5.76-116.55C2063.4,1324.44,2063.68,1324.15,2064.59,1322.45Z"/><path class="cls-3" d="M2067.76,1548.39v31l-20.59,4.74c.62-9.54,1-17.39,1.75-25.21a5.46,5.46,0,0,1,2.6-3.81C2056.52,1552.81,2061.71,1550.86,2067.76,1548.39Z"/><path class="cls-3" d="M2139.06,995.89c-1.81,2.88-3,6.45-5.53,8.51-14.82,12.26-29.94,24.16-45.66,36.75-1.75-2.23-3.68-4.67-6.48-8.22l56.09-38.36Z"/><path class="cls-3" d="M2031.4,1564.47l13.79-6.6c0,8.46,0,15.25,0,22,0,3.56-1.88,5.64-5.49,5.71-2.58.05-5.17-.22-8.29-.38Z"/><path class="cls-3" d="M2123.08,1529.69l-11.45,3.29c-3.13-.67-7.65,4-9.63-2.56l5.65-3.51-.37.21,12.45-4.21-.35.29,7.54-.9C2129.88,1527.12,2124.5,1527.36,2123.08,1529.69Z"/><path class="cls-3" d="M2125.67,1037.79l18.07,25.22-1.7,1.26a282,282,0,0,1-25.58-32.82C2119.35,1031.45,2124.52,1035.68,2125.67,1037.79Z"/><path class="cls-3" d="M1711.26,1126.11h-8.17l0-.75,8.15.4C1711.27,1125.88,1711.26,1126,1711.26,1126.11Z"/><path class="cls-3" d="M1687.18,1123.77h8.13v1.09h-8.13C1687.18,1124.5,1687.18,1124.13,1687.18,1123.77Z"/><path d="M1859.44,951c8.27,3.14,16.36,6.62,22.85,13-8.37-3-16.48-6.38-22.63-13.24Z"/><path d="M2119.73,1522.91l-12.45,4.21Z"/><path class="cls-3" d="M528.22,1469.24c5.45,7.67,4.36,28.8,6.12,39.78,1,6.21,3.16,15-3.84,17.41-6.19,4.73-15.21-8.23-16.86-10.64-16.2-2.17-18.07-92.07-15.87-104.37C498.89,1405.2,548.67,1449.51,528.22,1469.24Z"/><path class="cls-4" d="M443,957.38c-3.23,4.72-3.38,9.72-1.7,15.06,5.9,18.79,12.89,37.14,22.8,54.21,2.66,4.57,6.24,8.62,9.52,12.8,9.05,11.55,29.87,7.76,33.55-7.16a178.85,178.85,0,0,0,5.05-28.43c1.08-15.7.65-30.84.78-46.69a1,1,0,0,1,.71-1L537,948.61a1.06,1.06,0,0,1,1.35.73c2.71,10.81,2.62,21.07,2,31.2-1.93,32.05-8.85,96.43-28.36,122-.31.41-1.18,2.5-1.63,2.24-44.7-25.91-86.13-56.52-110.66-104.24a1,1,0,0,0-1.52-.35h0a1,1,0,0,0-.32,1.24c14.92,33.1,61.4,48.09,66.33,84.26,1,7.15,2.35,17.11,3.13,29.27.4,6.24,2.47,2.16.78,17.68,0,.47.41,4.6-.06,4.67-5,.75,7.28-.55,2,0-32.83,3.69-43.37,7.91-75.64,14.61-13.3,2.76-27,3.62-40.58,4.91a50.11,50.11,0,0,1-8.72-.13,1,1,0,0,0-.37,2c5.83,1.58,11.66,1.66,17.31,1.66,49,0,97.18-8.93,146-10.93a1,1,0,0,1,1.08,1c.69,18.59,1.36,36.87,2.05,55.46a1.05,1.05,0,0,1-.67,1,35.85,35.85,0,0,1-6.21,2.24c-28.5,5.1-56.88,11.25-85.58,14.74-19.39,2.35-39.24,1.21-58.87.9-3.8,0-8.09-2.81-11.22-5.44-9.62-8.08-14.2-18.87-16-31.26-8-51.83,5.37-102.07,23.76-150.13,9.53-26.38,16.87-53.36,28.61-78.91a1,1,0,0,1,1.15-.59l3.63.72.94-3-.81-.35a1.05,1.05,0,0,1-.6-1.11c.5-3.13,1-6.32,1.51-9.5l-.31.37c6.33-12.43,10.26-24.54,15.15-38a1.06,1.06,0,0,1,1.51-.55c4.05,2.33,7.3,5.39,12.11,2.77s5.89-7,7.36-11.32c1.58-4.67,3-9.39,4.58-14.37a1,1,0,0,1,1.32-.68c4.12,1.36,7.56,2.76,11.13,3.4,8.95,1.68-13.49,17-26.6,17-5.67,0-14.54-10.38-16.69-16-1.92-5-4.65-10.56-7.12-16.4-.55-1.31-2.88-13.17-3.37-14.49-.34-.93-15,3.68-11.66-1.27.15-.24-4.09,2.14-4.15,1.87-3.22-13,9.74-50.13,5.31-58.52-3.81-7.23-25.1,13.9-27.1,7.78-2.06-6.54,8.35-46.17,11.69-46.76,5.79-1,.2-8.64,2.92-5,1.59,2.1,30.49-43.19,32.15-41.18,1.05,1.27-19.49-5.23-17.38-4.18,1.7-8.2,19.29-10.28,22.63-17,4.34-8.72,35.79-8,29.65-8,8.67-3.48,23.92-4.27,34.66-.68.3.11,4.32,7.22,4.56,7,3.2-2.62,34.49-9.53,42.81-8.61,6.53.73,11.73.88,17.48,4.11,15.87,8.91,21.76,15.07,24.81,20.39,3.45,6,6.88,8.36,7.59,15.44,1.37,13.65,11,31.27,1.57,35.38a1,1,0,0,0-.65.91c-1.05,33.18-15.59,65,23.88,79a1,1,0,0,1,.21,1.83c-14.24,9.28-26,20.49-38.64,31.7-5.56,5-6.68,5.4-12.84,1.27-16.35-10.75-20.33-29.23-24.43-47.18a1,1,0,0,0-1.59-.6c-5.09,3.68-4.33,8.29-2.93,12.78,5.46,17.45,14.27,32.28,32.17,39.71a5.17,5.17,0,0,1,1.35,1.19,1,1,0,0,1,0,1.41l-25.73,28.58a1,1,0,0,1-1.25.22c-8.57-4.45-16.47-8.73-24.54-12.68s-16.2-8.75-26-5a1.09,1.09,0,0,0-.67.8c-1.61,9.52,4,17.37,5.93,26.59a1,1,0,0,1-1.21,1.2c-11.31-2.17-15.36-13.69-24.09-20.61a1,1,0,0,0-1.68.74c-.42,5.34,2.32,7.61,4.4,9.7,3.87,3.89,5.56,4.45,4.09,9.49-3.44,11.79-7.76,27-10.67,38.93Zm92.81-158.62a1.06,1.06,0,0,0,1.42.12c3.85-2.93,3.69-7,3.4-10.93a3.75,3.75,0,0,0-2.37-2.59c-1-.22-2.89.48-3.25,1.28C533.17,790.69,532.14,794.82,535.78,798.76Z"/><path d="M456.16,1395.6c-2.51-2.59-4.9-5.32-7.56-7.74-10.76-9.75-12-15.16-5.67-28,5-10.16,9.84-20.42,15.5-30.22a56,56,0,0,0,7.9-25.41c1.22-22,2.83-43.87,4.25-65.81.13-1.94,0-3.9,0-6-27,3.31-53.26,8.19-79.64,9.28s-53.13-1.59-81-2.67c-.4,10.89-1.51,22.11-1.09,33.27,1.61,42.6,2.89,85.24,5.91,127.75,2.38,33.54,7.33,66.89,10.78,100.36,1.46,14.23,2.5,28.55,2.78,42.85.26,13.67-5.63,17.94-18.91,15.3-13.7-2.72-21.9-11-24-24.69-3.06-20.07-6.32-40.16-8.14-60.36-3.79-41.92-3.69-84,2.09-125.67,4.38-31.63,11.11-62.93,16.81-94.37.94-5.17,1.95-10.33,3-16-5.37-1.37-9.82-2.41-14.21-3.66-3.84-1.1-6-3.4-6.5-7.77-1.25-11.87-2.7-23.73-4.45-35.54-8.31-56.09-14.44-112.34-12.73-169.17,1.16-38.41,4-76.57,17.42-113.08,6.24-17,13.81-33.34,27.08-46.15,10.61-10.23,26.78-7.49,33.57,5.66a51.24,51.24,0,0,1,5,15.08c1.28,7.86,2.41,15.94,2,23.84-1.2,24.6-2.72,49.21-4.93,73.74-1.85,20.56-4.85,41-7.31,61.52a6.2,6.2,0,0,0,1.23,4.69c1.24-2.94,2.37-5.93,3.73-8.82,10.66-22.57,21.15-45.22,32.16-67.62,3-6.12,6.69-12,14.11-14.78,2.65-1,5.22-12.53,7-15.94-.55,3.44-2.7,13-3.24,16.41,3.62,1.6,47.71,8.58,50.87,10-.09.34.14,1.48,0,1.82-4.12-.81-49.5-8-54.76-9-2.69,6.21-5.67,12.11-7.85,18.29-7.19,20.4-14.06,40.91-21.1,61.36-4,11.64-8.35,23.18-12.13,34.89C332,1110.69,327,1149,332.53,1188.37c1.75,12.38,6.34,23.17,16,31.25,3.12,2.63,7.42,5.39,11.22,5.45,19.63.3,39.48,1.44,58.87-.91,28.7-3.48,57.08-9.63,85.58-14.74,2.18-.39,4.22-1.51,6.9-2.5-.71-19.19-1.4-38-2.11-57.24-3.53,0-6.13-.2-8.68,0-32.17,3-64.32,6.25-96.51,9-13.92,1.2-27.93,1.92-41.9,1.91-7.76,0-15.9-.14-23.86-4.17,5.79.28,10.78,1.1,15.65.64,13.57-1.29,27.28-2.16,40.58-4.92,22.24-4.62,47.44-10.64,69.81-14.52.85-.15-1.58-49.72,1-50.15,3.39-.56,4,50,5.09,49.85,8.13-1.33,13.09-2.17,21.3-3.1,5.52-.62,11-1.59,16.23-2.36,1.85-16.23-.3-19.28-13-26A205.56,205.56,0,0,1,465,1087.53a91.77,91.77,0,0,1-7.21-5.71c-22.75-19.94-43.81-47.18-57.76-74.31-1.08-2.11-1.84-4.39-2.76-6.58l1.63-1.24c24.59,48.66,67,77.58,112.28,103.8,7.81-9.57,11.3-20.32,14.41-31.18,8.58-29.91,12.79-60.56,14.51-91.56.59-10.47.66-21.07-2.33-32.28l-25.09,8.17c0,3.91,0,7.2,0,10.49-.18,12.32.19,24.68-.79,36.94a178,178,0,0,1-5,28.44c-3.69,14.92-24.5,18.71-33.55,7.15-3.29-4.18-6.86-8.23-9.52-12.8-9.91-17.07-16.9-35.42-22.8-54.21-1.68-5.34-1.53-10.33,1.7-15.07.14,1.31-.08,2.79.46,3.91,2.7,5.56,6.15,10.81,8.31,16.56,6.46,17.18,13.48,34,23.91,49.25,3.77,5.49,7.95,10.59,14.13,13.55,7.33-10,12.12-56.73,9.08-87.49-9.46-4.36-14.34-13.19-19.7-21.63-1.38-2.17-2.83-4.93-4.94-5.89-5.59-2.55-11.56-4.26-18.06-6.55-1.92,6.12-3.54,11.84-5.51,17.44-2.5,7.11-5.28,14.12-7.94,21.18,2.91-11.95,5.45-24,8.89-35.81,1.47-5,1.56-8.72-2.31-12.61-2.3-2.31-5.41-4.84-4.16-11.51,10.14,7,13.92,20.42,27,21.9-1.61-10-8.14-18.31-6.08-28.59,10.07-4.13,18.31.75,26.58,4.8s16.41,8.47,25.25,13.06l26.93-29.92c-1.15-1.06-1.52-1.64-2-1.86-17.89-7.43-26.7-22.25-32.16-39.71-1.51-4.83-2.27-9.8,4.19-13.61,1.51,6.19,2.75,11.94,4.32,17.58,3.5,12.5,9.31,23.56,20.44,31,6.16,4.13,7.28,3.76,12.84-1.27,8.63-7.81,17.38-15.5,26.33-22.94,4.27-3.56,9.1-6.43,14.1-9.91-23.67-8.76-30.59-19.29-29.14-44.11.49-8.3,1.76-16.56,2.58-24.84.34-3.49.44-7,.7-11.39-12.59-.35-20.93-6.36-27.58-18.38-1.36,6.78-2,11-3,15.06-2,8-5.59,9.78-13.14,6.28-2.78-1.29-5.25-3.24-8.11-5l-3.35,12.79c-12.57,2.73-20.25-5.73-28-10.4-3.26,7.44-6.83,14.08-9.08,21.15s-3.22,14.68-4.92,22.88c-2.11-1-4.18-1.47-5.23-2.74-1.66-2-2.38-4.79-4-6.89-2.72-3.58-4.81-8.61-10.61-7.58-3.34.6-5.36,6.86-3.3,13.4,2.37,7.54,5.83,14.79,9.3,21.93,2.71,5.59,6.17,10.82,9.2,16-5,5.81-10.41,2.87-16.57,2.2,2.83,7.32,5.2,13.45,7.56,19.58,2.15,5.59,4.76,11,6.32,16.8,2,7.21-.41,10.78-7.82,12.12a30.9,30.9,0,0,1-10.8-.26c-3.86-.7-7.55-2.28-12.14-3.74-1.69,5.36-3.2,10.4-4.89,15.38-1.48,4.36-2.61,8.73-7.36,11.32-5.24,2.86-8.62-1-13.2-3.36-3.33,9.14-6.25,17.56-9.48,25.86-1.76,4.55-4.05,8.89-6.1,13.33,4.24-14.34,8.49-28.67,12.7-42.89l-17.44-43.19c-.45,5.22-.86,8.57-1,11.93-.18,4.66-.32,9.33-.18,14,.16,5.18-1.95,8.18-8.17,8.91-12.52-31.59-11.28-63.2.54-95l-2.06-.87c-4.8,4-9.62,7.94-14.38,12-1.78,1.5-3.17,3.92-5.17,4.59-2.95,1-6.54,1.58-9.36.72-1.42-.43-2.51-4.44-2.47-6.81.59-37.9,12.94-69.83,46.63-90.76,1.56-1,2.91-2.29,5.15-4.07-9.68-2.85-19.76,1.7-28.34-6.08,2.66-2.5,4.8-4.93,7.33-6.83,23.87-17.94,50.71-26.17,80.54-24.09,7.93.56,16,1.43,21.56,9.25,11.5-5.48,22.65-6.08,39.85-4.26-6.2.37-10.41.49-14.59.9-10.61,1.06-19.66,5.83-28.21,11.9-3.4,2.42-6.84,5.91-12.14,1.52l7-12.34c-19.8-7.66-66.89,6-87.59,25.46L410,713.06c-2.55,3.49-3.58,5.48-5.13,6.9-3.19,2.92-6.59,5.63-10,8.24C378,740.93,367.08,757.67,361.69,778c-2.44,9.21-4.4,18.55-6.87,29,12.56-4.51,19-18.81,34.79-15-1.31,4.7-2.11,8.83-3.59,12.69a131.21,131.21,0,0,0-8.58,50.87c6-4.25,2.92-13.8,10.65-15.92,4.54,32.17,14.46,55.23,28,64.36.77-4.74,1.39-9.24,2.26-13.7,2.46-12.54,11.33-16.6,22.86-10.6,3.2,1.67,6.45,3.23,10.26,5.14,1.63-5.19-1.44-8.23-2.82-11.66-4.87-12-10-23.89-14.54-36-1.71-4.58-2-9.68-3.07-15l8.55-3.91c-1.57-4-3.34-7.93-4.62-12-2.4-7.61-3.36-15.24,3.47-21.25,5.2-4.58,14.39-4.18,22.48.48l2.55,1.47c3.79-7.73,7.53-15,10.89-22.47.9-2,.79-4.52.88-6.81.14-3.26,0-6.53,0-9.68,5.84-2.06,8.26,2,10.92,5.33a44.61,44.61,0,0,0,17.94,13.83c3.76-5.18,2.19-10.59,2-15.79-.19-4.91-.67-9.81-1-14.69,9.6-.74,10.75-.16,14.17,6.71,2.19,4.39,4.36,8.8,7.4,14.93,6-10.4,4.25-20.75,7.14-30.2,5.59-.94,9,1.72,11.53,6,2.88,4.87,5.44,9.95,8.56,14.66,2.78,4.2,6,8.31,12.6,5.76,2-13.9-.06-27.77-3.67-41.11,9.29,15.23,10.33,32.63,11.13,50.06.74,16.29,1.81,32.57,3,48.84a38.22,38.22,0,0,0,2.56,11.65c2.66,6.45,7.16,11.13,14.7,11.94,2.22.23,4.38,1,8.35,2-30.19,20.91-52.65,47.69-77.43,73.71,4.59.93,7-1.14,9.2-3.25,2.4-2.3,4.56-4.85,6.85-7.28,3.13-3.32,6.67-4.11,11.4-1.37-.44,2.4-.86,4.93-1.39,7.42q-2.52,11.73-5.1,23.43c-1.06,4.84-2.3,9.25,2.05,13.8,2.14,2.23,2.18,6.82,2.5,10.41,2,23.44-.74,46.63-5.05,69.57-3.45,18.29-7.88,36.45-12.8,54.41-4,14.44-8.1,20.26-17,28.69,2.15.59,3.89,1.63,5.47,1.41,26.06-3.54,52.11-7.24,78.15-10.94.57-.08,1.07-.72,1.31-.89-3.75-5.79-8.07-11.25-11.05-17.37-3.7-7.61-2.13-11.37,6.13-13.27,15.24-3.49,30.62-6.5,46.09-8.75a853.9,853.9,0,0,1,119.51-9.24c38-.13,76,1.69,113.31,9.81a58.6,58.6,0,0,0,5.87,1,1.8,1.8,0,0,0,1.17-.42c-6.56-19.91-13.41-39.67-19.61-59.63-21.41-69-27-139.77-23.59-211.46,1-21.58,3.81-43.1,6.46-64.56,1.53-12.41,6.7-23.63,14.32-33.67,2.83-3.72,6.24-5.83,11-5.92,4.91-.1,8.61,1.72,9.8,6.67a75.69,75.69,0,0,1,2.55,14.7c1.56,41.62,2.69,83.26,4.33,124.88q3.3,83.4,7.18,166.77c1.05,23,2.63,45.89,3.93,68.84.13,2.31,0,4.62,0,7.64,14.71-.55,29.61-1.21,44.52-1.61,9-.24,18-.39,27,0,6.41.27,7.07,1.82,6.79,8.23-1.83,41.26-4.45,82.52-5.12,123.81-1.34,82.67,2.87,165.25,6.4,247.81,1.32,30.85,4.42,61.62,6.05,92.73-1.42-6.44-3.13-12.83-4.19-19.33-5.23-31.88-10.87-63.71-15.2-95.72-2.76-20.43-4-41.12-5-61.74-3-61.94-3.92-123.93-1.83-185.9,1-31.28,4-62.5,6.06-93.75.11-1.64.18-3.28.33-6.17-5.12,0-10-.39-14.7.07-28.19,2.7-56.35,5.68-84.53,8.4q-87.54,8.48-175.11,16.77c-52.14,4.91-104.47,5.18-156.77,6.4-3.59.09-7.18,0-12,0,.73,6.14,1.31,11,2,16.77,4.21,0,8.08,0,12,0,6,0,12-.18,18,.14,13,.68,22.51,7.12,29.49,17.94a49.14,49.14,0,0,0,8.13,9.85c28.48,25.64,57.25,51,85.55,76.78a255.44,255.44,0,0,1,25.35,26.86c10.76,13.14,10.19,19.28-.82,32.4-1.26,1.5-2.41,3.09-4.07,5.24,4.68,7.62,9.33,15.15,13.85,22.51,6.88-1,9.74-5.23,12.39-9.34,4.69-7.28,8.82-14.92,13.58-22.15a78.21,78.21,0,0,1,10.42-13.33c8.09-7.88,18.82-6.4,24.23,3.61,6.94,12.83,5.92,25.81-2.37,37.74a64.86,64.86,0,0,1-12.21,13.1c-11.07,9.06-18.87,20.31-25.67,32.78a105.73,105.73,0,0,1-17.56,24c-11.78,11.81-24.07,10-33.47-3.82-9.64-14.22-15.22-30.28-20.21-46.56-.39-1.26-.71-2.54-1.33-4.74-2.52,1.51-4.72,2.67-6.76,4.07-6.87,4.69-13.48,9.81-20.58,14.14-12.14,7.42-16.62,5.9-22.36-6.83a89,89,0,0,1-3.64-9.29q-12.31-38-24.52-76.07a11.32,11.32,0,0,0-3.67-5.74c-.7,3.29-1.53,6.56-2.08,9.88-6.7,40.44-14.44,80.66-25.74,120.1-1,3.52-1.86,7.26-3.74,10.31-6,9.69-5.66,20.14-5.23,30.91.47,11.63.22,23.32-.22,35-.2,5.3,1.36,8.37,6.15,11.13,13.67,7.88,16.47,15.14,10.84,29.92A73.28,73.28,0,0,1,544.77,1520c-3.24,4-4.68,7.58-4.34,12.53a61.59,61.59,0,0,1-1.07,16.74c-.71-5.54-1.39-11.08-2.17-16.61-.58-4.06-.64-4-6.69-6.25,4.58-3,5.2-7.12,4.55-12-1.62-12.21-3.1-24.46-4.11-36.73-.5-6-4.29-8.52-8.84-11-11.23-6-17.24-15.87-18.07-28.17-.42-6.38,1.83-13,3-20.46l-7-2.56c-.69,1.33-1.5,2.16-1.45,2.93.76,11.29,1.4,22.6,2.55,33.86,1.46,14.25,3.59,28.43,5,42.68,1.36,13.78,7.68,24.34,19.76,32.52-6.51,2.4-11.09-1.85-17.07-3.28-.75,5.21-1.28,10.36-2.3,15.42-1,4.84-1.7,10.15-8,11.34s-12.28.16-16.07-5.38a35,35,0,0,1-5.7-12.55c-3-15.34-5.26-30.81-7.76-46.24a72.25,72.25,0,0,1-1.4-10.9c-.06-6.62-3.38-10.44-9.34-12.5-5-1.74-10.12-3.36-15.05-5.35a60.46,60.46,0,0,1-11.63-5.66c-5.8-3.94-8.28-9.79-5.86-16.59,4.43-12.42,11.39-23.2,22.17-31.18-2.19,3.32-4.6,6.53-6.54,10-3.23,5.77-6.82,11.47-9.06,17.64-3.63,9.94-.68,17,9,21.09,7.19,3.07,15,4.75,22.22,7,1-1.74,1.61-2.32,1.58-2.88q-1.14-27.92-2.42-55.81C462.54,1397.62,460,1395.88,456.16,1395.6ZM685,1307c-1,1.58-1.75,3.48-3.1,4.69-5.45,4.89-10.9,9.8-16.71,14.24-4.35,3.33-5.27,6.67-3.51,12a180.35,180.35,0,0,0,21.45,43.7c3,4.55,7.38,8.23,11.09,12.27,7.38-2.91,11.06-8,14.12-13.54,2.4-4.36,4.43-8.93,6.49-13.48,6.68-14.79,15.87-27.52,29-37.49,5.22-4,9.6-9.19,13.86-14.27a35.41,35.41,0,0,0,8.38-21c.35-6.76.49-13.94-6.22-18.87-9.42,5-13.48,13.92-18.16,22.25-3.74,6.65-6.64,13.81-10.67,20.27-6,9.66-11.85,11.43-21.83,6.15-4.15-2.19-7.44-6.35-10.49-10.13-2.42-3-3.88-6.79-5.75-10.19l-8.24,3.77c2.56-2.93,4.91-6.08,7.72-8.75,11.23-10.68,11.66-14.7,2.39-27a50.1,50.1,0,0,0-4.47-5.37c-10.33-10.37-20.6-20.81-31.13-31q-35.86-34.68-72-69.09c-.35-.34-1.18-.19-1.95-.28a16.33,16.33,0,0,0-.7,2.73c-1.88,20.54-3.64,41.09-5.63,61.61a44.84,44.84,0,0,0,2.39,19.56c11.09,31.88,26.12,61.85,43.19,90.87,3.64,6.2,5.56,7,11.92,2.62,9.88-6.75,19.36-14.1,28.95-21.27C671.92,1317,678.42,1312,685,1307ZM325.33,860.75c-8.76,3.36-13.12,9.68-17.19,16.09-9.2,14.48-14.79,30.48-19.31,46.93-9.09,33.08-11,67-11.42,101-.4,31,0,62,.63,92.94.61,32.28,1.79,64.54,2.84,96.81.09,2.85,1,5.66,1.56,8.62a250,250,0,0,0,49.77,2c-1.7-3.64-2.78-6-3.91-8.36-6.85-14.21-11.6-29-13.16-44.8-2.83-28.58-3.77-57.29-1.05-85.83,3.84-40.44,9.54-80.69,13.69-121.1,2.42-23.49,3.81-47.11,4.8-70.71C333.05,883.09,331.65,871.76,325.33,860.75Zm212.23,505.84,1.93.34a43.42,43.42,0,0,0,1.46-4.39c2.49-11,5-22.06,7.36-33.12a1321.9,1321.9,0,0,0,24.18-155.78,148.89,148.89,0,0,0,.27-22c-.38-6.86-1.74-8.22-8.64-8.25-8,0-15.93.75-23.88,1.43-5.14.43-10.25,1.29-15.93,2,1.05,19.77,2.35,38.13,4.07,56.45,17.08-1.29,17.08-1.29,19.17,7.21l-18.69,7.8ZM881.39,1046l2.7-.27c-1.59-21.86-3.7-43.71-4.65-65.6q-3.65-83.85-6.36-167.75c-1.07-34-1.14-67.94-1.79-101.9-.09-4.74.35-9.67-1.79-15.42-6,7.07-8.16,14.42-8.91,21.85-2.17,21.52-4.41,43.08-5.3,64.68-3.21,77.92,6.57,154.9,18.09,231.7C875,1024.3,878.67,1035.06,881.39,1046ZM512.2,1235.2l-1.51-.31a35.87,35.87,0,0,0-2.43,4.68c-4.23,12.25-8.75,24.42-12.39,36.84-1.92,6.58-3.34,13.66-3.13,20.45,1.1,34.9,2.75,69.77,4.32,104.65.45,10.11,3.24,12.8,13.05,13.55,8.93.69,12.74-3.13,12.22-12.17q-3.75-65.72-7.51-131.44C514.11,1259.36,513.08,1247.28,512.2,1235.2ZM593.51,1079c2.85,6.18,7.86,7.1,12.8,7,7.64-.06,15.3-.59,22.9-1.38,21.18-2.18,42.29-5.51,63.53-6.74,47.52-2.76,95.1-4.48,142.65-6.74,11.2-.53,22.38-1.51,33.57-2.28C818.1,1055.06,630.4,1062.37,593.51,1079ZM542.73,909.64c-8,6.62-15.59,6.81-23.11,4.84-5.71-1.49-11.14-4.17-16.53-6.69-5.71-2.66-11.17-5.86-16.85-8.59-1.81-.87-4-1-7.28-1.74,5.53,15.49,11,29.31,18.74,42.13,1.7,2.82,3.91,5.34,5.89,8,3,4,6.91,5.15,11.44,3.35,7.4-2.92,14.79-5.92,22-9.35,1.66-.8,3.2-3.39,3.43-5.32C541.41,928.08,541.89,919.85,542.73,909.64ZM491,1263.25l2.94.66c5.88-13.11,11.75-26.21,18.4-41.06L491,1226.91Zm32.11,156.07c-8.77,0-9.36.34-10.48,6.56-2.2,12.3,1.24,22.92,10.06,31.72,1.14,1.14,3,1.54,5.56,2.75C526.43,1446,524.79,1433,523.08,1419.32Zm364.37-347.78c-14.13-3.33-26.22,1.48-38.37,2s-24,3-36,4.69C829.13,1079.81,879.91,1075.3,887.45,1071.54ZM462.18,1359.92c-12,17.09-11.66,24.61,0,28.39Zm78.1,149.1c6.51-11.83,6.19-19,0-26.69Z"/><path class="cls-3" d="M456.16,1395.6c3.79.28,6.38,2,6.57,6.05q1.31,27.9,2.42,55.81c0,.56-.6,1.14-1.58,2.88-7.24-2.21-15-3.89-22.22-7-9.69-4.14-12.64-11.15-9-21.09,2.24-6.17,5.83-11.87,9.06-17.64,1.94-3.46,4.35-6.67,6.54-10Z"/><path class="cls-3" d="M325.33,860.75c6.32,11,7.72,22.34,7.25,33.56-1,23.6-2.38,47.22-4.8,70.71-4.15,40.41-9.85,80.66-13.69,121.1-2.72,28.54-1.78,57.25,1.05,85.83,1.56,15.78,6.31,30.59,13.16,44.8,1.13,2.34,2.21,4.72,3.91,8.36a250,250,0,0,1-49.77-2c-.55-3-1.47-5.77-1.56-8.62-1.05-32.27-2.23-64.53-2.84-96.81-.58-31-1-62-.63-92.94.43-34,2.33-67.93,11.42-101,4.52-16.45,10.11-32.45,19.31-46.93C312.21,870.43,316.57,864.11,325.33,860.75Z"/><path class="cls-3" d="M685,1306.94c-6.54,5-13,10.09-19.65,15-9.59,7.17-19.07,14.52-28.95,21.27-6.36,4.35-8.28,3.58-11.92-2.62-17.07-29-32.1-59-43.19-90.87a44.84,44.84,0,0,1-2.39-19.56c2-20.52,3.75-41.07,5.63-61.61a16.33,16.33,0,0,1,.7-2.73c.77.09,1.6-.06,1.95.28q36,34.49,72,69.09c10.53,10.18,20.8,20.62,31.13,31a50.1,50.1,0,0,1,4.47,5.37c9.27,12.28,8.84,16.3-2.39,27-2.81,2.67-5.16,5.82-7.72,8.75Z"/><path class="cls-3" d="M537.56,1366.59l-8.7-148.22,18.69-7.8c-2.09-8.5-2.09-8.5-19.17-7.21-1.72-18.32-3-36.68-4.07-56.45,5.68-.75,10.79-1.61,15.93-2,8-.68,15.92-1.47,23.88-1.43,6.9,0,8.26,1.39,8.64,8.25a148.89,148.89,0,0,1-.27,22,1321.9,1321.9,0,0,1-24.18,155.78c-2.38,11.06-4.87,22.09-7.36,33.12a43.42,43.42,0,0,1-1.46,4.39Z"/><path class="cls-3" d="M881.39,1046c-2.72-10.89-6.36-21.65-8-32.71-11.52-76.8-21.3-153.78-18.09-231.7.89-21.6,3.13-43.16,5.3-64.68.75-7.43,2.92-14.78,8.91-21.85,2.14,5.75,1.7,10.68,1.79,15.42.65,34,.72,68,1.79,101.9q2.64,83.89,6.36,167.75c.95,21.89,3.06,43.74,4.65,65.6Z"/><path class="cls-3" d="M684.62,1307.3l8.24-3.77c1.87,3.4,3.33,7.18,5.75,10.19,3,3.78,6.34,7.94,10.49,10.13,10,5.28,15.81,3.51,21.83-6.15,4-6.46,6.93-13.62,10.67-20.27,4.68-8.33,8.74-17.26,18.16-22.25,6.71,4.93,6.57,12.11,6.22,18.87a35.41,35.41,0,0,1-8.38,21c-4.26,5.08-8.64,10.29-13.86,14.27-13.08,10-22.27,22.7-29,37.49-2.06,4.55-4.09,9.12-6.49,13.48-3.06,5.55-6.74,10.63-14.12,13.54-3.71-4-8-7.72-11.09-12.27a180.35,180.35,0,0,1-21.45-43.7c-1.76-5.31-.84-8.65,3.51-12,5.81-4.44,11.26-9.35,16.71-14.24,1.35-1.21,2.08-3.11,3.1-4.69Z"/><path class="cls-3" d="M512.2,1235.2c.88,12.08,1.91,24.16,2.62,36.25q3.84,65.71,7.51,131.44c.52,9-3.29,12.86-12.22,12.17-9.81-.75-12.6-3.44-13.05-13.55-1.57-34.88-3.22-69.75-4.32-104.65-.21-6.79,1.21-13.87,3.13-20.45,3.64-12.42,8.16-24.59,12.39-36.84a35.87,35.87,0,0,1,2.43-4.68Z"/><path class="cls-3" d="M593.51,1079c36.89-16.61,224.59-23.92,275.45-10.09-11.19.77-22.37,1.75-33.57,2.28-47.55,2.26-95.13,4-142.65,6.74-21.24,1.23-42.35,4.56-63.53,6.74-7.6.79-15.26,1.32-22.9,1.38C601.37,1086.08,596.36,1085.16,593.51,1079Z"/><path class="cls-3" d="M542.73,909.64c-.84,10.21-1.32,18.44-2.32,26.62-.23,1.93-1.77,4.52-3.43,5.32-7.16,3.43-14.55,6.43-22,9.35-4.53,1.8-8.47.63-11.44-3.35-2-2.65-4.19-5.17-5.89-8C490,926.77,484.49,913,479,897.46c3.3.76,5.47.87,7.28,1.74,5.68,2.73,11.14,5.93,16.85,8.59,5.39,2.52,10.82,5.2,16.53,6.69C527.14,916.45,534.78,916.26,542.73,909.64Z"/><path class="cls-3" d="M491,1263.25v-36.34l21.34-4.06c-6.65,14.85-12.52,28-18.4,41.06Z"/><path class="cls-3" d="M523.08,1419.32c1.71,13.65,3.35,26.71,5.14,41-2.53-1.21-4.42-1.61-5.56-2.75-8.82-8.8-12.26-19.42-10.06-31.72C513.72,1419.66,514.31,1419.35,523.08,1419.32Z"/><path class="cls-3" d="M462.18,1359.92v28.39C450.52,1384.53,450.18,1377,462.18,1359.92Z"/><path class="cls-3" d="M540.28,1509v-26.69C546.47,1490,546.79,1497.19,540.28,1509Z"/><path d="M536.17,799.63c-4.4-4.15-3.36-8.51-1.45-12.77.36-.81,2.27-1.51,3.25-1.28a3.73,3.73,0,0,1,2.37,2.58C540.65,792.35,540.81,796.67,536.17,799.63Z"/><path d="M1382.18,346.1c34.13-183.34-303.76-202.9-280.54-13.37C1121.06,470.35,1357.24,487.31,1382.18,346.1Z"/><path class="cls-5" d="M1350.45,399.84"/><path class="cls-6" d="M1218.63,204.59c117.7-12.53,208.23,129,100.83,210.7-160,98.52-288.35-151.76-100.83-210.7"/><path class="cls-7" d="M1245,288.7a9.88,9.88,0,0,0,1.66,0c21.94-5.63,35.91,4.49,37.11,27.17a63.62,63.62,0,0,1-13.84,43.81c-3.18,4.05-4.46,7.58-3.1,12.7a48.7,48.7,0,0,1,.41,24.74c-3.59,13.95-18.15,25.91-32.63,27.44a13.53,13.53,0,0,1-11.81-4.09,3.64,3.64,0,0,1-.77-3.71c.54-1.64,1.91-1.66,3.22-1.7,1,0,2,.25,3,.3,18.83,1,30.84-12.15,28.23-30.9a36.16,36.16,0,0,0-1.21-5.85,19.18,19.18,0,0,0-2.11-3.68c-10.18,4.05-20.38,6.22-31.3,4.27-22.35-4-35.94-24.86-30.14-46.82,4-15.12,12.87-27.69,21.1-40.61a36.21,36.21,0,0,1,2.94-4c8.6-10.14,14.18-21.33,14.13-35.12,0-7.69,2.81-15,5.74-22.12a40.51,40.51,0,0,1,3.69-7.06c2.18-3.28,5.26-5.32,9.35-4.12,3.69,1.09,5.06,4.26,5.17,7.77a42.65,42.65,0,0,1-.67,9.91c-1.14,5.55-2.55,11.28-5.8,15.87-5.7,8.07-5.89,16.73-4.41,25.79C1243.47,281.88,1242.94,285.34,1245,288.7Zm-18-3.21c-4,6.36-8,12.7-12,19.09-5.09,8.24-9.38,16.87-11.88,26.27-3,11.51-1.43,22.15,8.19,29.87,9.94,8,21.4,8.22,33,3.75,3-1.15,5.26-3.12,3.91-6.87-4-11-8-22.07-12.46-34.41-4.11,9.76,2,17.18,1.39,25.68-5.86-1.94-7.83-6.12-9.31-10.53a42.63,42.63,0,0,1,.65-30.26C1231.67,300.49,1229.76,293.39,1227.05,285.49Zm33.74,63.7c6.19-8.38,7.54-12.19,9.61-20.79a34,34,0,0,0-1.24-20.54c-3.05-8-10-10.85-17.74-7.71-3.43,1.39-5.38,3.07-4.22,7.48A379.9,379.9,0,0,0,1260.79,349.19Z"/><path d="M1384.65,641.1c34.13-183.34-303.77-202.9-280.54-13.37C1123.52,765.35,1359.71,782.31,1384.65,641.1Z"/><path class="cls-8" d="M1310,524.94l.15.12M1320,533c129.91,118-79.32,289.17-179,150.51C1060.65,577,1205.38,447.34,1302.1,519.07"/><path class="cls-7" d="M1324.24,588.24c-8.58,17.14-6,152.77-29.24,93.39-7-32.5,3.93-62.92,10.84-94.13.19-3.8.15-5.86-4.77-6.44-25.21-1.25-21.55-39.65-2.48-45.54,26-8.65,17.53,36.72,29.6,18C1358.93,535.5,1357.44,607.42,1324.24,588.24Zm-29.07-25.82c5.18,32.7,30.4-25.12,7.72-13.75A18.56,18.56,0,0,0,1295.17,562.42Zm42.54-.76c-6.51,4.09-10.48,17.13-1.86,20.23C1344.65,580.61,1343.64,566.77,1337.71,561.66Z"/><path class="cls-7" d="M1210.48,551.37c6.45,13.89,36.69,206.3-7.78,151.35-13.26-55-29.66-116.7-13.18-172.21C1197.31,503.21,1212.59,542.76,1210.48,551.37Zm4.43,150.25c0-38.13-6.87-80.5-7.42-120.26C1176.8,546.82,1204.17,691.35,1214.91,701.62Zm-10.34-139.87c-3.09-2.74.69-9.65-6.35-9.08C1187.31,556.41,1194.31,569.53,1204.57,561.75Z"/><path class="cls-7" d="M1252,578.39c11,6.53,22.74,201.51,0,134.58-13.86-40.78-14.82-88.06-13.63-134.17.22-8.68-21.32-27.58-24.28-40.38-1.79-7.72,5.92-19.08,12.52-25.63a31.14,31.14,0,0,1,5-4.17C1255.72,493.59,1254.12,569.78,1252,578.39Zm8.57,132.18c0-38.14-.81-108.29-10.36-121.34C1234.38,567.6,1249.84,700.29,1260.58,710.57ZM1245,571.25c-3.09-2.74-15.57-44-22.62-43.43C1211.5,531.56,1239.44,572.2,1245,571.25Z"/><path d="M1398.62,950.72c34.13-183.35-303.76-202.9-280.54-13.37C1137.5,1075,1373.68,1091.93,1398.62,950.72Z"/><path class="cls-9" d="M1329.55,834.56l.15.12m9.85,7.9c129.91,118.06-79.32,289.18-179,150.51-80.29-106.47,64.44-236.13,161.16-164.41"/><path class="cls-10" d="M1178.79,938c-3.63-2.06-4.74-4.13,0-6.24,10.73-.68,20.73-3.82,30.4-8.48,5-2.42,7.22-5.75,7.89-11.39a168,168,0,0,1,11.88-46.06c2.35-5.53,5.3-10.68,9.71-14.9,4.92-4.71,10.67-6.86,17.3-4.76,6.82,2.16,9.78,7.82,10.67,14.35,1.65,12.06-2.22,22.9-8.39,33.07-3.3,5.43-8,9.72-12,14.54-3.08,2.43-6,5.07-9.29,7.23-4.67,3.11-6.39,7.21-5.2,13.58,5.36-7,9.7-14.11,17.34-17.84,10.82-1.11,14.62,1.61,16.82,11.9,1.26,5.94.67,12,.89,17.92a91,91,0,0,0,.86,11.93c.49,2.88,1.45,6.12,4.85,7,3.73,1,6.4-1.29,8.54-4a26.84,26.84,0,0,0,6-13.49c.62-4.95,1.41-9.88,2.2-14.81a70.35,70.35,0,0,1,1.73-8.81c1.27-4.26,4.16-7.09,8.82-6.38s6.87,4.07,7,8.5a74.46,74.46,0,0,1-.9,10.92c-1.39,10.89-3,21.75-4.23,32.66-.44,4.15-1.46,10,2.7,11.75s7.6-3.1,10.52-6.13c9.29-9.66,15.69-21.47,23.64-32.14,3.7-5,6.78-10.59,13.33-13,1.76,4.4-.64,7.59-2.32,10.61-8.11,14.56-17.09,28.57-28.11,41.15-3.51,4-7.45,7.62-12.43,9.86-8.31,3.73-15,1.3-19.06-6.85-2.89-5.8-2.94-12.24-4.1-18.26-2.42-2-3.75.37-5.37,1.09-8.7,3.89-13.68,2.31-18.14-6-2.88-5.34-4.11-11.2-5.48-17-1.11-4.75-1-9.92-4.07-14.31-5.32,1.48-7.23,6-9.45,9.89-8,14-13.93,28.73-15.09,45.05a94,94,0,0,1-1.17,9.91c-.59,3.33-2.72,5.54-6.2,5.24-3.31-.29-5.36-2.54-5.76-5.92-.27-2.3-.28-4.65-.38-7a510.8,510.8,0,0,1,.22-52.42C1202.78,935.21,1191.05,938.09,1178.79,938Zm55.84-33.42c16.64-14,22.07-28.38,16.5-43.54C1241.16,874,1238.8,888.63,1234.63,904.61Z"/><path class="cls-11" d="M1295,891.14c0-6.06,3.93-10.74,9.19-11s9.9,4.44,10,10.18c.14,5.93-4.64,11.36-10.1,11.5S1295,897.68,1295,891.14Z"/><path d="M1409.39,1260.33c34.13-183.34-303.77-202.89-280.54-13.37C1148.27,1384.58,1384.45,1401.54,1409.39,1260.33Z"/><path class="cls-12" d="M1241.89,1119.71c117.7-12.52,208.23,129,100.83,210.71-160,98.52-288.35-151.77-100.83-210.71"/><path class="cls-13" d="M1261.29,1261.12a79.74,79.74,0,0,0-13.66,16.84c-1.55,17-15.66,26.27-24.35,38.82-4.43,8.62-22-3.63-17.5-11.43,4.76-9.84,12.59-18,18.73-27,1-1.31,2.26-3.33,3.48-3.39,12.18-1.15,21.2-19.12,28.12-26.29,5.86-5.54,2.55,6.63,0,0-3.94-10.24-13.19-33.56-15.13-44.42-6.61-30.62,9.66-71.91,46.09-68.24,49.69,3.67,1.26,92.37-16.14,112-3.53,4.38-4.78,8.32-1.84,13.5,3.43,6.08,6.35,12.45,9.53,18.67,1.64,3.21,3.52,5.69,7.73,3.27,3.94-2.27,7.15-.5,9.53,2.71,5.35,7.23,10.53,14.58,15.75,21.9,6.32,8.87-11.93,21.53-19.94,9.84-3.87-5.6-18.32-17.84-15.8-24.41,3-5.51.23-9.4-2.4-13.6C1269.66,1273.74,1267.55,1266.49,1261.29,1261.12Zm-.75-25.14c11.32-19,19.68-37.69,23-58.22.62-5.5,4.94-35.51-6.73-27.31C1254.74,1166,1248,1212.55,1260.54,1236Z"/><path d="M1409.39,1587.89c34.13-183.35-303.77-202.9-280.54-13.37C1148.27,1712.14,1384.45,1729.1,1409.39,1587.89Z"/><path class="cls-14" d="M1344.89,1471.73l.15.12m9.86,7.9c129.9,118.06-79.33,289.18-179.06,150.51-80.29-106.47,64.44-236.13,161.16-164.41"/><path class="cls-7" d="M1205.83,1553.1c7.69,0,12.71,4.78,12.75,12.11,0,8-7.15,17-13.78,17.26s-12-6.1-12.09-14.38C1192.54,1558.5,1197.27,1553.09,1205.83,1553.1Z"/><path class="cls-7" d="M1270,1553.1c7.69,0,12.71,4.78,12.74,12.11,0,8-7.14,17-13.78,17.26s-11.94-6.1-12.08-14.38C1256.66,1558.5,1261.39,1553.09,1270,1553.1Z"/><path class="cls-7" d="M1328.31,1553.1c7.69,0,12.71,4.78,12.75,12.11,0,8-7.15,17-13.78,17.26s-12-6.1-12.09-14.38C1315,1558.5,1319.75,1553.09,1328.31,1553.1Z"/></svg>