<?xml version="1.0" encoding="utf-8"?>
<svg id="master-artboard" viewBox="0 0 1400 570" version="1.1" xmlns="http://www.w3.org/2000/svg" x="0px" y="0px" style="enable-background:new 0 0 1400 980;" width="1400px" height="570px"><defs><style id="ee-google-fonts">@import url(https://fonts.googleapis.com/css?family=Anton:400|Roboto+Slab:100,300,400,700);</style><path id="text-path-0" d="M 778.8464965820312 213.4612274169922 A 100 18 0 0 1 988.3533935546875 213.4612274169922 A 100 18 0 0 1 778.8464965820312 213.4612274169922 Z" style="fill: none; stroke: red; stroke-width: 2;"/><path id="text-path-1" d="M 664.5464477539062 37.96122741699219 A 100 19 0 0 1 876.5812377929688 37.96122741699219 A 100 19 0 0 1 664.5464477539062 37.96122741699219" style="fill: none; stroke: red; stroke-width: 2;"/><path id="text-path-2" d="M 765.3650512695312 211.70851135253906 A 100 17 0 0 1 991.5017700195312 211.70851135253906 A 100 17 0 0 1 765.3650512695312 211.70851135253906" style="fill: none; stroke: red; stroke-width: 2;"/><path id="path-1" d="M 765.3650512695312 211.70851135253906 A 100 17 0 0 1 991.5017700195312 211.70851135253906 A 100 17 0 0 1 765.3650512695312 211.70851135253906" style="fill: none; stroke: red; stroke-width: 2;"/></defs><rect id="ee-background" x="0" y="0" width="1400" height="570" style="fill: white; fill-opacity: 0; pointer-events: none;"/>


<path style="fill: rgb(63, 61, 61); fill-opacity: 1; stroke: rgb(0, 0, 0); stroke-opacity: 1; stroke-width: 0; paint-order: fill;"/><path style="fill: rgb(63, 61, 61); fill-opacity: 1; stroke: rgb(0, 0, 0); stroke-opacity: 1; stroke-width: 0; paint-order: fill;"/><path d="M 880.3870239257812 239.90606689453125" style="fill: rgb(63, 61, 61); fill-opacity: 1; stroke: rgb(0, 0, 0); stroke-opacity: 1; stroke-width: 0; paint-order: fill;"/><path d="M 864.144775390625 229.48651123046875" style="fill: rgb(63, 61, 61); fill-opacity: 1; stroke: rgb(0, 0, 0); stroke-opacity: 1; stroke-width: 0; paint-order: fill;"/><path style="fill: rgb(63, 61, 61); fill-opacity: 1; stroke: rgb(0, 0, 0); stroke-opacity: 1; stroke-width: 0; paint-order: fill;"/><path style="fill: rgb(63, 61, 61); fill-opacity: 1; stroke: rgb(0, 0, 0); stroke-opacity: 1; stroke-width: 0; paint-order: fill;"/><path style="fill: rgb(63, 61, 61); fill-opacity: 1; stroke: rgb(0, 0, 0); stroke-opacity: 1; stroke-width: 0; paint-order: fill;"/><path style="fill: rgb(63, 61, 61); fill-opacity: 1; stroke: rgb(0, 0, 0); stroke-opacity: 1; stroke-width: 0; paint-order: fill;"/><g transform="matrix(0.36277642846107483, 0, 0, 0.36277642846107483, 419.58722425004953, 234.05563035669564)"><path class="cls-1" d="M267.21,792.11c5.44,7.67,4.36,28.81,6.12,39.78,1,6.22,3.16,15-3.84,17.41-6.19,4.74-15.22-8.22-16.87-10.64-16.19-2.16-18.07-92.07-15.86-104.36C237.87,728.07,287.66,772.38,267.21,792.11Z" style="fill: rgb(255, 255, 255);"/><path class="cls-2" d="M182,280.26c-3.22,4.72-3.37,9.71-1.69,15.06,5.9,18.79,12.88,37.13,22.8,54.2,2.65,4.57,6.23,8.62,9.51,12.81,9.06,11.55,29.87,7.76,33.56-7.16a179.15,179.15,0,0,0,5-28.44c1.09-15.7.66-30.83.79-46.69a1,1,0,0,1,.71-1L276,271.48a1,1,0,0,1,1.34.73C280,283,280,293.28,279.39,303.42c-1.93,32-8.86,96.43-28.37,122-.31.41-1.18,2.5-1.63,2.24-44.69-25.91-86.13-56.52-110.65-104.25a1,1,0,0,0-1.53-.35h0a1,1,0,0,0-.31,1.25c14.91,33.09,61.4,48.09,66.33,84.25,1,7.15,2.34,17.12,3.13,29.27.4,6.25,2.47,2.16.78,17.69,0,.47.41,4.59-.06,4.66-5,.75,7.28-.55,2,0-32.83,3.69-43.37,7.91-75.65,14.61-13.29,2.76-27,3.63-40.57,4.92a50.13,50.13,0,0,1-8.72-.14,1,1,0,0,0-.37,2c5.82,1.59,11.66,1.66,17.3,1.67,49,0,97.19-8.94,146.05-10.93a1,1,0,0,1,1.08,1c.68,18.59,1.36,36.86,2,55.46a1,1,0,0,1-.66,1,35.22,35.22,0,0,1-6.21,2.23c-28.5,5.11-56.88,11.26-85.59,14.74-19.38,2.35-39.23,1.21-58.86.91-3.81-.06-8.1-2.82-11.23-5.44-9.61-8.09-14.2-18.87-16-31.26-8-51.84,5.36-102.08,23.76-150.14,9.53-26.38,16.86-53.36,28.61-78.9a1,1,0,0,1,1.15-.59l3.63.72.93-3-.8-.35a1,1,0,0,1-.6-1.1c.5-3.14,1-6.33,1.51-9.51l-.32.38c6.34-12.43,10.27-24.55,15.16-38a1,1,0,0,1,1.5-.56c4.06,2.33,7.3,5.4,12.11,2.77s5.89-6.95,7.37-11.32c1.58-4.67,3-9.39,4.57-14.37a1.05,1.05,0,0,1,1.32-.68c4.13,1.36,7.56,2.77,11.14,3.41,9,1.67-13.49,17-26.6,17-5.67,0-14.54-10.39-16.7-16-1.92-5-4.64-10.56-7.12-16.4-.55-1.3-2.87-13.16-3.36-14.49-.35-.92-15,3.68-11.67-1.27.16-.23-4.08,2.15-4.15,1.87-3.21-13,9.74-50.13,5.32-58.52-3.82-7.23-25.11,13.91-27.1,7.78-2.06-6.54,8.34-46.16,11.69-46.76,5.79-1,.2-8.63,2.92-5,1.59,2.1,30.48-43.19,32.15-41.18,1,1.27-19.49-5.23-17.38-4.18,1.7-8.19,19.29-10.27,22.63-17,4.34-8.72,35.78-8,29.65-8C181.76,4.09,197,3.3,207.76,6.9c.3.1,4.31,7.22,4.56,7,3.19-2.63,34.48-9.53,42.81-8.61,6.52.72,11.72.87,17.47,4.1,15.88,8.91,21.76,15.08,24.82,20.4,3.45,6,6.88,8.35,7.59,15.43,1.37,13.65,11,31.28,1.56,35.38a1,1,0,0,0-.64.92c-1.05,33.18-15.59,65,23.88,79a1,1,0,0,1,.2,1.82c-14.24,9.28-26,20.49-38.63,31.7-5.57,5-6.68,5.41-12.84,1.27-16.35-10.75-20.33-29.22-24.43-47.17a1,1,0,0,0-1.6-.61c-5.08,3.68-4.33,8.29-2.92,12.78,5.46,17.46,14.27,32.28,32.16,39.71a5.37,5.37,0,0,1,1.35,1.19,1,1,0,0,1,0,1.41l-25.72,28.58a1.05,1.05,0,0,1-1.26.23c-8.56-4.46-16.47-8.74-24.53-12.69s-16.21-8.75-26-5a1.06,1.06,0,0,0-.66.81c-1.62,9.52,4,17.36,5.93,26.58a1,1,0,0,1-1.21,1.2c-11.31-2.17-15.37-13.68-24.1-20.61a1,1,0,0,0-1.68.74c-.41,5.35,2.32,7.61,4.41,9.7,3.87,3.89,5.56,4.46,4.09,9.49-3.44,11.8-7.77,27-10.68,38.93Zm92.82-158.62a1.06,1.06,0,0,0,1.41.12c3.85-2.93,3.7-7,3.41-10.94a3.75,3.75,0,0,0-2.38-2.58c-1-.23-2.88.47-3.24,1.28C272.16,113.56,271.13,117.69,274.77,121.64Z" style="fill: rgb(252, 251, 250);"/><path d="M195.15,718.47c-2.52-2.59-4.9-5.31-7.57-7.73-10.76-9.76-12-15.17-5.67-28,5-10.16,9.85-20.43,15.5-30.22a55.94,55.94,0,0,0,7.9-25.41c1.23-22,2.84-43.88,4.26-65.82.12-1.94,0-3.89,0-6-27,3.31-53.25,8.2-79.64,9.29s-53.13-1.6-81-2.68c-.4,10.89-1.52,22.11-1.09,33.27,1.61,42.6,2.88,85.25,5.91,127.76,2.38,33.54,7.33,66.89,10.77,100.36C66,837.49,67,851.81,67.27,866.11c.27,13.67-5.63,17.93-18.9,15.3-13.71-2.72-21.91-11-24-24.69-3.05-20.07-6.31-40.16-8.14-60.36-3.79-41.93-3.68-84,2.1-125.68,4.38-31.62,11.11-62.92,16.81-94.36.93-5.17,1.94-10.33,3-16-5.36-1.38-9.81-2.42-14.2-3.67-3.84-1.1-6-3.4-6.51-7.76C16.21,537,14.76,525.13,13,513.32,4.7,457.23-1.42,401,.29,344.14c1.15-38.4,4-76.56,17.42-113.07,6.24-17,13.8-33.35,27.08-46.15,10.6-10.24,26.77-7.49,33.57,5.65a51.2,51.2,0,0,1,5,15.09c1.28,7.86,2.4,15.93,2,23.83-1.2,24.61-2.72,49.22-4.93,73.75-1.86,20.56-4.86,41-7.31,61.52a6.15,6.15,0,0,0,1.22,4.69c1.24-2.95,2.38-5.94,3.74-8.83C88.73,338.05,99.23,315.4,110.24,293c3-6.13,6.69-12,14.1-14.79,2.65-1,5.23-12.53,7-15.93-.54,3.44-2.7,13-3.24,16.4,3.63,1.6,47.71,8.58,50.88,10-.1.34.14,1.48,0,1.82-4.12-.81-49.5-8-54.76-9-2.7,6.22-5.68,12.11-7.85,18.29-7.19,20.4-14.06,40.91-21.1,61.36-4,11.65-8.35,23.18-12.14,34.9C71,433.56,66,471.84,71.52,511.24c1.75,12.39,6.34,23.18,16,31.26,3.13,2.63,7.42,5.38,11.22,5.44,19.64.3,39.49,1.45,58.87-.91,28.7-3.48,57.09-9.63,85.59-14.74,2.17-.39,4.22-1.5,6.9-2.49-.71-19.2-1.41-38-2.11-57.24-3.54,0-6.13-.21-8.69,0-32.17,3-64.31,6.26-96.5,9-13.92,1.2-27.93,1.91-41.9,1.91-7.77,0-15.9-.15-23.87-4.17,5.8.27,10.79,1.09,15.66.63,13.56-1.29,27.27-2.16,40.57-4.92,22.24-4.61,47.44-10.64,69.81-14.51.86-.15-1.57-49.73,1-50.15,3.39-.56,4,50,5.09,49.84,8.12-1.33,13.09-2.17,21.29-3.09,5.52-.62,11-1.59,16.23-2.36,1.85-16.23-.3-19.28-13-25.95A206.23,206.23,0,0,1,204,410.41c-3.67-2.81-3.79-2.71-7.21-5.71-22.76-19.94-43.81-47.18-57.76-74.32-1.09-2.11-1.85-4.38-2.76-6.58l1.62-1.23c24.59,48.66,67,77.57,112.29,103.8,7.81-9.57,11.3-20.32,14.41-31.18,8.57-29.92,12.78-60.57,14.51-91.56.58-10.47.66-21.07-2.34-32.28l-25.09,8.16c0,3.91,0,7.2,0,10.49-.18,12.32.2,24.69-.78,36.94a179,179,0,0,1-5,28.44c-3.69,14.92-24.5,18.71-33.56,7.16-3.28-4.19-6.86-8.24-9.51-12.8-9.92-17.08-16.9-35.42-22.8-54.21-1.68-5.34-1.53-10.34,1.7-15.07.14,1.3-.08,2.79.46,3.9,2.69,5.56,6.14,10.82,8.31,16.57,6.46,17.17,13.47,34,23.91,49.24,3.76,5.5,7.94,10.59,14.13,13.55,7.33-10,12.12-56.73,9.08-87.49-9.47-4.35-14.35-13.18-19.71-21.63-1.38-2.17-2.83-4.92-4.94-5.88-5.59-2.55-11.56-4.27-18.05-6.56-1.92,6.12-3.55,11.84-5.52,17.44-2.5,7.12-5.28,14.13-7.94,21.18,2.91-11.95,5.46-24,8.9-35.8,1.47-5,1.56-8.72-2.32-12.61-2.3-2.32-5.4-4.85-4.15-11.51,10.14,7,13.92,20.42,27,21.9-1.61-10-8.14-18.32-6.08-28.6,10.07-4.12,18.31.76,26.57,4.81s16.42,8.46,25.26,13.05l26.92-29.91c-1.15-1.07-1.52-1.65-2-1.86-17.89-7.44-26.71-22.26-32.16-39.71-1.51-4.84-2.28-9.81,4.19-13.61,1.51,6.19,2.74,11.93,4.32,17.58,3.49,12.5,9.31,23.55,20.44,31,6.16,4.14,7.27,3.76,12.83-1.27,8.64-7.8,17.39-15.49,26.34-22.94,4.27-3.55,9.1-6.43,14.09-9.9-23.67-8.76-30.59-19.3-29.13-44.12.49-8.3,1.75-16.55,2.57-24.84.34-3.48.44-7,.7-11.38-12.59-.35-20.93-6.36-27.58-18.39-1.35,6.79-2,11-3,15.07-2,8-5.59,9.77-13.14,6.27-2.78-1.29-5.25-3.24-8.11-5-1.29,4.92-2.36,9-3.35,12.79-12.58,2.72-20.25-5.74-28-10.41-3.27,7.45-6.84,14.09-9.08,21.15s-3.22,14.69-4.93,22.88c-2.11-1.05-4.17-1.47-5.22-2.74-1.67-2-2.39-4.78-4-6.88-2.72-3.59-4.81-8.61-10.6-7.58-3.35.59-5.36,6.86-3.31,13.4,2.38,7.54,5.83,14.78,9.3,21.92,2.72,5.59,6.17,10.82,9.2,16-5,5.81-10.4,2.87-16.57,2.21,2.83,7.31,5.21,13.44,7.57,19.57,2.15,5.59,4.75,11.06,6.32,16.81,1.95,7.21-.42,10.77-7.82,12.12a31.13,31.13,0,0,1-10.8-.27c-3.86-.69-7.56-2.28-12.14-3.73-1.7,5.35-3.21,10.39-4.89,15.37-1.48,4.37-2.62,8.73-7.37,11.32-5.23,2.86-8.61-1-13.2-3.36-3.32,9.14-6.24,17.56-9.47,25.87-1.77,4.54-4.05,8.89-6.11,13.32l12.71-42.88c-5.44-13.45-11-27.2-17.44-43.19-.45,5.22-.86,8.57-1,11.92-.19,4.66-.33,9.34-.18,14,.16,5.17-2,8.17-8.18,8.9-12.51-31.59-11.27-63.19.54-95l-2-.86c-4.8,4-9.63,7.93-14.39,12-1.77,1.5-3.16,3.92-5.17,4.59-2.94,1-6.53,1.59-9.35.73-1.42-.43-2.52-4.44-2.48-6.82C83,94.25,95.34,62.31,129,41.38a64.53,64.53,0,0,0,5.14-4.07c-9.67-2.84-19.76,1.7-28.33-6.08,2.66-2.5,4.79-4.93,7.33-6.83C137,6.46,163.89-1.77,193.71.32c7.93.55,16,1.42,21.56,9.24,11.5-5.48,22.66-6.07,39.86-4.25-6.21.37-10.42.48-14.59.9-10.62,1-19.67,5.83-28.21,11.89-3.41,2.42-6.85,5.91-12.15,1.53l7-12.35c-19.8-7.66-66.9,6-87.59,25.46L149,35.93c-2.55,3.49-3.58,5.49-5.13,6.91-3.2,2.91-6.59,5.62-10,8.23C117,63.81,106.07,80.54,100.68,100.86c-2.45,9.21-4.41,18.55-6.87,29,12.56-4.52,19-18.82,34.78-15-1.3,4.71-2.1,8.83-3.58,12.69a131.21,131.21,0,0,0-8.58,50.87c6-4.25,2.91-13.8,10.65-15.92,4.54,32.18,14.46,55.24,28,64.36.77-4.73,1.38-9.24,2.26-13.69,2.46-12.55,11.33-16.61,22.86-10.6,3.19,1.67,6.44,3.23,10.26,5.13,1.63-5.19-1.44-8.23-2.83-11.65-4.86-12-10-23.89-14.54-36-1.71-4.58-2-9.67-3.06-15l8.55-3.92c-1.57-4-3.35-7.92-4.63-12-2.39-7.6-3.35-15.23,3.48-21.25,5.19-4.57,14.39-4.17,22.47.49,1.06.6,2.12,1.22,2.55,1.47,3.79-7.74,7.53-15,10.9-22.47.9-2,.78-4.52.88-6.81.13-3.27,0-6.54,0-9.69,5.84-2.06,8.27,2,10.92,5.34a44.53,44.53,0,0,0,18,13.82c3.76-5.17,2.18-10.59,2-15.78-.2-4.92-.68-9.82-1-14.69,9.61-.74,10.76-.16,14.18,6.7,2.19,4.4,4.36,8.8,7.39,14.93,6-10.39,4.26-20.74,7.14-30.2,5.6-.94,9,1.72,11.53,6,2.89,4.87,5.45,9.95,8.57,14.66,2.78,4.2,6,8.31,12.6,5.77,2-13.91-.06-27.78-3.67-41.12C311.07,51.61,312.11,69,312.9,86.44c.75,16.29,1.82,32.57,3,48.84a38.3,38.3,0,0,0,2.57,11.66c2.66,6.44,7.16,11.12,14.69,11.93,2.23.24,4.39,1,8.36,2-30.19,20.92-52.65,47.7-77.44,73.72,4.59.93,7-1.14,9.2-3.26,2.41-2.3,4.57-4.85,6.85-7.27,3.14-3.33,6.67-4.11,11.41-1.38-.45,2.41-.86,4.93-1.4,7.43q-2.5,11.72-5.09,23.43c-1.07,4.83-2.3,9.25,2.05,13.79,2.14,2.24,2.18,6.83,2.49,10.41,2.05,23.45-.73,46.64-5,69.57-3.44,18.3-7.87,36.45-12.8,54.41-4,14.45-8.1,20.26-17,28.69,2.15.59,3.9,1.63,5.47,1.42q39.11-5.33,78.16-10.95c.57-.08,1.06-.72,1.3-.89-3.74-5.78-8.06-11.24-11-17.36-3.71-7.61-2.14-11.38,6.13-13.27,15.23-3.49,30.62-6.51,46.08-8.75a852.51,852.51,0,0,1,119.51-9.24c38-.14,76,1.69,113.31,9.81,1.94.42,3.91.79,5.88,1a2,2,0,0,0,1.17-.42c-6.57-19.91-13.41-39.68-19.61-59.64-21.41-68.95-27-139.77-23.59-211.46,1-21.57,3.8-43.09,6.45-64.56,1.53-12.4,6.7-23.63,14.33-33.67,2.82-3.71,6.24-5.82,10.95-5.92,4.92-.1,8.61,1.73,9.81,6.67A75,75,0,0,1,621.62,28c1.56,41.62,2.69,83.26,4.34,124.87q3.28,83.4,7.17,166.77c1,23,2.63,45.9,3.94,68.85.13,2.3,0,4.62,0,7.63,14.7-.54,29.61-1.2,44.51-1.61,9-.24,18-.39,27,0,6.4.28,7.07,1.82,6.78,8.23-1.83,41.27-4.45,82.53-5.12,123.81-1.33,82.67,2.88,165.25,6.4,247.81,1.32,30.85,4.42,61.63,6.05,92.73-1.41-6.44-3.12-12.83-4.19-19.32C713.28,815.85,707.64,784,703.32,752c-2.76-20.44-4-41.13-5-61.75-3-61.93-3.92-123.92-1.84-185.9,1-31.28,4-62.5,6.06-93.74.11-1.64.18-3.29.33-6.17-5.11,0-9.94-.39-14.7.06-28.18,2.7-56.34,5.68-84.53,8.41q-87.54,8.46-175.1,16.76c-52.14,4.92-104.48,5.19-156.77,6.41-3.59.08-7.19,0-12,0,.74,6.14,1.31,11,2,16.78H273.7c6,0,12-.17,18,.14,13,.68,22.52,7.13,29.49,17.94a48.85,48.85,0,0,0,8.14,9.85c28.47,25.65,57.24,51,85.55,76.78a256.33,256.33,0,0,1,25.34,26.86c10.77,13.15,10.2,19.29-.82,32.41-1.26,1.5-2.4,3.08-4.07,5.23l13.86,22.51c6.87-1,9.74-5.22,12.39-9.33,4.69-7.28,8.82-14.92,13.57-22.16a78.21,78.21,0,0,1,10.42-13.33c8.09-7.88,18.83-6.39,24.24,3.62,6.94,12.82,5.92,25.8-2.37,37.74a66,66,0,0,1-12.21,13.1c-11.07,9-18.88,20.31-25.67,32.78A106,106,0,0,1,452,711c-11.78,11.81-24.07,10.06-33.48-3.82-9.63-14.21-15.21-30.28-20.21-46.56-.38-1.26-.71-2.53-1.32-4.74-2.53,1.51-4.72,2.68-6.76,4.07-6.88,4.7-13.49,9.81-20.58,14.15-12.15,7.41-16.63,5.9-22.37-6.84a92,92,0,0,1-3.64-9.28q-12.31-38-24.51-76.07a11.41,11.41,0,0,0-3.67-5.75c-.7,3.29-1.53,6.57-2.08,9.88-6.7,40.44-14.44,80.66-25.75,120.11-1,3.51-1.86,7.26-3.74,10.3-6,9.69-5.66,20.14-5.22,30.91.46,11.64.21,23.32-.23,35-.2,5.3,1.36,8.37,6.16,11.14,13.67,7.88,16.47,15.14,10.84,29.91a72.74,72.74,0,0,1-11.68,19.49c-3.23,4-4.67,7.58-4.33,12.54a61.94,61.94,0,0,1-1.07,16.73c-.72-5.53-1.39-11.08-2.17-16.6-.58-4.07-.65-4.06-6.69-6.26,4.57-3,5.2-7.12,4.54-12-1.62-12.21-3.09-24.45-4.11-36.73-.49-6-4.28-8.51-8.84-10.95-11.23-6-17.23-15.86-18.06-28.17-.43-6.38,1.82-12.94,3-20.45l-7-2.57c-.68,1.33-1.5,2.16-1.45,2.93.77,11.3,1.41,22.61,2.56,33.87,1.46,14.25,3.59,28.43,5,42.68,1.36,13.77,7.68,24.34,19.75,32.51-6.5,2.4-11.09-1.84-17.06-3.27-.76,5.2-1.29,10.36-2.31,15.41-1,4.84-1.7,10.16-8,11.35s-12.28.16-16.07-5.38A34.94,34.94,0,0,1,215.8,856c-3-15.35-5.26-30.82-7.77-46.25a73.42,73.42,0,0,1-1.4-10.89c0-6.63-3.38-10.45-9.34-12.51-5-1.74-10.11-3.36-15-5.34a61.25,61.25,0,0,1-11.62-5.66c-5.8-3.95-8.29-9.79-5.86-16.59,4.43-12.42,11.39-23.2,22.17-31.19-2.2,3.33-4.6,6.53-6.54,10-3.23,5.77-6.82,11.47-9.07,17.63-3.63,9.94-.68,17,9,21.09,7.2,3.07,15,4.76,22.23,7,1-1.74,1.6-2.33,1.58-2.89q-1.14-27.9-2.43-55.8C201.52,720.5,198.94,718.76,195.15,718.47ZM424,629.83c-1,1.58-1.76,3.47-3.11,4.69-5.44,4.88-10.9,9.79-16.7,14.23-4.35,3.33-5.27,6.68-3.52,12a180,180,0,0,0,21.46,43.7c3,4.55,7.37,8.24,11.08,12.27,7.39-2.91,11.06-8,14.12-13.53,2.41-4.36,4.44-8.94,6.49-13.48,6.69-14.8,15.88-27.52,29-37.5,5.22-4,9.61-9.18,13.86-14.26a35.37,35.37,0,0,0,8.38-21c.35-6.76.49-13.95-6.22-18.88-9.42,5-13.48,13.92-18.15,22.25-3.74,6.66-6.65,13.81-10.67,20.27-6,9.67-11.85,11.44-21.84,6.16-4.14-2.2-7.44-6.36-10.49-10.14-2.42-3-3.88-6.78-5.74-10.18l-8.25,3.77c2.57-2.93,4.92-6.08,7.73-8.75,11.23-10.69,11.66-14.71,2.39-27a53.68,53.68,0,0,0-4.47-5.37c-10.34-10.37-20.61-20.81-31.13-31q-35.88-34.68-72-69.1c-.36-.34-1.19-.18-1.95-.28a17.51,17.51,0,0,0-.71,2.74c-1.87,20.53-3.63,41.08-5.62,61.6a45,45,0,0,0,2.38,19.56c11.1,31.88,26.12,61.86,43.19,90.88,3.65,6.2,5.56,7,11.93,2.61,9.88-6.75,19.36-14.09,28.95-21.26C410.9,639.9,417.4,634.83,424,629.83ZM64.31,183.63c-8.76,3.35-13.11,9.68-17.18,16.08-9.21,14.48-14.8,30.49-19.32,46.94-9.08,33.07-11,67-11.42,101-.39,31,.05,62,.64,92.94.61,32.28,1.79,64.55,2.83,96.82.1,2.84,1,5.66,1.57,8.62a249.19,249.19,0,0,0,49.77,2c-1.71-3.64-2.79-6-3.92-8.36-6.85-14.21-11.6-29-13.16-44.79-2.83-28.59-3.76-57.29-1-85.84,3.85-40.43,9.54-80.69,13.7-121.1,2.42-23.49,3.8-47.11,4.8-70.71C72,206,70.64,194.64,64.31,183.63ZM276.55,689.47l1.92.33a44.16,44.16,0,0,0,1.47-4.38c2.49-11,5-22.07,7.36-33.13a1321.23,1321.23,0,0,0,24.17-155.78,148.75,148.75,0,0,0,.27-21.94c-.38-6.87-1.73-8.23-8.64-8.26-8,0-15.93.76-23.87,1.43-5.15.43-10.26,1.3-15.93,2,1,19.78,2.35,38.14,4.06,56.45,17.09-1.28,17.09-1.28,19.17,7.22l-18.68,7.79ZM620.38,368.83l2.69-.27c-1.58-21.87-3.69-43.71-4.64-65.6q-3.64-83.86-6.37-167.76c-1.07-33.95-1.14-67.93-1.78-101.9-.09-4.74.35-9.66-1.79-15.41-6,7.06-8.17,14.42-8.92,21.84-2.16,21.53-4.4,43.08-5.29,64.68-3.21,77.92,6.56,154.91,18.08,231.7C614,347.17,617.66,357.93,620.38,368.83ZM251.19,558.08l-1.52-.32a35.29,35.29,0,0,0-2.42,4.69c-4.23,12.24-8.76,24.41-12.39,36.83-1.93,6.58-3.35,13.66-3.13,20.46,1.09,34.89,2.74,69.77,4.31,104.65.46,10.1,3.24,12.79,13.06,13.55,8.93.68,12.74-3.13,12.22-12.17q-3.75-65.73-7.51-131.45C253.1,582.23,252.07,570.16,251.19,558.08Zm81.3-156.23c2.85,6.18,7.86,7.1,12.81,7.06,7.64-.06,15.29-.6,22.89-1.38,21.19-2.19,42.3-5.51,63.53-6.75,47.52-2.76,95.1-4.48,142.65-6.73,11.21-.53,22.39-1.51,33.58-2.29C557.09,377.93,369.39,385.24,332.49,401.85ZM281.71,232.52c-7.94,6.61-15.59,6.8-23.11,4.84-5.7-1.49-11.14-4.18-16.53-6.69-5.71-2.67-11.16-5.87-16.84-8.59-1.81-.87-4-1-7.28-1.74,5.52,15.48,11,29.3,18.74,42.13,1.7,2.82,3.91,5.33,5.89,8,3,4,6.91,5.15,11.44,3.36,7.39-2.93,14.78-5.92,22-9.36,1.65-.79,3.19-3.39,3.43-5.32C280.39,251,280.88,242.72,281.71,232.52ZM230,586.12l2.94.66,18.39-41L230,549.79ZM262.07,742.2c-8.77,0-9.37.33-10.48,6.56-2.2,12.29,1.24,22.92,10.06,31.71,1.14,1.14,3,1.54,5.56,2.76C265.41,768.9,263.78,755.85,262.07,742.2ZM626.44,394.42c-14.13-3.33-26.23,1.48-38.37,2s-24,3-36,4.68C568.12,402.69,618.89,398.18,626.44,394.42ZM201.17,682.8c-12,17.09-11.67,24.61,0,28.39Zm78.09,149.09c6.51-11.82,6.19-19,0-26.69Z"/><path class="cls-1" d="M195.15,718.47c3.79.29,6.37,2,6.56,6.06q1.31,27.9,2.43,55.8c0,.56-.6,1.15-1.58,2.89-7.24-2.21-15-3.9-22.23-7-9.69-4.13-12.64-11.15-9-21.09,2.25-6.16,5.84-11.86,9.07-17.63,1.94-3.47,4.34-6.67,6.54-10Z" style="fill: rgb(255, 255, 255);"/><path class="cls-1" d="M64.31,183.63c6.33,11,7.73,22.33,7.26,33.55-1,23.6-2.38,47.22-4.8,70.71-4.16,40.41-9.85,80.67-13.7,121.1-2.71,28.55-1.78,57.25,1,85.84,1.56,15.78,6.31,30.58,13.16,44.79,1.13,2.35,2.21,4.72,3.92,8.36a249.19,249.19,0,0,1-49.77-2c-.56-3-1.47-5.78-1.57-8.62-1-32.27-2.22-64.54-2.83-96.82-.59-31-1-62-.64-92.94.43-34,2.34-67.93,11.42-101,4.52-16.45,10.11-32.46,19.32-46.94C51.2,193.31,55.55,187,64.31,183.63Z" style="fill: rgb(255, 255, 255);"/><path class="cls-1" d="M424,629.82c-6.55,5-13.05,10.08-19.65,15-9.59,7.17-19.07,14.51-28.95,21.26-6.37,4.35-8.28,3.59-11.93-2.61-17.07-29-32.09-59-43.19-90.88a45,45,0,0,1-2.38-19.56c2-20.52,3.75-41.07,5.62-61.6a17.51,17.51,0,0,1,.71-2.74c.76.1,1.59-.06,1.95.28q36,34.5,72,69.1c10.52,10.17,20.79,20.61,31.13,31a53.68,53.68,0,0,1,4.47,5.37c9.27,12.28,8.84,16.3-2.39,27-2.81,2.67-5.16,5.82-7.73,8.75Z" style="fill: rgb(255, 255, 255);"/><path class="cls-1" d="M276.55,689.47l-8.7-148.23,18.68-7.79c-2.08-8.5-2.08-8.5-19.17-7.22-1.71-18.31-3-36.67-4.06-56.45,5.67-.74,10.78-1.61,15.93-2,7.94-.67,15.92-1.47,23.87-1.43,6.91,0,8.26,1.39,8.64,8.26a148.75,148.75,0,0,1-.27,21.94A1321.23,1321.23,0,0,1,287.3,652.29c-2.38,11.06-4.87,22.09-7.36,33.13a44.16,44.16,0,0,1-1.47,4.38Z" style="fill: rgb(255, 255, 255);"/><path class="cls-1" d="M620.38,368.83c-2.72-10.9-6.36-21.66-8-32.72-11.52-76.79-21.29-153.78-18.08-231.7.89-21.6,3.13-43.15,5.29-64.68.75-7.42,2.92-14.78,8.92-21.84,2.14,5.75,1.7,10.67,1.79,15.41.64,34,.71,68,1.78,101.9q2.66,83.9,6.37,167.76c1,21.89,3.06,43.73,4.64,65.6Z" style="fill: rgb(255, 255, 255);"/><path class="cls-1" d="M423.6,630.18l8.25-3.77c1.86,3.4,3.32,7.18,5.74,10.18,3.05,3.78,6.35,7.94,10.49,10.14,10,5.28,15.81,3.51,21.84-6.16,4-6.46,6.93-13.61,10.67-20.27,4.67-8.33,8.73-17.25,18.15-22.25,6.71,4.93,6.57,12.12,6.22,18.88a35.37,35.37,0,0,1-8.38,21c-4.25,5.08-8.64,10.28-13.86,14.26-13.07,10-22.26,22.7-29,37.5-2,4.54-4.08,9.12-6.49,13.48-3.06,5.54-6.73,10.62-14.12,13.53-3.71-4-8-7.72-11.08-12.27a180,180,0,0,1-21.46-43.7c-1.75-5.3-.83-8.65,3.52-12,5.8-4.44,11.26-9.35,16.7-14.23,1.35-1.22,2.09-3.11,3.11-4.7Z" style="fill: rgb(255, 255, 255);"/><path class="cls-1" d="M251.19,558.08c.88,12.08,1.91,24.15,2.62,36.24q3.84,65.71,7.51,131.45c.52,9-3.29,12.85-12.22,12.17-9.82-.76-12.6-3.45-13.06-13.55-1.57-34.88-3.22-69.76-4.31-104.65-.22-6.8,1.2-13.88,3.13-20.46,3.63-12.42,8.16-24.59,12.39-36.83a35.29,35.29,0,0,1,2.42-4.69Z" style="fill: rgb(255, 255, 255);"/><path class="cls-1" d="M332.49,401.85c36.9-16.61,224.6-23.92,275.46-10.09-11.19.78-22.37,1.76-33.58,2.29-47.55,2.25-95.13,4-142.65,6.73-21.23,1.24-42.34,4.56-63.53,6.75-7.6.78-15.25,1.32-22.89,1.38C340.35,409,335.34,408,332.49,401.85Z" style="fill: rgb(255, 255, 255);"/><path class="cls-1" d="M281.71,232.52c-.83,10.2-1.32,18.44-2.31,26.61-.24,1.93-1.78,4.53-3.43,5.32-7.17,3.44-14.56,6.43-22,9.36-4.53,1.79-8.47.63-11.44-3.36-2-2.65-4.19-5.16-5.89-8C229,249.64,223.47,235.82,218,220.34c3.29.75,5.47.87,7.28,1.74,5.68,2.72,11.13,5.92,16.84,8.59,5.39,2.51,10.83,5.2,16.53,6.69C266.12,239.32,273.77,239.13,281.71,232.52Z" style="fill: rgb(255, 255, 255);"/><path class="cls-1" d="M230,586.12V549.79l21.33-4.06-18.39,41Z" style="fill: rgb(255, 255, 255);"/><path class="cls-1" d="M262.07,742.2c1.71,13.65,3.34,26.7,5.14,41-2.53-1.22-4.42-1.62-5.56-2.76-8.82-8.79-12.26-19.42-10.06-31.71C252.7,742.53,253.3,742.23,262.07,742.2Z" style="fill: rgb(255, 255, 255);"/><path class="cls-1" d="M201.17,682.8v28.39C189.5,707.41,189.16,699.89,201.17,682.8Z" style="fill: rgb(255, 255, 255);"/><path class="cls-1" d="M279.26,831.89V805.2C285.45,812.87,285.77,820.07,279.26,831.89Z" style="fill: rgb(255, 255, 255);"/><path d="M275.15,122.5c-4.4-4.14-3.35-8.5-1.44-12.77.36-.8,2.27-1.5,3.24-1.28a3.73,3.73,0,0,1,2.37,2.58C279.63,115.23,279.79,119.54,275.15,122.5Z"/></g><g transform="matrix(1.0136641263961792, 0, 0, 1.0136641263961792, 4.715012386752392, 1.7967839619946204)"><path class="cls-1" d="M162.15,364.48c2.54-21.52,4.67-42.89,3.2-64.47-.19-2.85-2.06-5.58-3.13-8.38-11.92-31.12-23-62.51-29.76-95.24a166.82,166.82,0,0,1-3.71-32.73c0-5,0-10,2.23-14.69,4-8.5,12.21-9.83,18.48-2.91,3.68,4.05,5.49,9.11,7.07,14.21,5.44,17.57,8.2,35.7,10.67,53.85,2.33,17.16,4.28,34.39,4.73,51.73.18,7.17,2.74,13.53,6.36,20.81,2.22-3.19,2.25-6.07,2.67-8.69a60,60,0,0,1,3.57-13.49c6.17-14.87,19.26-16.76,29.39-4.1a59.79,59.79,0,0,1,6.74,11.05c1.73,3.51,3.5,5.42,7.63,3.44,3.81-1.82,7.33-3.42,5.61-8.79-2.64-8.26-4.73-16.66-5.07-25.4s.49-17.35,4.71-25.24c3.63-6.78,8.61-12.2,16.94-12.15,8.71.05,14,5.63,17.51,12.89,4.91,10,4.17,20-.87,29.79a48,48,0,0,1-11.44,15c-4.13,3.47-4,7-1.78,11.33,2.44,4.74,4.67,9.61,8.14,13.71,5.17,6.1,9.42,6.4,15.23,1.14a27.67,27.67,0,0,0,4-4.45,96.29,96.29,0,0,0,17.81-62.17c-.23-4.11-1.08-7-6.43-6.26s-8.86-2.23-10.2-7.49c-1.13-4.49,1.24-10.45,5.15-13.25s7.67-2.34,12.67,1.52c1.26,1,1.85,2.84,4.65,2.83,2.85-2.89,3.65-7,3.91-11.29.3-4.92,1-9.57,7.09-10.35,4.48-.58,7.74,2.84,9.25,9.87,2.25,10.42,4.16,20.91,6.39,31.34,2,9.11,3.91,18.26,7.65,26.86s7.37,9.07,13.43,1.55c3.39-4.21,5.38-9.17,7-14.28,4.1-13,8-26.11,12.38-39,1.73-5.11,3.08-10.79,8.61-14.39,2.38,4.69,1.22,9.1.42,13.14a308.19,308.19,0,0,1-13.4,48.07,48.25,48.25,0,0,1-9,15.46c-10.83,12.09-22.34,11.2-31-2.42a68.48,68.48,0,0,1-8.14-18.19c-2.19-7.68-4-15.46-6-23.21-.63-2.55-.56-5.34-2.81-7.47-5,1.26-3.83,4.91-3.43,8.48,2.64,23.81-1.57,46.44-12,68-2.91,6-6.22,11.81-10.93,16.64-9.45,9.68-20.85,10.24-31.19,1.53a49.23,49.23,0,0,1-11.13-14c-3.54-6.4-7.42-.87-11.09-.54-4,.35-4.5,3-3.63,6.46a116.33,116.33,0,0,1,3.12,22.74c.41,8.42-.44,16.64-4.39,24.3-3,5.77-6.86,10.84-12.79,13.57-4.68,2.16-9.58,3.07-13.33,7.56-3,3.57-8.09,1.31-10.84-4.53-3.68-7.82-6.73-15.94-10.29-23.83-1.3-2.89-1.9-6.42-5.09-8.06a4.07,4.07,0,0,0-1.75,3.61c-.75,17.65-2.59,35.21-4.5,52.76a34.72,34.72,0,0,0,2.11,15.65c7.11,20.09,13.94,40.28,19.09,61,4.48,18,6.17,36.11,1,54.32a79.06,79.06,0,0,1-11.4,24.3,44,44,0,0,1-8.77,9.54c-5.67,4.43-11.8,8.16-19.27,5.24-7.77-3-8.82-10.24-9.26-17.39-1.11-18.14,2.57-35.81,5.39-53.56,3.35-21,6.82-42.07,10.27-63.1,1.74-10.6-4.43-18.82-7.86-29.79-1.76,4.69-2.57,7.58-3.87,10.23-4.7,9.54-14,11.65-22.35,5.12-4.82-3.78-7.94-8.95-11-14.11-7.06-11.83-11.16-24.87-15.28-37.9-5.68-17.94-4.17-19.63-19.15-5-3.57,3.49-6.82,7.37-10.65,10.54-4.26,3.52-5,6.4-2.13,11.72,12.41,22.69,19.9,47.17,24.46,72.57a54.39,54.39,0,0,1,.69,16.93c-1.7,12.52-11.93,17.37-22.66,10.81-5.47-3.35-9.68-8.13-13.88-12.88-13.14-14.87-22.82-31.93-31.45-49.66-1.56-3.2-2.19-7.06-6.62-9.73-5.3,27.66-5.66,55.57-10.85,84-3.77-6-3.84-6-3.94-11.53-.34-20,1-40,2.09-59.93.34-6.32.82-12.64,1.48-18.93a39.41,39.41,0,0,1,1.94-9.75c2.86-7.6,9.86-9,15.88-3.44,3,2.76,4.79,6.36,6.66,9.9,5,9.42,9.86,18.89,15,28.21a166.53,166.53,0,0,0,22,30.86c2.14,2.37,4.09,5.06,8,6.57,1.36-7.07-.17-13.13-1.3-19.19A248.09,248.09,0,0,0,54.15,372.7c-1.85-4.1-3.57-6.1-8.85-4.45-6.76,2.11-11-.17-13.55-5.14-2.64-5.2-1.38-12.82,2.77-16.67s9.74-3.86,15.6.05c1.92,1.28,3.63,2.87,6,4.8,5.63-4.16,9.67-9.81,14.31-14.83,4.07-4.41,7.74-9.25,12.2-13.2,6.85-6.05,14.4-4.93,19.8,2.47,3.58,4.89,5.41,10.65,7.44,16.29,4.52,12.53,8.33,25.35,14.85,37.05,2,3.63,3.47,9.88,8.13,8.83,5.1-1.14,4.18-7.65,4.43-12.06a108.21,108.21,0,0,0-4.92-39.45c-3.75-11.73-7.64-23.44-10-35.57a42.94,42.94,0,0,1-.89-9.9c.18-3.7,2.56-6.15,6.29-6.69s6.42,1.45,7.81,4.85a49.18,49.18,0,0,1,1.9,6.72c5.55,22,13.38,43.25,20.57,64.72A5.13,5.13,0,0,0,162.15,364.48Zm-.31,59.7c-3.29,19.63-6.82,39.22-9.79,58.89-2.18,14.43-4.74,28.88-4.06,43.56.23,4.82-.35,11.14,4.91,13.24,5.84,2.32,9.85-2.83,13.22-6.82,10.8-12.79,15.2-28,14.64-44.4C180,465.78,171.36,444.87,161.84,424.18ZM196.12,326c4.26-9.19,7.89-18.76,13-27.46,4.47-7.62,3.78-14.25-.26-21.31-1.32-2.29-2.49-4.67-3.94-6.88-1.25-1.89-2.44-4.43-5-4.3-3.31.16-3.8,3.32-4.46,5.78C190.7,289.66,190.23,307.56,196.12,326Zm-51.9-164.58c.69,28.11,8.54,54.54,18.37,80.51C159.56,214.39,155.26,187.12,144.22,161.43ZM216,305.07a84,84,0,0,0-12.34,27.06,19.73,19.73,0,0,0-.49,5.94c.18,3.7,2.2,4.79,5.19,2.71,5.5-3.82,8.41-9.33,9.26-15.87A52.13,52.13,0,0,0,216,305.07Zm31.51-52.42c6.83-6,9.72-11.22,10.24-18,.32-4.33,0-8.56-2.65-12.27s-5.35-3.91-7.23.38C243.63,232.46,244.6,242.28,247.52,252.65ZM45.53,358c-.63-1.89-1.79-3.52-4-3.57s-2.31,1.85-2.28,3.47c0,1.9,1.18,3.12,3,3C43.82,360.71,45.59,360.29,45.53,358ZM293,207.33a1.75,1.75,0,0,0,2.08-1.37c.46-1.45-.4-2.3-1.62-2.85s-1.6.54-1.86,1.33A2.15,2.15,0,0,0,293,207.33Z" style="fill: rgb(164, 35, 61);"/><path class="cls-1" d="M715.94,76.12c2.55-2.11,4.93-4.48,8.29-5.35,5.9-1.55,10.39,1.23,13.8,8.55,3.06,6.57,3.07,6.6,10,4.61a78.52,78.52,0,0,0,17.27-7.74c3.59-2,7.28-3.79,11.08-.63,3.6,3,3.48,7.1,2.47,11.06-2,7.75-4.35,15.39-6.38,23.11-1.69,6.44-3.34,12.9-3.25,19.66.06,4.08,2,5.41,5.72,4.21a30.83,30.83,0,0,0,9.41-5.56c9-7,16.47-15.52,23.26-24.64,17.84-24,30.81-50.55,41.91-78.13,1.37-3.4,2.69-6.83,4.38-10.07s4.6-4.84,8.34-3.57,4.92,4.41,4.46,8a50.81,50.81,0,0,1-2.18,8.7c-7.45,23.49-15.1,46.92-22.3,70.48-1,3.3-5,7.95-.36,10.59,3.64,2.08,6.28-2.7,8.89-5A99.1,99.1,0,0,0,869.35,82.3c1.24-2,2.33-4,3.75-5.88A7,7,0,0,1,881.16,74c3.28,1,4.68,3.56,5,6.76.41,3.77-1,7.19-2.17,10.66-5.78,17-11.87,34-15.21,51.7A54.06,54.06,0,0,0,867.65,154c.13,6.06,2.79,7.68,8.47,5.24a30,30,0,0,0,7.56-4.79c9-7.74,16.13-16.76,19.71-28.3a173.06,173.06,0,0,1,9.5-24.14,47.68,47.68,0,0,1,2.33-4.42c3.67-5.8,8.08-7.74,12.23-5.44,3.89,2.15,4.59,5.87,1.77,12.32a302.74,302.74,0,0,0-16.38,47.12c-1.15,4.51-1.85,9.14-2.58,13.74-.3,1.89-.76,4.23,1.33,5.34S915.35,170,917,169c2.49-1.67,5-3.32,7.32-5.22,14.63-12,30.24-22.86,43-37.09.13-.14.64.06,1.45.16.8,5.17-1.39,9.63-4.19,13.6C952,158.08,935.9,172,917.58,183.22c-10.27,6.27-17.89,2.07-20.68-9.63-1.38-5.78-.37-11.75-1.37-19.13-4.47,3.78-7.77,6.8-11.32,9.51-6.26,4.77-13.07,8.92-21.12,5.11s-9.29-11.6-9.81-19.48c-.76-11.49,2-22.5,4.7-33.5.78-3.15,1.58-6.29,2.92-11.63-9.47,6.63-17.24,11.93-24.84,17.48-1.92,1.41-2.09,4.08-2.74,6.31-2.23,7.68-4.46,15.35-6.78,23-1.12,3.71-3,7.15-7.54,6.49-5.13-.74-5.68-4.82-5.45-9.13a62.41,62.41,0,0,0,.15-9c-.45-4.88-2.21-7.25-8.07-9-8.73-2.58-13.9-.35-19.19,5.84a25.59,25.59,0,0,1-10.8,7c-9,3.3-15.79-.14-18.68-9.32-2.27-7.2-1.63-14.51-.39-21.77.73-4.26,1.82-8.46,2.88-12.66,1-3.78,2.09-7.53,3.36-12-7.49-.38-13.71,2.24-20.11,3.35-3.4.58-2.88,4-3.24,6.53-1.61,11.67-5.63,22.59-10.7,33.13-2.89,6-6.42,11.74-11.37,16.32-8.2,7.61-17.07,5.83-21.64-4.43-3-6.79-3.64-14.16-4-21.5-.22-4.64,0-9.29,0-14.08-3.86.1-4.1,3.34-5.31,5.34-4,6.56-7.57,13.4-13,18.91-7.78,7.91-16.48,5.81-19.8-4.75-2.42-7.72-2.31-15.78-2.27-23.79,0-4,0-8,0-12.67-5.54,3-7.67,8.89-12,12.44-5.08,4.15-6.76,9.4-6.87,15.74a166,166,0,0,1-1.53,17.92c-.47,3.75-1.8,7.46-6.35,7.8s-6.34-2.77-7.35-6.68a45.15,45.15,0,0,0-2.31-6.59c-1.81-4.19-4-6.13-9.65-6.25-7.25-.16-11.83,1.84-16.83,6.83-8.28,8.26-17.37,8.45-27.28,2-3.79-2.47-7.34-5.33-11.59-8.44-2.27,4.2-1.56,7.85-1.45,11.31.4,12.32,1.07,24.64,1.44,37,.24,8.32-2.22,12.49-6.81,12.34-4.27-.14-6.53-3.73-7.06-11.54-.9-13.29-1.74-26.59-2.6-39.89-.11-1.67-.13-3.34-.33-5s-.51-3.31-2.59-3.75-3.06,1.1-3.66,2.57a75.5,75.5,0,0,0-2.46,7.59,208.94,208.94,0,0,1-9.56,26.25A86.31,86.31,0,0,1,509,172.38c-3.4,5.44-7.18,11-14.7,10.19-8.12-.85-10.29-7.69-12.38-14a73.12,73.12,0,0,1-3.07-17.68c-.26-3.47.17-7.13-1.34-10.53-3.23.78-3.44,3.41-4.43,5.33a138.32,138.32,0,0,1-12.16,19.48,33.62,33.62,0,0,1-9.27,9c-8.81,5.34-16.91,1.76-18.46-8.31a42,42,0,0,1-.22-10c1.82-21.34,10.28-39.88,24.65-55.57,5.94-6.48,12.93-12,22.82-8.31,2.61,1,3.38-1.18,5-2.19,5.51-3.52,10.06-1.62,10.28,4.82.23,6.62-.61,13.29-1.22,19.92-1.45,15.63-2.06,31.26-.54,46.91.3,3.14-.19,7.71,3.32,8.64s5.22-3.39,7-6c7.19-10.93,12-23,16.2-35.31.94-2.73.73-4.64-1.16-7.2-5-6.78-4.38-12,2.73-15.47,5.37-2.6,6.76-6.33,8.07-11.38,3-11.46,2.5-23.16,3.13-34.76a413,413,0,0,1,4.29-43.74,51.7,51.7,0,0,1,2.44-9.67c1.27-3.42,3.88-5.5,7.8-4.62,3.52.8,4.61,3.6,4.62,6.82a65.54,65.54,0,0,1-.6,7c-2,18.23-2.54,36.56-3.58,54.85a38.24,38.24,0,0,0-.11,4c.1,1.91-.31,4.2,2.11,5,1.92.66,2.88-1.07,4-2.14,1-.9,1.89-1.88,2.89-2.76,2.95-2.56,6.3-3.93,10.13-2.45,4.32,1.68,5.64,5.55,5.8,9.68.18,4.7-1.06,9.23-2.67,13.64A40.17,40.17,0,0,1,558,113.43c-3.61,2.91-3.07,5.4,0,8a85.41,85.41,0,0,0,7,5.67c7.15,4.87,13.36,4.46,20-1.38,6.36-5.62,10.54-12.86,14.19-20.37,9.94-20.46,16.64-42.07,22.31-64,2.67-10.31,5-20.71,7.45-31.08a48.54,48.54,0,0,1,1-4.88C631.18,2,633.33-.45,637.36.07c3.82.49,6,3,6.29,6.66.59,6.68-.35,13.31-1.14,19.93-2.38,19.84-4.83,39.67-7.15,59.52-.39,3.26-1.28,6.57-.09,9.85,3.16.78,4-1.88,5.27-3.63A136.46,136.46,0,0,0,656,64.52c.77-1.84,1.42-3.74,2.28-5.53,1.26-2.65,3.4-4.16,6.38-3.88,3.42.32,5.41,2.56,6.11,5.73.79,3.63.08,7.28-.34,10.93-1.52,13.24-3,26.47-4.38,39.73-.36,3.53-.76,7.19.87,11,4.8-.83,6.61-4.64,8.78-7.72,9.89-14,16.89-29.39,21.87-45.75a105.63,105.63,0,0,1,3.5-10.39c1.45-3.42,4.25-5.19,8-4.26s5.26,4.07,5,7.64c-.35,4.64-1.23,9.23-1.88,13.84-6.27,30.11-7.32,53-2.92,63.44.32,0,.74,0,.94-.12,13.21-11.31,17.42-26.92,20.45-43.05.59-3.13-1.78-3.47-4.29-4C715.61,89.63,714.38,87.61,715.94,76.12ZM447.16,162c13.7-7.18,29.75-36.88,33.18-61.39C464.55,102.81,444.56,139.8,447.16,162Zm156.59-50.91c3.24.6,5.52.93,7.77,1.45,6.17,1.45,6.31,1.49,6.77-4.93.83-11.69,1.48-23.4,2.2-35.1l-.81-.32C614.46,85,609.24,97.69,603.75,111.11Zm202.84,4.1a49.09,49.09,0,0,1,12.53,6.24c3.55-12.73,6.8-24.38,10.06-36L827.85,85C820.87,94.9,813.88,104.84,806.59,115.21Zm-254.68-9.3c8.8-6.88,11.94-14.09,10.3-23.41C556.76,89.59,554.1,97,551.91,105.91ZM729.66,83.72a3.62,3.62,0,0,0-3.79-3.57c-1.88.21-3.06,1.53-2.75,3.29.41,2.25,2.29,3,4.45,2.82A2.07,2.07,0,0,0,729.66,83.72ZM532.27,114.46c-.27-.56-.4-1.29-.83-1.59-.72-.51-1.31-.12-1.45.77s-.38,2,1,2C531.41,115.67,531.84,114.88,532.27,114.46Zm308.94-3.68-.71-.71a6.53,6.53,0,0,0-.63,1.34c0,.16.41.43.63.66Z" style="fill: rgb(164, 35, 61);"/><path class="cls-1" d="M1196.52,281.43c8.27-.56,15.11-4.77,22-8.76,13.6-7.88,25.59-18,37.75-27.79,3.54-2.86,7-7.38,12.1-3.84s2.9,8.13.45,12.36-1.06,5.5,3.59,6.22c9.43,1.47,12.87,7,10.56,16.37-1.94,7.84-6.32,14.62-10.18,21.6-4,7.26-8.81,14.15-11.48,22.1-2.55,7.59-.3,10.19,7.37,8.17,3.47-.92,6.68-2.88,9.95-4.49,3-1.47,5.78-4.18,8.82-4.44,5.11-.42,7.44-3.79,10.32-6.93,7-7.67,15-14.2,24.49-18.59,4.89-2.24,9.93-3.86,15.4-3.55,9,.51,14.71,6.73,14.38,15.71-.24,6.77-3.52,12.05-8.34,16.46a38.93,38.93,0,0,1-31.36,10.15c-8.1-.88-12.31,2.3-15.53,8.91-2.19,4.49-4.68,8.83-5.43,13.85-1.16,7.79,1.23,11.4,8.87,12.76,6,1.06,11.9.42,17.82-.93,14.59-3.33,28.94-7.76,43.83-9.67,3.16-.4,6.56-1.83,9.49,1.41-1.18,4.17-5,5-8.27,6.11a299.18,299.18,0,0,1-51.21,12.93A41.24,41.24,0,0,1,1296,377c-13-3.11-19.68-12.44-17.73-25.76.67-4.57,2.25-9,3.34-13.54.36-1.51,1.54-3.11.07-4.62s-3.07-.71-4.57-.11c-3.71,1.47-7.37,3-11.43,3.37-10.35.86-15.71-4.34-15-14.79.58-8.13,4-15.37,7.25-22.69,2.92-6.68,7.5-12.57,9.25-19.79.2-.86.85-2.1.51-2.51-1-1.28-2.22-.35-3.26.39-12.09,6.71-21.79,16.18-30.69,26.59a62.08,62.08,0,0,1-4.47,5.33c-2.92,2.71-6.28,3.88-9.86,1.13s-3.58-6.36-1.67-9.82c2.4-4.35,5.37-8.38,8.06-12.57,2-3.06,3.87-6.16,5.81-9.24a7.17,7.17,0,0,0,3.56-6.06c-3,.59-4.8,1.65-6.07,3.58-7.3,3.88-14.54,7.87-21.92,11.6a41.27,41.27,0,0,1-13.16,4.34c-10.06,1.36-15.92-4.62-14.33-14.73.93-5.95,3.67-11.31,6.37-16.63.9-1.77,1.78-3.55,2.67-5.32.33-.83,1.16-1.92.9-2.43-.8-1.5-2.08-.7-3.18-.13-5.55,1-10.79,3.28-16.51,3.68-10,.69-17.87-2.34-21.68-12.18-1.62-4.16-3.5-4.91-7.37-2.83a161,161,0,0,1-15.32,7.24c-5.59,2.28-11.66,4.59-17-.1s-3.82-11.1-2.49-16.9c1.41-6.14,3.7-12.08,5.59-18.11.5-1.58,1.22-3.4-.41-4.55s-3.17-.12-4.48,1c-7.15,6.07-13.2,13.15-18.92,20.54-4.84,6.26-8.37,7.76-12.17,5.27-4-2.64-3.78-7.37.89-14,8-11.44,16.23-22.79,24.28-34.23,1.91-2.72,3.64-5.58,5.27-8.47,1.46-2.59.91-4.51-2.35-4.94-2-.26-4-.21-6-.64-9.56-2.15-15.72.45-20.56,10-6.35,12.53-16.4,22.58-27.87,30.93a52.53,52.53,0,0,1-17.79,8.84c-11.61,3-19.68-2.53-21.35-14.42a37.41,37.41,0,0,1,1.38-14.84c6-22.52,18.74-40.25,38.63-52.58,5.41-3.36,11.26-5.85,17.85-5.69,6.28.15,11.1,2.73,12.82,9.06s7.41,11.06,6.18,18.46c-.43,2.59,2.49,2.52,4.45,2.52,4.33,0,8.66-.19,13-.1,12.15.26,15.24,4.33,12.7,16.49-.2,1-.46,1.94-.68,2.87.44.51.76,1.25,1.24,1.38,11.93,3.25,14.73,7.87,10.5,19.57-3.16,8.74-7.48,17-11.11,25.63-1.5,3.54-4.56,7.82-1.24,11,2.76,2.64,6.91-.28,10.27-1.37s6.65-3.06,10.09-4.3c7.17-2.58,10.19-7.24,12.2-15,7.6-29.47,24.09-53.86,46.55-74.23,3.94-3.57,8.44-6.57,13.83-7.68,9.17-1.9,15,3.11,14.65,12.43-.24,5.45-2.37,10.37-4.72,15.15-5.65,11.47-13.41,21.44-22.28,30.55a276.15,276.15,0,0,1-31.37,27.82c-2.69,2-5.06,4-5.76,7.71-2,10.58,1.66,15.4,12.42,15,13.33-.47,24.22-6.52,33.5-15.76,3.54-3.52,6.86-7.27,10.52-10.65,2.9-2.68,6.56-4,10-1.19,3.8,3.14,3,7.23.45,10.74-7.32,9.92-15,19.55-22.22,29.55-4,5.61-8.77,10.92-10.4,18C1192.52,282.47,1194.44,282.05,1196.52,281.43ZM1056.67,153c-17.55,12.93-28.81,29-33.05,49.81a21,21,0,0,0-.22,4c0,4.49,2.47,5.84,6.5,4.94a23.09,23.09,0,0,0,4.71-1.58c17-7.77,28.05-21.21,37.25-37.14C1055.69,167.35,1055.19,166.7,1056.67,153Zm110.67,61.07c20.65-10.21,44.12-43.33,43.28-60.79C1190.78,170.51,1178,191.42,1167.34,214.1Zm145.71,107.27c12,.49,20-4.79,21.45-14.25A44.48,44.48,0,0,0,1313.05,321.37ZM1071.37,165.52c4.14.47,4.53-2.41,5-5,.49-2.94-1.13-4.5-3.94-4.08-3.22.49-7.64,1.07-8,4.54C1063.85,165.63,1069.12,164.09,1071.37,165.52Zm41.42,40.83-1.29.72c.22.22.49.66.66.62a6.21,6.21,0,0,0,1.34-.62Zm53.78,9.8c-.22.18-.59.35-.62.56s.29.47.46.7c.22-.18.6-.35.62-.56S1166.74,216.38,1166.57,216.15Zm115.3,114.93.64,1.07c.2-.2.59-.44.56-.58a5.4,5.4,0,0,0-.58-1.15Z" style="fill: rgb(164, 35, 61);"/><path class="cls-1" d="M1254.45,204.91a8.87,8.87,0,0,1-8.84-9.79c.35-6.07,5.83-11.76,11.34-11.78,5,0,10.59,6.27,10.23,11.41C1266.79,200.26,1260.69,205.13,1254.45,204.91Z" style="fill: rgb(164, 35, 61);"/><path class="cls-1" d="M675.58,20a8.2,8.2,0,0,1,8,8.34,8,8,0,0,1-16.09-.09A8.25,8.25,0,0,1,675.58,20Z" style="fill: rgb(164, 35, 61);"/><path class="cls-1" d="M789.7,41.58a7.79,7.79,0,1,1-7.2-7.93A7.59,7.59,0,0,1,789.7,41.58Z" style="fill: rgb(164, 35, 61);"/><path class="cls-1" d="M1229.15,275.84c1.27-1.93,3.1-3,6.07-3.58a7.17,7.17,0,0,1-3.56,6.06Z" style="fill: rgb(164, 35, 61);"/><path class="cls-1" d="M841.21,110.78l-.71,1.29c-.22-.23-.66-.5-.63-.66a6.53,6.53,0,0,1,.63-1.34Z" style="fill: rgb(164, 35, 61);"/><path class="cls-1" d="M1112.79,206.35l.71.72a6.21,6.21,0,0,1-1.34.62c-.17,0-.44-.4-.66-.62Z" style="fill: rgb(164, 35, 61);"/><path class="cls-1" d="M1166.57,216.15c.17.23.49.49.46.7s-.4.38-.62.56c-.17-.23-.49-.49-.46-.7S1166.35,216.33,1166.57,216.15Z" style="fill: rgb(164, 35, 61);"/><path class="cls-1" d="M1186.5,252.54c1.1-.57,2.38-1.37,3.18.13.26.51-.57,1.6-.9,2.43Z" style="fill: rgb(164, 35, 61);"/><path class="cls-1" d="M1196.52,281.43c-2.08.62-4,1-2.79-2.31Z" style="fill: rgb(164, 35, 61);"/><path class="cls-1" d="M1281.87,331.08l.62-.66a5.4,5.4,0,0,1,.58,1.15c0,.14-.36.38-.56.58Z" style="fill: rgb(164, 35, 61);"/></g><g transform="matrix(0.36596035957336426, 0, 0, 0.36596035957336426, 731.8199207832527, 202.57745042505496)"><path class="cls-1" d="M677.38,242.28c-1.62.71-18.19-.08-31.26,5.41-16.6,7-30.48,20.54-32.81,21.56-.76-3.56-31.63,25.56-58.7,20.32s-50.32-44.82-50.91-48c-3.78-20.26-49.16-45.33-67.79-59.76,0-2.77,34.86-27.63,30.66-70.18-2.52-25.55-1.78-63.18,22-82.89,32.54-27,80.85-26.85,84.18-28.4,68.42,1.74,67,24.83,80.75,57.75,13,31.13,14.82,70.12,18.92,81.88C684.87,175.71,672.86,224.26,677.38,242.28Z" style="fill: rgb(255, 255, 255);"/><path d="M309.8,306.13a10.28,10.28,0,0,1,.48-1.93c1.61-3.33,3.55-7.66,7.55-6.56,2.81.77,5.83,4.46,6.77,7.47a67.49,67.49,0,0,1,3.2,18.56c.23,12.93,5,23.42,15.18,31.14,27.78,21.16,55.77,42.05,83.64,63.09,8.63,6.52,17.16,5.9,25.76,0,17.33-11.79,34.63-23.62,52-35.33,10.76-7.25,21.62-14.35,32.48-21.45a35.93,35.93,0,0,0,13.4-15.57c3.9-8.39,9.21-16.12,13.75-24.23,1.06-1.9,2.24-4.21,2.08-6.23-.65-7.92-1.79-15.81-2.84-23.7,0-.31-1-.5-1.61-.74l.08,0c.65-1,1-2.67,2-3,13-5.21,20.24-16,26.48-27.52,11.71-21.57,19.41-44.51,22-69,.46-4.31,1.33-8.57,1.77-12.87a31.66,31.66,0,0,1,10.4-20.8c12.87-12.19,17.7-27.83,16.35-45.4a27.32,27.32,0,0,0-1.25-6.85c-2.3-6.71-5.7-8.31-12.85-6.48-1.51.38-3.08.52-6.7,1.12,15-7.86,26-3,28.35,10.92A44.1,44.1,0,0,1,642,142.42c-3.61,5.73-4.52,11.39-4.12,17.94a406.42,406.42,0,0,0,11.9,77.87c.58,2.22,1.47,4.36,2.44,7.21l10-1.91C659.45,206.8,656.72,170.42,654,134l1.68-.17C660.34,169.58,665,205.29,669.8,242l5.42,1.05c.48-1.71,1.19-3,1.11-4.16q-1-17-2.23-33.91c-2.72-38.21-4.51-76.53-13.82-113.94-5.19-20.86-12.87-40.68-24.93-58.55-10-14.8-22.91-26.08-40.85-30C588.2,1.07,581.6,1,574.65.34c8.79,0,17.2-.86,25.38.17,21.15,2.66,37,14.36,48.74,31.64,10.81,15.86,17.55,33.58,22.75,52,7.58,26.79,10.26,54.28,11.61,81.94,1.12,23,2,45.94,2.88,68.91.37,9.42-.73,11.42-9.61,10.83-25.44-1.7-42.23,13.64-59.14,28.9a8.84,8.84,0,0,0-2.28,6.12c.36,15.95,1,31.9,1.6,48.37.61,4.85,8.77,7.24,9.3,15.19.93,13.95,4.87,28.23,5.25,42.2,1.22,44.29,2,88.6,3.24,132.9.56,20,2,39.93,2.78,59.91.7,17,1.54,33.93-3.66,51.28h8.31c0-8.7.5-17-.08-25.18-3.47-49.58-5-99.14.77-148.66,3.31-28.44,6-57,13.73-84.72,4.11-14.83,9.53-29.17,18.93-41.59,5.31-7,9-8,16.34-5.94,5.61,1.57,8.24,5.57,9.28,10.68,1.79,8.81,3.59,17.65,4.62,26.57a877.17,877.17,0,0,1,.22,198.49c-2.77,24.79-6.73,49.44-14.7,73.88,10.16,3,12.2,10.86,10.72,19.72-1.64,9.85-4.78,19.13-17.83,19.84,0,4.12,0,7.74,0,11.37.6,60,1.36,119.94,1.74,179.92.16,27-.48,54-.68,81,0,5.32.44,10.65.35,16-.1,5.76-2.16,7.46-8.14,7.36-5.35-.08-6.66-1.36-6.77-7.47q-1.6-87.93-3.09-175.87c-.53-35-.68-70-1-105,0-1.64-.23-3.28-.43-5.93-28.94.76-57.73,1.82-86.53,2.2-28.63.38-57.27.08-86.84.08a25.79,25.79,0,0,0-1,5.36c-.22,12.66-.67,25.33-.23,38a75.09,75.09,0,0,0,3.41,19.53c11.74,37.49,23.9,74.86,35.77,112.31,3.83,12.06,7.28,24.13,7.78,37,.19,4.92,3.73,9.79,6,14.53,7.93,16.22,8.1,16.83-8.5,24.42-15.09,6.89-30.67,12.72-46.9,19.38-.76,5-1.65,10.79-2.66,17.4H473c-1-4.55-1.84-8.71-2.86-13.58-5.68.68-11.21,1.23-16.71,2-3.27.47-4.13,2.93-4.11,5.88,0,4.59,0,9.18-.43,13.84-1-5.82-1.93-11.63-3.12-18.79-5.29.62-10.53.78-15.57,1.89-20.16,4.43-40.15,9.64-60.4,13.6-14.86,2.91-29.79,2.5-44.18-3.63-12-5.11-19.11-14.2-22.58-26.34-4.7-16.51,3.93-29.27,21.07-29.49,10.18-.14,20.45,2.23,30.61,3.9,12.06,2,24,4.43,37.79,7-2.58-6.69-4.5-11.47-6.27-16.31C367,852.57,355,797.92,343.9,743.05c-6.44-32-12-64.23-12.15-97A158.35,158.35,0,0,1,334,617.24c2.4-13.29,6.16-16.18,19.22-17.33,32.19-2.85,64.38-5.57,96.58-8.37,1.95-.17,3.89-.55,7.17-1,.92-19.52,1.84-39,2.82-59.77C313.64,524,168.15,516.57,21.87,506.07c-1.71,74.34-3.11,148.54-5.21,222.71S11.77,877.25,9.22,953.23c-.87-10.62-1.73-19.53-2.32-28.45C4.51,888.23.83,851.69.21,815.11-.57,769.83,1,724.5,2,679.21c1.21-57.3,2.83-114.59,4.24-171.88.28-11.65,1.92-14.11,13.63-14.63,13.63-.59,27.31,0,41,.05h6.46c.56-1.93,1.48-3.73,1.54-5.56,3-83.24,5.76-166.48,9.07-249.7C79.55,195.21,82,153,84.68,110.74c.76-12.26,2.87-24.48,5.15-36.56,1.69-8.94,5.07-10.06,13.47-6.71,5.57,2.22,7.84,7,10.11,11.79,8,17,12.53,35.11,16,53.48,8.33,44.41,10.89,89.31,9.2,134.34-1,26.58-4,53.12-6.79,79.6-3.37,31.93-16.06,61.06-28.74,90.07C97.46,449.56,90.94,462,85,474.58c-.77,1.64-.88,3.59-1.67,7,54.21-16.34,107.64-29.8,163.72-26.86,7.14-14.69,20.86-19.13,34.7-23,19.22-5.39,38.84-5.39,58.54-3.26,2.31.26,4.62.59,6.93.77a10.29,10.29,0,0,0,2.58-.69c-.5-1.42-1-2.77-1.46-4.11,3.55,2.15,6.87,5.56,10.67,6.24q36.85,6.63,73.9,12.17c9.83,1.49,19.64-.33,27.77-6,9.18-6.4,17.46-14.09,25.6-20.79-3.14-12.09-4.89-12.83-13.4-7.08-7.45,5-14.87,10.1-22.39,15-9.29,6.09-18.47,6.63-27.77-.31Q383.43,394.48,344,365.48c-13.68-10.06-20.08-23.37-20-40.32,0-5.2-1.37-10.59-3.08-15.57C318.73,303.15,316.58,302.77,309.8,306.13ZM514.18,901.51,489.09,911v30.68c3.74-1.33,6.68-1.95,9.19-3.35,11.58-6.47,23.22-12.86,34.49-19.85,12-7.47,11.87-7.76,5.18-20.16a16.6,16.6,0,0,0-2.35-2.81l-10,2.73c1.42-2.32,6.79-2.56,3.83-7.39l-7.54.9,8.37-6.06c-.88-3.63-1.58-7.53-2.77-11.28q-17.28-54.17-34.72-108.27c-.05-.18-.55-.28-.84-.29a8.63,8.63,0,0,0-1.64.32c0,2.83,0,5.81,0,8.78-.26,27,0,54-1,81a57,57,0,0,0,9.49,34.79c3.14,4.82,6.25,6.38,11.4,4.77L504.55,899C506.53,905.53,511.05,900.85,514.18,901.51ZM439.73,501.12c12,9.06,23.72,6.49,35-1.39,6.81-4.77,13.71-9.58,19.77-15.23,14.86-13.85,29.28-28.18,43.81-42.4a40.24,40.24,0,0,0,3.85-5.14l-25-33.89-7,5.85c-11.84,9.73-23.52,19.65-35.57,29.12-11.88,9.33-25.69,12.27-40.51,10.41-21.15-2.64-42.23-5.81-63.41-8.15-18.52-2-37.11-4.1-55.71-4.56a106.93,106.93,0,0,0-48.54,10c-4,1.86-7.39,4.84-11.06,7.3,7.61,3.17,13.82,3.31,20.38-.75,7.72-4.78,16-9,27.67-8.39-9,5.25-18.67,4.74-24.88,11.79a52.44,52.44,0,0,0,16.19-3.31c10.49-4.22,14.28-5.1,22.17-3.38-2.69.42-5,.59-7.23,1.17s-4.56,1.63-6.83,2.47c4.21,1.76,8.13,1.63,12.05,1.78,30.52,1.15,60.4,5.29,88.12,19.22,14,7.06,27.17,15.37,37.17,27.87-6.72-4.67-13.22-9.7-20.2-13.95-32.55-19.83-68.78-25.43-106-27.08,8.66,2.09,17.58,3.11,26.19,5.34a287.14,287.14,0,0,1,29.28,9.49c6.2,2.34,9.3,7.65,8.68,14.32s-1.93,13.17-3,20.16c1.84.2,4.45.58,7.08.77,25.57,1.79,51.15,3.5,76.71,5.39,4.84.36,9.62,1.43,14.83,2.24,1.94,24.52-3.67,47.86-1.79,72.09l34.1-2.63V488.46c-6.1,4.6-10.87,8.77-16.18,12-6.75,4.17-13.64,8.48-21,11.18C457.08,516,447.61,512,439.73,501.12ZM519.16,400.2a280.44,280.44,0,0,0,25.51,32.68l1.63-1.34-18.08-25.21c3.3,3.16,6.87,6.1,9.83,9.55,3.83,4.47,7.17,9.35,10.33,13.53,6.48-6,12.83-10.88,18.06-16.79q20.17-22.81,39.44-46.42c3.92-4.79,7.68-10.63.64-16.38a13,13,0,0,1,.88-1.4c9,8.48,9.77,12.33,4.25,22.15a58.68,58.68,0,0,1-3.61,5.6c-24.46,33.65-52.42,64.22-82.17,93.16A27.29,27.29,0,0,0,518,483.82c-6.44,29.1-7.6,58.73-9.25,88.31-.27,4.83.81,9.74,1.39,15.94l105.66-6.33.16,1.68-145.7,19.27c-1,19-2,38.2-2.94,57.13,2.09.78,3,1.38,3.91,1.41,27.31,1,54.65,1.8,81.81-2.07a173.55,173.55,0,0,0,54.23-16.56c10.29-5.19,17-12.89,17.28-24.82.36-15.28.63-30.56.44-45.83q-1.05-86.43-2.47-172.86c-.29-18-5-42.92-5.89-60.87-.18-3.83-45.83-9.27-48.06-12.23s46,5.62,45.8,2.35c-.75-12.28-1.58-27.83-2.52-40.09-.25-3.24-.51-8.3-2.41-9.26-6.92-3.48-5.51-9.91-7-15.33-.53-2-.94-3.93-1.8-7.56-9.48,14.8-18.23,27.89-34.23,32.67.76,13.05,1.45,24.87,2.17,37.22a169.06,169.06,0,0,0-16.39,35.28C561,357,568.27,353,575.88,350c10.8-4.35,15.19-4.6,22.46-3.44-5.58,1.71-13.17,3.15-20,6.28C558.05,362.14,542,377.24,526.57,393c0,0-7.41,7.2-7.31,7S519.09,400.1,519.16,400.2ZM432,949c2.61-11.61-3.27-23-4.32-34.83l-23.38,1.19c0-.33,0-.66-.07-1l24.26-4c-.35-3.79-.55-7-1-10.24C421.19,852.55,415.06,805,413.36,757c-.89-25.33-2-50.62,1.06-75.86,2-16.37,5.75-19.82,22.19-20.79,2-.12,4,0,6,0h11.51c.77-19.87,1.51-38.61,2.27-58.18-4.76.22-8,.27-11.26.54-26.9,2.24-53.77,4.79-80.68,6.7-18.56,1.31-22.37-1.9-24.81,24.64-2.28,24.76.87,49.31,5,73.61,12.34,72.55,29.31,144,54.44,213.89h22c-8.76,2.1-17.65,3.42-26.44,3-14.28-.74-28.48-3.17-42.76-3.87A151.7,151.7,0,0,0,322.13,922c-8.47,1.27-12.8,7.82-13.87,16.25C307.21,946.45,310,952.06,318,956a76.43,76.43,0,0,0,16.87,5.9c16.69,3.68,33.14.69,49.5-2.77C400,955.83,415.63,952.48,432,949ZM680.14,632.68c2.79-15.15,6.18-29.7,8.06-44.44a1074.87,1074.87,0,0,0,8-163.47c-.71-27.91-3.73-55.76-5.81-83.63-.14-1.95-1.19-3.83-2.58-8-3.24,7.32-5.76,12.32-7.72,17.53-10.49,28-14.52,57.42-18.12,86.8-5.64,45.91-10.56,91.91-15.06,138-1.76,18.11-1.56,36.42-2.3,55.64ZM103.06,93.53c-3.1,7.93-19.75,360.36-17.64,369.53,20.5-49.56,28.07-102.14,33.32-154.89C125.93,235.87,122.93,164,103.06,93.53Zm0,393.63c.09,1,.18,1.91.26,2.87,18.29.26,36.57.45,54.85.8,40,.75,79.95,1.09,119.89,2.58,23.61.87,47.15,3.73,70.73,5.42a138.84,138.84,0,0,0,18.91-.26,8.35,8.35,0,0,0,8.14-7.51c.74-4.53-2.53-7.05-5.9-8.23-8.11-2.85-16.34-6-24.78-7.2-17.8-2.46-35.76-3.77-53.66-5.46-47.64-4.5-95.15-5.45-142.16,5.59C133.93,479.39,118.54,483.35,103.11,487.16Zm344.27,302c2.43-6.29,6.88-105.43,5.14-115.09-8.52-2.12-18.3-.36-26.48-7.94C417.46,710.73,422.92,751.48,447.38,789.18Zm.73,131.63c0-33.35.07-65.95-.1-98.55a33.85,33.85,0,0,0-2.29-10.6c-5.57-16-11.34-32-17-48-1.07-3-2.05-6.05-3.08-9.08l-2.08.33c4.37,57.31,5.44,114.81,9.57,173.45Zm19-229.82a13.48,13.48,0,0,0-1.2,2.28C464,732.12,462,771,460.18,809.83c-.38,8.23,4.3,18.32,11.09,25.48a11.76,11.76,0,0,0,.81-2.74q1-59.36,1.91-118.72C474.12,706,471,699.13,467.14,691Zm-8.78,153c-2.21,24.68-4.43,49.35-6.76,75.25,5.27-1.7,8.95-3.11,12.74-4.07,5.42-1.39,7.3-4.6,7.13-10.16-.3-9.62-.58-19.32.33-28.88C473.05,863.06,466.19,853.58,458.36,844ZM646.12,247.69c-7.86-31.29-10.49-61.78-10.34-93.37-8.36,3.89-11.18,9.37-11.09,17.11a353,353,0,0,0,6.17,61.3c1.19,6.37,2.67,12.67,4.19,19.8Zm-24.71-41.25c-3.18,9-4.88,16.9-8.61,23.71-7.09,13-.95,24.79.51,39.1L629.43,256C626.69,239.06,624.18,223.58,621.41,206.44ZM470.31,916.92c-6.05,2.48-11.24,4.42-16.24,6.78a5.47,5.47,0,0,0-2.6,3.81c-.73,7.82-1.13,15.67-1.75,25.21L470.31,948Zm71.3-552.49L540,363.1l-56.09,38.36,6.48,8.22c15.72-12.58,30.84-24.49,45.67-36.75C538.57,370.88,539.8,367.3,541.61,364.43ZM434,933v20.78c3.13.15,5.71.43,8.29.37,3.62-.07,5.46-2.15,5.49-5.71,0-6.79,0-13.58,0-22Zm56.88-38c-2.36,10.63-2.36,10.63,4.45,9.81C494,902.07,492.9,899.55,490.83,895Zm-377-400.35c0-.12,0-.24,0-.35l-8.16-.41,0,.76ZM89.74,492.3c0,.37,0,.73,0,1.09h8.12V492.3Z"/><path class="cls-1" d="M309.8,306.13c6.78-3.36,8.93-3,11.14,3.46,1.71,5,3.11,10.37,3.08,15.57-.09,16.95,6.31,30.26,20,40.32q39.44,29,78.66,58.26c9.3,6.94,18.48,6.4,27.77.31,7.52-4.94,14.94-10,22.39-15,8.51-5.75,10.26-5,13.4,7.08-8.14,6.7-16.42,14.39-25.6,20.79-8.13,5.66-17.94,7.48-27.77,6q-37-5.6-73.9-12.17c-3.8-.68-7.12-4.09-10.67-6.24l-3.15-6.77c-2.31-3.25-4.49-6.6-6.93-9.76-18.37-23.82-40-44.52-61.8-65.13-2.77-2.63-5.58-5.22-9.78-9.13,7.44,0,10.76,6.84,18.07,4.45-6.29-3.5-11.46-6.4-16.66-9.26-11.31-6.21-11.32-6.19-13.39-11l7.56,1.39c6.15,6.86,14.26,10.29,22.63,13.25-6.49-6.37-14.58-9.85-22.85-13,3.3-3.8,7.07-2,10.72-.81,1.52.5,3.36,2.39,4.29,2,6.41-2.91,12.21.54,18.18,1.45,8.6,1.31,8.74,1.48,10.95-7.54Q308,310.35,309.8,306.13Z" style="fill: rgb(255, 255, 255);"/><path d="M476.3,102.64c4.37-3.21,8.65-6.2,12.74-9.43,3.86-3.06,7.51-6.39,11.26-9.6l-1.06-1.67c-4.59,2.86-37.88,13.86-42.46,16.72,10-10.53,48.54-29.12,59.39-40.59.32,2.29,1.18,4.13.67,5.45a88.15,88.15,0,0,1-20.21,30.59c-2,2-4.68,3.44-7.06,5.12l1.6,2.7c3.53-1.65,7.23-3,10.59-5,14.88-8.54,27.46-19.84,38.81-32.62,3-3.4,6.35-6.54,9.26-9.52,6,2.07,6.16,5.29,4.54,9.78C550,76.79,543.49,87.39,533.23,95.49a84,84,0,0,0-10.08,9,78.93,78.93,0,0,0,34.68-16.58c9.53-8,17.53-17.81,26.38-27,5,1.56,4.61,5.43,3.07,9.48-4.27,11.29-9.67,22-18.41,30.52-2.32,2.28-5.36,3.83-7.42,6.71,4.77,3.13,8.36,1.39,11.87.35,15.12-4.46,29-11.62,42.34-19.86,2.26-1.39,4.5-3.07,7-3.76,1.77-.5,4,.43,7.38.94-2.42,3.09-3.47,5.21-5.16,6.49a117.85,117.85,0,0,1-57.46,23.6c-5.07.63-10.85,1.48-14.48-5.27l15.5-14.21c-46.14,17.5-46.14,17.5-56.43,11.43l9.12-7.29c2.78-2.24,5.56-4.47,7.47-8.1-2.39,1.41-4.69,3-7.19,4.2-8.95,4.29-17.74,9.09-27,12.42C488.05,110.84,481.15,110.45,476.3,102.64Z"/><path d="M561.65,290.69c-16.5,2.76-29.43-4.2-40-15.84-9.36-10.36-17.91-21.47-26.51-32.5-5.44-7-10.41-14.34-15.41-21.65-10.49-15.34-24.75-25.89-41.62-33.2-3-1.3-5.93-2.73-9.79-4.51,2.39-2.54,4-4.56,5.89-6.22C450.93,162.25,459.71,143.64,462,122c1.26-11.91,1.27-23.94,2.06-35.9.55-8.3.92-16.66,2.33-24.83,2.41-13.94,9.37-25.18,22.15-32.51-19.19,16.4-19.4,38.09-16.92,60.28,3.77,33.66-7,62.09-29.83,86.49l-5.87,6.3c12.27,6.73,25.08,11.94,35.64,20.07s19.05,19.29,28.65,29.35c10.8-3.44,12.83-6.29,25.07-36,5.23,11.81-7.17,32.35-23.85,40,2.7,3.9,5.18,7.77,7.94,11.42,6.21,8.24,12.54,16.4,18.87,24.56,8.52,11,19.12,18.42,33.47,19.51C561.73,290.71,561.65,290.69,561.65,290.69Z"/><path d="M262.21,319.23l-7.56-1.38c2.07,4.82,2.08,4.8,13.39,11,5.2,2.86,10.37,5.76,16.66,9.26-7.31,2.39-10.63-4.44-18.07-4.45,4.2,3.91,7,6.5,9.78,9.13,21.76,20.61,43.43,41.31,61.8,65.13,2.44,3.16,4.62,6.51,6.93,9.76-2.24-1.85-4.81-3.42-6.66-5.6-16.05-18.82-34.89-34.57-53.82-50.33-10.17-8.46-19.18-18.32-28.55-27.71a27.79,27.79,0,0,1-5.09-7.34c-4-8.08,0-15.35,9.06-14.89,11.55.58,23,2.68,34.52,4.21,2.3.3,4.57,1.54,6.78,1.37,1.65-.13,3.17-1.83,4.75-2.84-2.21,9-2.35,8.85-10.95,7.54-6-.91-11.77-4.36-18.18-1.45-.93.42-2.77-1.47-4.29-2-3.65-1.18-7.42-3-10.72.81Z"/><path d="M508.62,128.64c2,3.34,4.17,5.48,4.58,7.91.86,5.14-2.58,11.16-7.43,14.75C500.36,144.18,500.72,138.63,508.62,128.64Z"/><path d="M533.5,2.08c.74,2,1.49,4,2.23,6l-1.16.51c-1-1.94-2.08-3.89-3.13-5.83Z"/><path class="cls-1" d="M432,949c-16.35,3.49-32,6.84-47.57,10.13-16.36,3.46-32.81,6.45-49.5,2.77A76.43,76.43,0,0,1,318,956c-8.07-3.93-10.83-9.54-9.78-17.75,1.07-8.43,5.4-15,13.87-16.25a151.7,151.7,0,0,1,29.74-1.42c14.28.7,28.48,3.13,42.76,3.87,8.79.45,17.68-.87,26.44-3h-22C374,851.55,357,780.13,344.65,707.58c-4.14-24.3-7.29-48.85-5-73.61,2.44-26.54,6.25-23.33,24.81-24.64,26.91-1.91,53.78-4.46,80.68-6.7,3.24-.27,6.5-.32,11.26-.54-.76,19.57-1.5,38.31-2.27,58.18H442.61c-2,0-4-.08-6,0-16.44,1-20.21,4.42-22.19,20.79-3.05,25.24-1.95,50.53-1.06,75.86,1.7,48,7.83,95.59,14.14,143.15.42,3.21.62,6.45,1,10.24l-24.26,4c0,.33.05.66.07,1l23.38-1.19C428.71,926,434.59,937.38,432,949Z" style="fill: rgb(255, 255, 255);"/><path class="cls-1" d="M680.14,632.68,644.64,631c.74-19.22.54-37.53,2.3-55.64,4.5-46,9.42-92,15.06-137.95,3.6-29.38,7.63-58.81,18.12-86.8,2-5.21,4.48-10.21,7.72-17.53,1.39,4.2,2.44,6.08,2.58,8,2.08,27.87,5.1,55.72,5.81,83.63a1074.87,1074.87,0,0,1-8,163.47C686.32,603,682.93,617.53,680.14,632.68Z" style="fill: rgb(255, 255, 255);"/><path class="cls-1" d="M440.07,501.49c-10-12.49-23.12-20.8-37.16-27.86-27.72-13.93-57.6-18.07-88.12-19.22-3.92-.15-7.84,0-12.05-1.78,2.27-.84,4.49-1.85,6.83-2.47s4.54-.75,7.23-1.17c-7.89-1.72-11.68-.84-22.17,3.38a52.44,52.44,0,0,1-16.19,3.31c6.21-7.05,15.85-6.54,24.88-11.79-11.63-.61-19.95,3.61-27.67,8.39-6.56,4.06-12.77,3.92-20.38.75,3.67-2.46,7.1-5.44,11.06-7.3a106.93,106.93,0,0,1,48.54-10c18.6.46,37.19,2.52,55.71,4.56,21.18,2.34,42.26,5.51,63.41,8.15,14.82,1.86,28.63-1.08,40.51-10.41,12.05-9.47,23.73-19.39,35.57-29.12l7-5.85,25,33.89a40.24,40.24,0,0,1-3.85,5.14c-14.53,14.22-28.95,28.55-43.81,42.4-6.06,5.65-13,10.46-19.77,15.23-11.26,7.88-22.94,10.45-35,1.39Z" style="fill: rgb(255, 255, 255);"/><path class="cls-1" d="M103.06,93.53c19.87,70.44,22.87,142.34,15.68,214.64-5.25,52.75-12.82,105.33-33.32,154.89C83.31,453.89,100,101.46,103.06,93.53Z" style="fill: rgb(255, 255, 255);"/><path class="cls-1" d="M103.11,487.16c15.43-3.81,30.82-7.77,46.28-11.4,47-11,94.52-10.09,142.16-5.59,17.9,1.69,35.86,3,53.66,5.46,8.44,1.17,16.67,4.35,24.78,7.2,3.37,1.18,6.64,3.7,5.9,8.23a8.35,8.35,0,0,1-8.14,7.51,138.84,138.84,0,0,1-18.91.26c-23.58-1.69-47.12-4.55-70.73-5.42-39.94-1.49-79.92-1.83-119.89-2.58-18.28-.35-36.56-.54-54.85-.8C103.29,489.07,103.2,488.12,103.11,487.16Z" style="fill: rgb(255, 255, 255);"/><path class="cls-1" d="M510.2,895.44c-5.15,1.61-8.26,0-11.4-4.77a57,57,0,0,1-9.49-34.79c1-27,.76-54,1-81,0-3,0-5.95,0-8.78a8.63,8.63,0,0,1,1.64-.32c.29,0,.79.11.84.29q17.42,54.12,34.72,108.27c1.19,3.75,1.89,7.65,2.77,11.28l-8.37,6.06.35-.28-12.45,4.21Z" style="fill: rgb(255, 255, 255);"/><path class="cls-1" d="M447.38,789.18c-24.46-37.7-29.92-78.45-21.34-123,8.18,7.58,18,5.82,26.48,7.94C454.26,683.75,449.81,782.89,447.38,789.18Z" style="fill: rgb(255, 255, 255);"/><path class="cls-1" d="M525.64,898.22l10-2.73A16.6,16.6,0,0,1,538,898.3c6.69,12.4,6.85,12.69-5.18,20.16-11.27,7-22.91,13.38-34.49,19.85-2.51,1.4-5.45,2-9.19,3.35V911l25.09-9.47Z" style="fill: rgb(255, 255, 255);"/><path class="cls-1" d="M467.14,691c3.85,8.14,7,15,6.85,22.86q-.94,59.35-1.91,118.72a11.76,11.76,0,0,1-.81,2.74c-6.79-7.16-11.47-17.25-11.09-25.48C462,771,464,732.12,465.94,693.27A13.48,13.48,0,0,1,467.14,691Z" style="fill: rgb(255, 255, 255);"/><path class="cls-1" d="M470.31,916.92V948l-20.59,4.74c.62-9.54,1-17.39,1.75-25.21a5.47,5.47,0,0,1,2.6-3.81C459.07,921.34,464.26,919.4,470.31,916.92Z" style="fill: rgb(255, 255, 255);"/><path class="cls-1" d="M541.61,364.43c-1.81,2.87-3,6.45-5.52,8.5-14.83,12.26-30,24.17-45.67,36.75l-6.48-8.22L540,363.1Z" style="fill: rgb(255, 255, 255);"/><path class="cls-1" d="M434,933l13.79-6.6c0,8.46,0,15.25,0,22,0,3.56-1.87,5.64-5.49,5.71-2.58.06-5.16-.22-8.29-.37Z" style="fill: rgb(255, 255, 255);"/><path class="cls-1" d="M525.64,898.22l-11.46,3.29c-3.13-.66-7.65,4-9.63-2.56l5.65-3.51-.37.22,12.45-4.21-.35.28,7.54-.9C532.43,895.66,527.06,895.9,525.64,898.22Z" style="fill: rgb(255, 255, 255);"/><path class="cls-1" d="M528.22,406.33l18.08,25.21-1.71,1.26A282.76,282.76,0,0,1,519,400C521.9,400,527.08,404.21,528.22,406.33Z" style="fill: rgb(255, 255, 255);"/><path class="cls-1" d="M113.81,494.65h-8.17l0-.76,8.16.41C113.82,494.41,113.82,494.53,113.81,494.65Z" style="fill: rgb(255, 255, 255);"/><path class="cls-1" d="M89.74,492.3h8.12v1.09H89.73C89.73,493,89.73,492.67,89.74,492.3Z" style="fill: rgb(255, 255, 255);"/><path d="M262,319.49c8.27,3.15,16.36,6.63,22.85,13-8.37-3-16.48-6.39-22.63-13.25Z"/><path d="M522.28,891.45l-12.45,4.21Z"/><path class="cls-1" d="M521.5,396.3c.56-2.37,3.62-1.81,5.07-3.3,15.41-15.76,31.48-30.86,51.79-40.19,6.81-3.13,14.4-4.57,20-6.28-7.27-1.16-11.66-.91-22.46,3.44-7.61,3.07-14.87,7-23.75,11.3A169.06,169.06,0,0,1,568.52,326c-.72-12.35-1.41-24.17-2.17-37.22,16-4.78,24.75-17.87,34.23-32.67.86,3.63,1.27,5.61,1.8,7.56,1.5,5.42.09,11.85,7,15.33,1.9,1,2.16,6,2.41,9.26.94,12.26,1.57,24.55,2.32,36.82a15.28,15.28,0,0,0,3.07,9c2.23,3,3.37,7.33,3.55,11.16q1.29,26.93,1.73,53.9,1.39,86.43,2.47,172.86c.19,15.27-.08,30.55-.44,45.83-.28,11.93-7,19.63-17.28,24.82A173.55,173.55,0,0,1,553,659.16c-27.16,3.87-54.5,3-81.81,2.07-.92,0-1.82-.63-3.91-1.41,1-18.93,2-38.09,2.94-57.13L615.9,583.42l-.15-1.68-105.66,6.33c-.58-6.2-1.66-11.11-1.39-15.94,1.65-29.58,2.81-59.21,9.25-88.31a27.29,27.29,0,0,1,7.92-14.49C554.8,441.19,582,411.52,606,379a83.26,83.26,0,0,0,5.59-8.27c5.6-9.9,4.82-13.76-4.18-22.27a13,13,0,0,0-.88,1.4c7,5.75,3.28,11.59-.64,16.38q-19.29,23.58-39.44,46.42c-5.23,5.91-11.58,10.83-18.06,16.79-3.16-4.18-6.5-9.06-10.33-13.53-3-3.45-15.6-12.52-18.89-15.68C518,398.08,522.65,398.41,521.5,396.3Z" style="fill: rgb(255, 255, 255);"/><path d="M 921.782958984375 297.9596252441406" style="fill: rgb(255, 255, 255); fill-opacity: 1; stroke: rgb(0, 0, 0); stroke-opacity: 1; stroke-width: 0; paint-order: fill;"/></g></svg>