<svg id="Layer_1" data-name="Layer 1" xmlns="http://www.w3.org/2000/svg" viewBox="0 0 284.11 244.97"><defs><style>.cls-1{fill:#010101;}.cls-2{fill:#323233;}.cls-3{fill:#faa62d;}.cls-4{fill:#fbf5f8;}</style></defs><path class="cls-1" d="M281.68,146.79C315.81-36.56-22.08-56.11,1.15,133.41,20.56,271,256.74,288,281.68,146.79Z"/><path class="cls-2" d="M250,200.52"/><path class="cls-3" d="M118.13,5.27C235.83-7.26,326.36,134.25,219,216,59,314.5-69.39,64.21,118.13,5.27"/><path class="cls-4" d="M144.51,89.38a9.88,9.88,0,0,0,1.66,0c21.94-5.62,35.91,4.49,37.12,27.18a63.67,63.67,0,0,1-13.85,43.8c-3.18,4.06-4.45,7.59-3.1,12.7a48.7,48.7,0,0,1,.41,24.74c-3.59,14-18.15,25.91-32.62,27.44a13.51,13.51,0,0,1-11.82-4.09,3.61,3.61,0,0,1-.76-3.71c.53-1.63,1.9-1.66,3.21-1.7,1,0,2,.25,3,.3,18.83,1,30.85-12.15,28.23-30.89a36.25,36.25,0,0,0-1.2-5.86,20.16,20.16,0,0,0-2.12-3.68c-10.18,4.05-20.37,6.22-31.3,4.27C99,175.88,85.4,155,91.21,133.05c4-15.11,12.87-27.69,21.09-40.6a36.55,36.55,0,0,1,2.94-4c8.6-10.15,14.18-21.34,14.13-35.12,0-7.69,2.81-15,5.74-22.13a41.2,41.2,0,0,1,3.69-7.06c2.18-3.28,5.26-5.31,9.35-4.11,3.69,1.08,5.06,4.25,5.17,7.76a43.2,43.2,0,0,1-.66,9.91c-1.14,5.55-2.56,11.28-5.81,15.88-5.7,8.06-5.89,16.72-4.4,25.79C143,82.56,142.44,86,144.51,89.38Zm-18-3.2c-4,6.36-8,12.69-12,19.08-5.09,8.24-9.38,16.87-11.87,26.27-3.06,11.51-1.44,22.15,8.18,29.87,9.94,8,21.4,8.23,33,3.75,3-1.15,5.26-3.12,3.91-6.87-4-11-8-22.07-12.46-34.4-4.11,9.75,2,17.17,1.39,25.68-5.86-1.94-7.83-6.13-9.31-10.53a42.66,42.66,0,0,1,.65-30.27C131.17,101.17,129.26,94.07,126.55,86.18Zm33.75,63.7c6.18-8.39,7.53-12.2,9.6-20.79a34,34,0,0,0-1.24-20.55c-3-8-10-10.85-17.74-7.71-3.42,1.39-5.38,3.07-4.22,7.49A379.26,379.26,0,0,0,160.3,149.88Z"/></svg>