<svg id="Layer_1" data-name="Layer 1" xmlns="http://www.w3.org/2000/svg" viewBox="0 0 284.11 244.97"><defs><style>.cls-1{fill:#010101;}.cls-2{fill:#4d8d8f;}.cls-3{fill:#f7fafb;}</style></defs><path class="cls-1" d="M281.68,146.79C315.81-36.56-22.08-56.11,1.15,133.41,20.56,271,256.74,288,281.68,146.79Z"/><path class="cls-2" d="M114.19,6.16C231.88-6.36,322.41,135.15,215,216.87,55,315.39-73.34,65.11,114.19,6.16"/><path class="cls-3" d="M133.58,147.57a79.37,79.37,0,0,0-13.65,16.84c-1.55,17.05-15.67,26.27-24.36,38.82-4.42,8.62-22-3.63-17.5-11.43,4.76-9.84,12.6-18,18.74-27,1-1.31,2.26-3.33,3.47-3.39,12.19-1.14,21.2-19.12,28.12-26.29,5.86-5.54,2.55,6.63,0,0-3.94-10.24-13.19-33.56-15.12-44.42-6.62-30.61,9.66-71.91,46.08-68.24,49.69,3.67,1.26,92.37-16.13,112-3.53,4.38-4.78,8.32-1.85,13.5,3.44,6.08,6.35,12.45,9.53,18.67,1.64,3.22,3.53,5.7,7.73,3.27,4-2.27,7.15-.5,9.53,2.72,5.35,7.22,10.53,14.57,15.76,21.89C190.25,203.35,172,216,164,204.32c-3.87-5.6-18.32-17.84-15.8-24.41,3-5.51.22-9.4-2.4-13.59C142,160.19,139.84,152.94,133.58,147.57Zm-.74-25.14c11.32-19.05,19.67-37.69,23-58.22.62-5.49,4.94-35.51-6.73-27.31C127,52.48,120.3,99,132.84,122.43Z"/></svg>